<svg xmlns="http://www.w3.org/2000/svg" viewBox="0 0 434.66 186.36"><defs><style>.cls-1{isolation:isolate;}.cls-10,.cls-2,.cls-9{fill:none;stroke-miterlimit:10;}.cls-2{stroke:#ddd;stroke-width:2px;}.cls-3{fill:#f4f2ed;}.cls-4,.cls-8{fill:#230753;}.cls-4,.cls-7{opacity:0.1;mix-blend-mode:multiply;}.cls-5{fill:#ddd;}.cls-6{fill:#ff0e00;}.cls-9{stroke:#ff0e00;}.cls-10{stroke:#72727c;}.cls-11{fill:#72727c;}.cls-12{fill:#00b8e2;}.cls-13{fill:#040028;}.cls-14{fill:#fff;}.cls-15{fill:#cfcfcf;}.cls-16{fill:#00add4;}.cls-17{fill:#b5052f;}.cls-18{fill:#ce0636;}</style></defs><title>Asset 4</title><g class="cls-1"><g id="Layer_2" data-name="Layer 2"><g id="BACKGROUND_2" data-name="BACKGROUND 2"><path class="cls-2" d="M58.56,121.82S120.36,58,169.1,98.4s78.72,101.4,156.13,83.88S421,81.58,403.68,48.19"/><path class="cls-3" d="M417.09,40.07,389.18,22.74a5.19,5.19,0,0,0-7.13,1.67l-4.89,7.88a5.18,5.18,0,0,0,1.67,7.13l27.91,17.32Z"/><path class="cls-4" d="M380.52,27.06a5.19,5.19,0,0,1,7.13-1.67l27.83,17.28,1.61-2.6L389.18,22.74a5.19,5.19,0,0,0-7.13,1.67l-4.89,7.88a6.09,6.09,0,0,0-.42.85Z"/><polygon class="cls-5" points="411.77 48.63 411.77 48.63 406.74 56.74 416.65 58.61 419.76 53.59 419.76 53.59 422.88 48.57 417.09 40.07 411.77 48.63"/><rect class="cls-6" x="415.14" y="52.88" width="11.8" height="3.02" transform="translate(152.76 383.43) rotate(-58.17)"/><polygon class="cls-5" points="432.49 51.62 425.44 50.17 422.48 54.95 422.33 55.19 419.21 60.21 423.64 65.88 428.06 58.76 427.92 58.65 428.07 58.75 432.49 51.62"/><g class="cls-7"><polygon class="cls-8" points="410.17 51.23 410.17 51.23 415.49 42.66 421.23 51.09 423.84 52.77 423.84 52.77 430.88 54.22 432.49 51.62 425.44 50.17 425.44 50.18 422.83 48.5 417.09 40.07 411.77 48.63 411.77 48.63 406.74 56.74 406.75 56.74 410.17 51.23"/><polygon class="cls-8" points="426.32 61.25 426.46 61.34 426.46 61.34 426.32 61.25"/></g><path class="cls-6" d="M393.66,23.32a1.3,1.3,0,0,1,.42,1.8l-11,17.69a1.31,1.31,0,0,1-1.8.43h0a1.32,1.32,0,0,1-.43-1.81l11-17.69a1.3,1.3,0,0,1,1.81-.42Z"/><path class="cls-4" d="M393.66,23.32a1.29,1.29,0,0,0-1.34,0,1.14,1.14,0,0,1,.35.13,1.31,1.31,0,0,1,.43,1.8l-11,17.69a1.26,1.26,0,0,1-.48.44,1.31,1.31,0,0,0,1.46-.56l11-17.69A1.3,1.3,0,0,0,393.66,23.32Z"/><path class="cls-9" d="M401.14,58.44a.46.46,0,0,1,.2.61l-13.8,22.23a.46.46,0,0,1-.63.09L369.54,70.58a.47.47,0,0,1-.21-.61l13.8-22.22a.46.46,0,0,1,.64-.09Z"/><line class="cls-9" x1="372.39" y1="72.35" x2="386.61" y2="49.43"/><line class="cls-9" x1="376" y1="74.59" x2="390.23" y2="51.67"/><line class="cls-9" x1="379.61" y1="76.83" x2="393.84" y2="53.91"/><line class="cls-9" x1="383.22" y1="79.08" x2="397.45" y2="56.15"/><line class="cls-9" x1="371.54" y1="66.43" x2="389.75" y2="77.73"/><line class="cls-9" x1="373.9" y1="62.61" x2="392.11" y2="73.91"/><line class="cls-9" x1="376.27" y1="58.8" x2="394.48" y2="70.1"/><line class="cls-9" x1="378.64" y1="54.98" x2="396.85" y2="66.28"/><line class="cls-9" x1="381.01" y1="51.17" x2="399.22" y2="62.47"/><line class="cls-9" x1="391.63" y1="52.54" x2="393.95" y2="48.8"/><path class="cls-9" d="M416.13,34.29a.44.44,0,0,0,.63-.09L430.56,12a.46.46,0,0,0-.2-.61L413,.58a.46.46,0,0,0-.63.09L398.55,22.9a.46.46,0,0,0,.2.61Z"/><line class="cls-9" x1="415.83" y1="2.36" x2="401.6" y2="25.28"/><line class="cls-9" x1="419.44" y1="4.6" x2="405.22" y2="27.52"/><line class="cls-9" x1="423.06" y1="6.84" x2="408.83" y2="29.76"/><line class="cls-9" x1="426.67" y1="9.08" x2="412.44" y2="32"/><line class="cls-9" x1="410.15" y1="4.22" x2="428.36" y2="15.52"/><line class="cls-9" x1="407.78" y1="8.04" x2="425.99" y2="19.34"/><line class="cls-9" x1="405.41" y1="11.85" x2="423.62" y2="23.15"/><line class="cls-9" x1="403.04" y1="15.67" x2="421.25" y2="26.97"/><line class="cls-9" x1="400.68" y1="19.48" x2="418.88" y2="30.78"/><line class="cls-9" x1="406.62" y1="28.39" x2="404.3" y2="32.13"/><line class="cls-10" x1="428.07" y1="58.75" x2="433.49" y2="62.11"/><path class="cls-6" d="M433.88,60.37a1.67,1.67,0,1,1-2.29.53A1.66,1.66,0,0,1,433.88,60.37Z"/><path class="cls-4" d="M433.88,60.37a1.63,1.63,0,0,0-1.32-.19,1.38,1.38,0,0,1,.27.14,1.66,1.66,0,0,1-.43,3,1.66,1.66,0,0,0,1.48-3Z"/><path class="cls-11" d="M397.4,47.11a.55.55,0,0,1,.18.77h0a.55.55,0,0,1-.77.18l-9.54-5.92a.56.56,0,0,1-.18-.77h0a.56.56,0,0,1,.78-.18Z"/><path class="cls-12" d="M25.68,100.33S14.88,99.17,16,86.87l-4.46-4.06S6.83,92.12,14,100.43s14.74,5.16,14.74,5.16Z"/><path class="cls-4" d="M11.51,82.81l.78.71A16.27,16.27,0,0,0,15.53,99c4.82,5.62,9.86,6,12.62,5.65l.54,1s-7.62,3.15-14.74-5.16S11.51,82.81,11.51,82.81Z"/><path class="cls-5" d="M52.07,137.06a13.49,13.49,0,0,0,19,1.66L83.14,128.6a13.48,13.48,0,0,0,1.66-19l-25-29.73a13.48,13.48,0,0,0-19-1.67L28.77,88.32a13.5,13.5,0,0,0-1.66,19Z"/><path class="cls-4" d="M25.24,92.93a13.46,13.46,0,0,0,3,11l25,29.73a13.49,13.49,0,0,0,19,1.66l12.06-10.12a13.58,13.58,0,0,0,3.53-4.61,13.41,13.41,0,0,1-4.61,8L71.08,138.72a13.49,13.49,0,0,1-19-1.66l-25-29.73A13.48,13.48,0,0,1,25.24,92.93Z"/><path class="cls-5" d="M.61,53c-1.44,17.47,13,32.93,32.29,34.52S69,76.24,70.4,58.77s-13-32.93-32.28-34.52S2.05,35.54.61,53Z"/><path class="cls-13" d="M6.88,57.66C5.53,74,18.13,88.36,35,89.75S66.69,79,68,62.71,56.78,32,39.89,30.62,8.22,41.33,6.88,57.66Z"/><path class="cls-14" d="M63.51,76c-6.08,11.43-19,19.74-38,15.5C7.3,87.47-1.37,74,.18,55.21a35.08,35.08,0,0,1,5-15.41S-1.48,76.32,27.28,83C53.48,89.16,63.51,76,63.51,76Z"/><path class="cls-5" d="M13.14,86.29l2-2.64c1.16-1.61-.34-4.67-3.35-6.84s-6.38-2.63-7.54-1L2.4,78.26Z"/><path class="cls-14" d="M2.4,78.26c-1.17,1.61.33,4.68,3.34,6.85s6.39,2.63,7.55,1S13,81.45,9.94,79.28,3.56,76.65,2.4,78.26Z"/><path class="cls-14" d="M54.25,40.54s-3.56-4.43-11.69-5.95c0,0-6.38-1.32-6.59.93,0,0-.59,2.54,4.64,2.16C40.61,37.68,48.73,37,54.25,40.54Z"/><path class="cls-14" d="M106.54,57.09a7.64,7.64,0,0,0-3.11,10.34l1.81,3.43a7.63,7.63,0,0,0,10.29,3.27h0a7.64,7.64,0,0,0,3.1-10.34l-1.81-3.43a7.63,7.63,0,0,0-10.28-3.27Z"/><path class="cls-14" d="M116.26,62.84a2.52,2.52,0,0,0-1.39,3.28h0a2.51,2.51,0,0,0,3.27,1.39l7-2.83a2.5,2.5,0,0,0,1.39-3.28h0A2.51,2.51,0,0,0,123.26,60Z"/><path class="cls-14" d="M114.77,58.19a2.65,2.65,0,0,0-.94,3.62h0a2.65,2.65,0,0,0,3.68.6l7-4.53a2.65,2.65,0,0,0,.94-3.62h0a2.66,2.66,0,0,0-3.69-.6Z"/><path class="cls-14" d="M109.86,56.54a2.64,2.64,0,0,0,.35,3.72h0a2.64,2.64,0,0,0,3.67-.69l5-6.63a2.65,2.65,0,0,0-.35-3.72h0a2.63,2.63,0,0,0-3.67.7Z"/><path class="cls-14" d="M104.75,60.55A2.46,2.46,0,0,0,107,63.24h0a2.46,2.46,0,0,0,2.79-2.08l.86-7.17a2.47,2.47,0,0,0-2.2-2.7h0a2.47,2.47,0,0,0-2.79,2.09Z"/><path class="cls-14" d="M115,66.65a2.48,2.48,0,0,0-2.52,2.42h0a2.46,2.46,0,0,0,2.29,2.61L122,72a2.46,2.46,0,0,0,2.51-2.41h0A2.46,2.46,0,0,0,122.19,67Z"/><g class="cls-7"><path class="cls-8" d="M115.06,58l3.16-5.89a3.17,3.17,0,0,0,.36-2.82,2.65,2.65,0,0,1,.29,3.66L115.06,58Z"/><path class="cls-8" d="M110.39,55.84l-.42-2.7c0-.57-.22-1.48-.87-1.66,2.33.92,1.33,3.59,1.29,4.36Z"/><path class="cls-8" d="M114.88,73.29A7.39,7.39,0,0,0,117.49,71l3.83.17a2.46,2.46,0,0,0,2.52-2.4,2.67,2.67,0,0,0-.26-1.23,2.53,2.53,0,0,1,.9,2.07A2.46,2.46,0,0,1,122,72l-3.83-.17a7.53,7.53,0,0,1-12.52-.33A7.61,7.61,0,0,0,114.88,73.29Z"/><path class="cls-8" d="M117.8,62.22h0l6-5.19c1.12-1.14,1.61-2.16,1.11-3.28a2.34,2.34,0,0,1,.48.51,2.65,2.65,0,0,1-.94,3.62Z"/><path class="cls-8" d="M121.55,66.13l-1.81.73h0l4.76-3c1.23-.82,1.91-2,1.39-3.27,0-.05,0-.08-.07-.13a2.38,2.38,0,0,1,.71,1,2.5,2.5,0,0,1-1.39,3.28Z"/></g><path class="cls-14" d="M105.53,76.76S85.36,91.1,78.21,85L79,67.66s8.74,1.94,19.7-4c0,0-.63.94,3.7,8.38Z"/><path class="cls-4" d="M103.85,74.17l1.68,2.59S85.36,91.1,78.21,85l.11-2.29C85.39,86.24,100.6,76.37,103.85,74.17Z"/><path class="cls-14" d="M98.6,63.68l.14-.07s0,.07,0,.32C98.67,63.84,98.63,63.76,98.6,63.68Z"/><path class="cls-12" d="M99.93,62a2.91,2.91,0,0,0-.83,4l5.35,9.62A2.91,2.91,0,0,0,108.29,77h0a2.91,2.91,0,0,0,.84-4l-5.36-9.63A2.92,2.92,0,0,0,99.93,62Z"/><path class="cls-4" d="M106.74,77.08a2.9,2.9,0,0,0,.83-4l-5.35-9.63a3.32,3.32,0,0,0-2-1.6,3,3,0,0,1,3.57,1.51L109.13,73a2.91,2.91,0,0,1-.84,4,2.45,2.45,0,0,1-1.82.19A1.53,1.53,0,0,0,106.74,77.08Z"/><path class="cls-14" d="M69.94,64.47s-2.43-1.26-6.42.18l-18.6,6.81a13.82,13.82,0,0,0-7.23,6.63c-2.67,5.17-8,14.16-8,14.16a4.79,4.79,0,0,0,.65,5.36C32.5,100.36,51.91,122,51.91,122s3.51,2.93,3.18,6.1a2.45,2.45,0,0,0,2.61,3s2.19-.44,2.37,2.35,10.39,16.48,17.29,8.75,27.85-29.25,27.85-29.25,4-4-.66-8.4-5.56-1.19-6-6.54c0,0-.07-2.89-2.17-3.27S95.22,93,95.22,93a2.44,2.44,0,0,0,0-3.09c-1.3-1.46,1.26-4.38-4-4.81Z"/><g class="cls-7"><path class="cls-8" d="M95.22,93a1.51,1.51,0,0,0-.1.2c-.47-1.54,1-3.85-3.69-4.22L70.16,68.34s-2.44-1.26-6.42.19-18.6,6.81-18.6,6.81A13.77,13.77,0,0,0,37.91,82c-2.67,5.16-8,14.16-8,14.16a3.61,3.61,0,0,0-.22.48,4.72,4.72,0,0,1,0-4.36s5.38-9,8-14.16a13.82,13.82,0,0,1,7.23-6.63l18.6-6.81c4-1.44,6.42-.18,6.42-.18L91.22,85.05c5.27.43,2.71,3.35,4,4.81A2.44,2.44,0,0,1,95.22,93Z"/><path class="cls-8" d="M104.77,108.41c-4.64-4.45-5.57-1.19-6-6.54,0,0-.07-2.89-2.17-3.27s-1.2-1.77-1.2-1.77a2.75,2.75,0,0,0,.48-2.24,2.78,2.78,0,0,0,.5.13c2.1.38,2.17,3.27,2.17,3.27.4,5.35,1.32,2.09,6,6.54,2.51,2.4,2.5,4.65,2,6.22A7.81,7.81,0,0,0,104.77,108.41Z"/></g><path class="cls-15" d="M58.18,74l-1.36,7.13a3.71,3.71,0,0,0,.7,2.74L70.4,102.52c1.16,1.57,2.87,1.53,4.7.9l17.23-7.25a3.12,3.12,0,0,0,1.23-2.69l.62-4.84"/><path class="cls-15" d="M59.57,100.38c-1.06,1.05-.73,3.09.72,4.57s3.5,1.83,4.56.78.73-3.09-.72-4.56S60.63,99.34,59.57,100.38Z"/><path class="cls-15" d="M52.11,87.87c-.88.87-.6,2.58.61,3.81s2.92,1.53,3.8.66.61-2.58-.61-3.81S53,87,52.11,87.87Z"/><path class="cls-4" d="M63.86,102c-1.46-1.47-3.5-1.83-4.56-.78a2.1,2.1,0,0,0-.31.41,2.15,2.15,0,0,1,.58-1.23c1.06-1,3.1-.69,4.56.79,1.28,1.3,1.68,3,1,4.15A4.12,4.12,0,0,0,63.86,102Z"/><path class="cls-4" d="M55.65,89.34c-1.22-1.23-2.92-1.52-3.8-.65a1.6,1.6,0,0,0-.23.3,1.82,1.82,0,0,1,.49-1.12c.89-.86,2.58-.57,3.8.66a3,3,0,0,1,.84,3.5A3.51,3.51,0,0,0,55.65,89.34Z"/><path class="cls-5" d="M72.81,96c1,1.4,2.59,1.41,4.09.9l16.22-6.42a3,3,0,0,0,.3-4.18l-14.12-19a3,3,0,0,0-4.09-.91L59,72.8A3,3,0,0,0,58.68,77Z"/><path class="cls-5" d="M61.72,101.25a1.77,1.77,0,0,0,.12,2.51h0a1.76,1.76,0,0,0,2.5,0l5.31-5.54a1.79,1.79,0,0,0-.12-2.52h0a1.79,1.79,0,0,0-2.52,0Z"/><path class="cls-4" d="M61.72,101.25,67,95.71a1.79,1.79,0,0,1,2.52,0,2,2,0,0,1,.42.6,1.76,1.76,0,0,0-2.33.14L62.32,102a1.74,1.74,0,0,0-.3,1.92,1.3,1.3,0,0,1-.18-.15A1.77,1.77,0,0,1,61.72,101.25Z"/><path class="cls-13" d="M68,81.86a1.85,1.85,0,0,0,2.59.23L80.52,78a1.85,1.85,0,0,0,.56-2.54l-3.84-5.26c-.56-.77-1.33-.81-2.59-.24l-9.92,4.07a1.85,1.85,0,0,0-.56,2.54Z"/><path class="cls-14" d="M91.9,131.89s1.19-1.78-2.77-5.93-13.81-19.7-32.27-.72l25.43,21.22s2.87,1.34,4.51-.74S91.9,131.89,91.9,131.89Z"/><path class="cls-12" d="M82,127.74,76,123.3a4.21,4.21,0,0,1-.65-5.92,4.56,4.56,0,0,1,1.09-1.06c5.88,1.26,9.79,6.33,12.12,9a4.89,4.89,0,0,1-.64,1.27A4.22,4.22,0,0,1,82,127.74Z"/><path class="cls-4" d="M90.47,135.08s1.19-1.78-2.77-5.94c-3.79-4-14-19.14-30.84-3.9h0c18.46-19,28.3-3.43,32.27.72s2.77,5.93,2.77,5.93.29.27-1.43,3.19Z"/><path class="cls-12" d="M112.14,154.77s-3.85,2.77-12.68-3.85c0,0-6.51-4.87-12.42-4.28,0,0-2.61.81-2.57-2.21S91.06,131,91.06,131s.44-1.21,3-.13a27.35,27.35,0,0,1,11.07,7.26s1-1.56,4.34-8.48S117,128.2,117,128.2Z"/><path class="cls-12" d="M112.14,154.77s-3.85,2.77-12.68-3.85c0,0-6.51-4.87-12.42-4.28,0,0-2.61.81-2.57-2.21S91.06,131,91.06,131s.44-1.21,3-.13a27.35,27.35,0,0,1,11.07,7.26s1-1.56,4.34-8.48S117,128.2,117,128.2Z"/><g class="cls-7"><path class="cls-8" d="M115.36,130.44s-2.81-3.67-5.65-1.2c3.3-6.29,7.31-1,7.31-1l-4.88,26.57a3.58,3.58,0,0,1-1.34.47Z"/><path class="cls-8" d="M103.5,140.37a27.35,27.35,0,0,0-11.07-7.26,3.45,3.45,0,0,0-2.45-.35c.64-1.07,1.08-1.76,1.08-1.76s.44-1.21,3-.13a27.5,27.5,0,0,1,10.8,7C103.87,139.79,103.5,140.37,103.5,140.37Z"/></g><path class="cls-5" d="M109,148.08c-.53,3.39.6,6.38,2.53,6.69h0c1.93.31,3.93-2.19,4.47-5.58l2.37-14.88c.54-3.38-.6-6.38-2.52-6.68h0c-1.93-.31-3.93,2.18-4.47,5.57Z"/><path class="cls-4" d="M117.25,129.65c-1.93-.31-3.93,2.18-4.47,5.57l-2.37,14.88a9,9,0,0,0,.28,4.3c-1.39-.94-2.11-3.48-1.67-6.32l2.38-14.88c.54-3.39,2.54-5.88,4.47-5.57a3.16,3.16,0,0,1,2.24,2.39A2,2,0,0,0,117.25,129.65Z"/><path class="cls-14" d="M45.38,137.49a7.78,7.78,0,0,0-7.25-8.28l-4-.29a7.79,7.79,0,0,0-8.39,7.13h0a7.78,7.78,0,0,0,7.26,8.28l3.94.29a7.78,7.78,0,0,0,8.39-7.13Z"/><path class="cls-14" d="M35.15,142.79a2.56,2.56,0,0,0-2.08-3h0a2.55,2.55,0,0,0-3,2.08l-1.34,7.58a2.57,2.57,0,0,0,2.08,3h0a2.58,2.58,0,0,0,3-2.08Z"/><path class="cls-14" d="M40,144a2.69,2.69,0,0,0-2.62-2.77h0a2.7,2.7,0,0,0-2.51,2.86l.16,8.46a2.68,2.68,0,0,0,2.61,2.77h0a2.71,2.71,0,0,0,2.52-2.86Z"/><path class="cls-14" d="M44.06,140.67A2.7,2.7,0,0,0,40.65,139h0a2.69,2.69,0,0,0-1.38,3.54l3,7.9a2.7,2.7,0,0,0,3.41,1.71h0a2.7,2.7,0,0,0,1.38-3.55Z"/><path class="cls-14" d="M43.36,134.08a2.52,2.52,0,0,0-3.53.46h0a2.52,2.52,0,0,0,.3,3.53l5.73,4.63a2.51,2.51,0,0,0,3.52-.46h0a2.51,2.51,0,0,0-.29-3.53Z"/><path class="cls-14" d="M32.55,139.62a2.49,2.49,0,0,0-.73-3.47h0a2.5,2.5,0,0,0-3.5.56l-4.17,6.07a2.5,2.5,0,0,0,.72,3.47h0a2.51,2.51,0,0,0,3.51-.57Z"/><g class="cls-7"><path class="cls-8" d="M47.66,141.67a2.52,2.52,0,0,0-.29-3.54l-3.81-3.07a7.75,7.75,0,0,0-4.37-5.68,7.81,7.81,0,0,1,6.1,6.25l3.8,3.08a2.57,2.57,0,0,1-3.23,4l-.07-.06A2.6,2.6,0,0,0,47.66,141.67Z"/><path class="cls-8" d="M44,151.54c1.32-.51,1.62-1.32,1.38-3.55l-1-6.49h0c.19.16-.21-.08,0,0l2.71,7.06a2.7,2.7,0,0,1-1.38,3.55,2.51,2.51,0,0,1-2.47-.43A2.48,2.48,0,0,0,44,151.54Z"/><path class="cls-8" d="M32.34,150.32l2.52-5.73-1.09,6a2.56,2.56,0,0,1-2.93,1.88,2.64,2.64,0,0,1-1.16-.54A3.11,3.11,0,0,0,32.34,150.32Z"/><path class="cls-8" d="M27.55,145.33l2.25-1.71-1.56,2.24a2.54,2.54,0,0,1-3.37.39l-.14-.11A3.64,3.64,0,0,0,27.55,145.33Z"/><path class="cls-8" d="M38.42,151.9,40,144.38h0l.15,8.1a2.71,2.71,0,0,1-2.52,2.86,2.45,2.45,0,0,1-1.6-.59C37.38,154.66,37.93,154.14,38.42,151.9Z"/></g><path class="cls-14" d="M41.27,126.07l-12.38.85s-3.26-4.14-2.51-20.52l.82-8.55a9.18,9.18,0,0,1,10-8.28h0a9.19,9.19,0,0,1,8.28,10S45.85,110.69,41.27,126.07Z"/><path class="cls-4" d="M41.39,100.37a9.2,9.2,0,0,0-8.28-10l-.5,0A9.2,9.2,0,0,1,45.5,99.59s.35,11.1-4.23,26.48l-4,.27C41.74,111.23,41.39,100.37,41.39,100.37Z"/><path class="cls-12" d="M26.78,102.15a4.66,4.66,0,0,1,2.74-.9,4.23,4.23,0,0,1,4.41,4l0,7.53a4.21,4.21,0,0,1-4.39,4,4.54,4.54,0,0,1-3.15-1.21,86.49,86.49,0,0,1,0-9.2Z"/><path class="cls-12" d="M26.28,129.8a2.91,2.91,0,0,0,3.3,2.41l11-.9a2.91,2.91,0,0,0,2.87-2.92h0A2.92,2.92,0,0,0,40.11,126l-11,.91a2.89,2.89,0,0,0-2.86,2.92Z"/><path class="cls-4" d="M42.48,129.57a2.91,2.91,0,0,0-3.3-2.41l-11,.9a3.49,3.49,0,0,0-1.76.66,3.13,3.13,0,0,1,2.7-1.84l11-.91a2.92,2.92,0,0,1,3.31,2.42,2.56,2.56,0,0,1-1.11,2.26A2.3,2.3,0,0,0,42.48,129.57Z"/><path class="cls-14" d="M128.33,106.6s-16.16-16.76-34.46-6c-6.61,3.86-9.08,6.31-9.08,6.31l8.38,15.53s16.47-4.13,27.82-.14c0,0,2.59.7,3.76-.94Z"/><path class="cls-12" d="M119.61,104.87l-7.1-2.53a4.16,4.16,0,0,1-2.41-5.11,32.64,32.64,0,0,1,14.15,6A4.08,4.08,0,0,1,119.61,104.87Z"/><path class="cls-4" d="M94.84,102.32c-5,2.29-8.71,3.48-10,4.55h0s2.47-2.45,9.08-6.31c18.3-10.72,34.46,6,34.46,6l-.67,2.73C124.73,106.59,110.92,94.91,94.84,102.32Z"/><path class="cls-12" d="M150,129.12s-3.85,2.77-12.68-3.85a21.72,21.72,0,0,0-11.2-2.31s-2.55.14-2.51-2.88,3.8-13.7,3.8-13.7.45-1.21,3-.13,8.19,1.49,12.56,6.23c0,0,1-1.56,4.34-8.48s7.52-1.44,7.52-1.44Z"/><path class="cls-4" d="M154.05,104.51S149.87,99,146.53,106,143,113.9,143,113.9c-4.37-4.74-10.77-4.61-13.36-5.69-1.69-.7-2.46-.44-2.79-.17l.56-1.66s.45-1.21,3-.13,8.19,1.49,12.56,6.23c0,0,1-1.56,4.34-8.48s7.52-1.44,7.52-1.44L150,129.12a2.59,2.59,0,0,1-.5.25Z"/><path class="cls-5" d="M146.87,122.43c-.54,3.39.59,6.38,2.52,6.69h0c1.93.31,3.94-2.19,4.47-5.58l2.37-14.87c.54-3.39-.59-6.38-2.51-6.69h0c-1.94-.31-3.93,2.19-4.48,5.57Z"/><path class="cls-4" d="M154.92,104.17c-1.93-.31-3.93,2.19-4.47,5.57l-2.38,14.88a9.47,9.47,0,0,0,.17,3.91c-1.19-1.08-1.79-3.46-1.37-6.1l2.37-14.88c.55-3.38,2.54-5.88,4.48-5.57,1.11.18,1.94,1.26,2.35,2.79A2.25,2.25,0,0,0,154.92,104.17Z"/><path class="cls-5" d="M53.7,88.47a1.49,1.49,0,0,0,.1,2.1h0a1.49,1.49,0,0,0,2.09,0L60.31,86a1.48,1.48,0,0,0-.1-2.1h0a1.48,1.48,0,0,0-2.09,0Z"/><path class="cls-4" d="M60.48,84.77a1.48,1.48,0,0,0-2.09,0L54,89.38a1.38,1.38,0,0,0-.36.91,1.44,1.44,0,0,1,.09-1.82l4.42-4.62a1.48,1.48,0,0,1,2.09,0A1.55,1.55,0,0,1,60.68,85,1.71,1.71,0,0,0,60.48,84.77Z"/><path class="cls-16" d="M70,86.65a2.37,2.37,0,1,0,4.72.5l0-.92L70,86.05Z"/><path class="cls-12" d="M70,86.05a2.39,2.39,0,1,0,2.58-1.82A2.26,2.26,0,0,0,70,86.05Z"/><path class="cls-17" d="M76.91,92.62a1.86,1.86,0,0,0,3.69.4l0-.72-3.69-.14Z"/><path class="cls-18" d="M76.93,92.16a1.87,1.87,0,1,0,2-1.43A1.76,1.76,0,0,0,76.93,92.16Z"/><path class="cls-17" d="M84.26,89.56A1.86,1.86,0,0,0,88,90l0-.71-3.69-.14Z"/><path class="cls-18" d="M84.28,89.1a1.86,1.86,0,1,0,2-1.43A1.75,1.75,0,0,0,84.28,89.1Z"/><path class="cls-16" d="M81.25,82.1a2.37,2.37,0,1,0,4.71.5l0-.92-4.72-.18Z"/><path class="cls-12" d="M81.27,81.5a2.39,2.39,0,1,0,2.58-1.82A2.24,2.24,0,0,0,81.27,81.5Z"/><path class="cls-16" d="M75.83,84.28a2.37,2.37,0,1,0,4.72.5l0-.91-4.72-.18Z"/><path class="cls-12" d="M75.85,83.69a2.39,2.39,0,1,0,2.58-1.83A2.26,2.26,0,0,0,75.85,83.69Z"/><path class="cls-14" d="M33.2,36.88a1.77,1.77,0,1,1-1.77-1.77A1.77,1.77,0,0,1,33.2,36.88Z"/></g></g></g></svg>