<svg xmlns="http://www.w3.org/2000/svg" viewBox="0 0 85.81 209.04"><defs><style>.cls-1{fill:#46af8b;}.cls-2{fill:#87de89;}.cls-3{fill:#428670;}.cls-4{fill:#1a3d2a;}.cls-5{fill:#cbf490;}.cls-6{fill:#231f20;opacity:0.3;}.cls-7{fill:#fff;}</style></defs><title>Asset 2</title><g id="Layer_2" data-name="Layer 2"><g id="OBJECTS"><path class="cls-1" d="M21.11,82.65s2,7.5,1.62,10.38-4.62,14.37-6.5,15.62S14.48,120.9,22,124s.38-13.63.38-13.63,3.62-10,7.5-14.75S28.48,77,28.48,77Z"/><path class="cls-2" d="M27,54.45S8.78,59.7,8.78,79.2c1,12,2.5,16.25.75,19.75S.28,108.45,0,112s1.25,12,5.75,12.75,3.25-11.25,2.5-13,2.75-7.25,5.25-8.5,4-6.75,3.5-11.5S26.28,79,26.28,79,25.53,60,27,54.45Z"/><path class="cls-3" d="M21.36,84a9.29,9.29,0,0,1,4.92-5s1.08,4.66,1.75,6.41c0,0-3.09,4.67-3.75,8s-5,10-5,10S22.55,95.22,22.73,93C23,89.94,21.36,84,21.36,84Z"/><path class="cls-1" d="M27,54.45S21.36,65.2,18.36,68.86s-3,18.17-3.17,22.5S11.53,101.7,9.53,104.2s-4.5,4.33-4,10.33,3.25,6.79,3.25,6.79a19.78,19.78,0,0,0-.5-9.62S9,107.07,14,102.9s3-11.2,3-11.2S16.19,87.86,26.28,79C26.28,79,24.19,65.2,27,54.45Z"/><path class="cls-2" d="M47,15.86s-1.17-6,3.33-13.66C53-2,55.19.86,55,2s-1.17,2.83-3.5,1.83a17.57,17.57,0,0,0-2.34,12.5Z"/><path class="cls-2" d="M35,45.86a9.07,9.07,0,0,0-8,5.67c-2.34,5.67-3.67,24.17.33,37,0,0,1.17,2.17-1.67,6.33S21,102.7,22.53,105.2,30,99.53,31,96.53c0,0,1.33-.83,3.16.83s3.34-1.83,2-2.66-5.33-2.5-4.5-8.67a26.36,26.36,0,0,1,.84-9.33s12.83,2.5,21.33-11.5a58.8,58.8,0,0,1,8.83,12c3.84,7,4.84,8.16,5.34,10.33s-.17,4.17.66,6.17,3.5,1.16,3.5.16-.83-3.66-.33-4.33c0,0,9.5,4.5,11.17,2.83s-.67-5.66-6.34-8.16-7.83-2.67-9.16-6.84S62.19,55,55.19,50.36C55.19,50.36,49.86,57,35,45.86Z"/><path class="cls-2" d="M30.78,22s-3-5.32-11.42-8.22c-4.73-1.43-4.54,2.13-3.65,2.91a2.3,2.3,0,0,0,3.85-.88,17.56,17.56,0,0,1,9.9,8Z"/><path class="cls-1" d="M33.44,46.11a17.8,17.8,0,0,0,7.09,10.75c6.08,4.34,1.83,17.09-.59,19.42A23,23,0,0,0,53.86,65.2a48.27,48.27,0,0,1,6.58,8.41,19.34,19.34,0,0,0,.92-14.75,21,21,0,0,0-5.08-7.75S52.61,54.7,33.44,46.11Z"/><path class="cls-2" d="M58.71,25.63h0A16.46,16.46,0,0,0,43.2,15.39c-9.11,0-16.5,6.94-16.5,15.5a14.67,14.67,0,0,0,.68,4.36h0c4.75,15.5,18.15,18.36,23.4,18.36a7.62,7.62,0,0,0,7-4.75C63,34.61,58.71,25.63,58.71,25.63Z"/><path class="cls-1" d="M32.53,76.7a22.33,22.33,0,0,1,.67-6.52c.27-1.06.54-2.08.76-3.12l.57-3.2a13.51,13.51,0,0,1,.2,3.3,19.36,19.36,0,0,1-.56,3.25l-.78,3.14C33.12,74.59,32.87,75.65,32.53,76.7Z"/><ellipse class="cls-4" cx="56.85" cy="32.73" rx="5.12" ry="7.54"/><path class="cls-5" d="M57,27.84c2.2,1.16,2.45,3.71,2.61,5.94,0,.73,1.2.74,1.15,0-.19-2.64-.6-5.57-3.18-6.93-.66-.35-1.24.64-.58,1Z"/><path class="cls-5" d="M59.86,36.51H60a.58.58,0,0,0,0-1.15h-.11a.58.58,0,0,0,0,1.15Z"/><ellipse class="cls-6" cx="43.03" cy="201.72" rx="42.78" ry="7.32"/><path class="cls-4" d="M47.51,34.53c2.42,3.82,2.28,8.25-.31,9.89s-6.66-.11-9.09-3.93-2.28-8.25.32-9.89S45.09,30.71,47.51,34.53Z"/><path class="cls-5" d="M40.13,32.81c1-.57,2.83,1,3.55,1.54a6.65,6.65,0,0,1,2.22,2.76c.29.74,1.5.42,1.21-.33A8.6,8.6,0,0,0,43.88,33c-1.23-.86-2.87-2.09-4.38-1.22a.63.63,0,0,0,.63,1.08Z"/><path class="cls-5" d="M47.47,39.67a.63.63,0,0,0,0-1.25.63.63,0,0,0,0,1.25Z"/><path class="cls-5" d="M41.73,16.28h-.25a.63.63,0,0,0,0,1.25h.25a.63.63,0,0,0,0-1.25Z"/><path class="cls-5" d="M42.92,17.84c1.46.21,3,.45,4,1.63.52.61,1.4-.28.88-.89-1.15-1.35-2.91-1.7-4.58-1.94-.79-.11-1.13,1.09-.33,1.2Z"/><path class="cls-5" d="M30.53,48.44a8.4,8.4,0,0,0-2.82,4.41.63.63,0,0,0,1.21.33,7.31,7.31,0,0,1,2.49-3.86c.62-.51-.27-1.39-.88-.88Z"/><path class="cls-5" d="M18.64,59.82A19.33,19.33,0,0,0,12,67.45c-.35.72.73,1.36,1.08.63a18.26,18.26,0,0,1,6.15-7.18c.66-.45,0-1.53-.63-1.08Z"/><path class="cls-7" d="M76.36,81a8.15,8.15,0,0,1,2.88.52,10.4,10.4,0,0,1,2.61,1.39,13.15,13.15,0,0,1,1.14,1A10.35,10.35,0,0,1,84,85a7.61,7.61,0,0,1,1.24,2.66,24.55,24.55,0,0,0-1.84-2.16,15.52,15.52,0,0,0-2.09-1.8A24.38,24.38,0,0,0,76.36,81Z"/><path class="cls-7" d="M80.51,79.71a4.85,4.85,0,0,1,1.64.3,5.77,5.77,0,0,1,1.49.79,5,5,0,0,1,1.91,2.71,16.1,16.1,0,0,0-1-1.23,9.66,9.66,0,0,0-1.2-1A13.7,13.7,0,0,0,80.51,79.71Z"/><path class="cls-7" d="M6.75,67.94a8.07,8.07,0,0,1,.54-2.87,10.61,10.61,0,0,1,1.4-2.61c.3-.4.64-.76,1-1.13a10.16,10.16,0,0,1,1.14-.94,7.54,7.54,0,0,1,2.67-1.23A24.63,24.63,0,0,0,11.31,61,14.83,14.83,0,0,0,9.5,63.06,24.13,24.13,0,0,0,6.75,67.94Z"/><path class="cls-7" d="M5.46,63.79a4.63,4.63,0,0,1,.31-1.64,5.64,5.64,0,0,1,.8-1.49A5,5,0,0,1,9.3,58.77a14.28,14.28,0,0,0-1.24,1A8.89,8.89,0,0,0,7,61,13.06,13.06,0,0,0,5.46,63.79Z"/><path class="cls-7" d="M18.65,99.55a8.05,8.05,0,0,1,.61-2.86,10.6,10.6,0,0,1,1.45-2.58,13,13,0,0,1,1-1.11,8.78,8.78,0,0,1,1.17-.92,7.46,7.46,0,0,1,2.68-1.17,24.72,24.72,0,0,0-2.2,1.78,15,15,0,0,0-1.86,2A24.2,24.2,0,0,0,18.65,99.55Z"/><path class="cls-7" d="M17.45,95.37a4.81,4.81,0,0,1,.35-1.63,5.35,5.35,0,0,1,.83-1.47,4.88,4.88,0,0,1,2.76-1.83,14.27,14.27,0,0,0-1.26,1,9.65,9.65,0,0,0-1.05,1.17A13.86,13.86,0,0,0,17.45,95.37Z"/></g></g></svg>