<svg xmlns="http://www.w3.org/2000/svg" viewBox="0 0 39.44 38.53"><defs><style>.cls-1{isolation:isolate;}.cls-2,.cls-3,.cls-4,.cls-6,.cls-8,.cls-9{fill:#be8d4c;}.cls-3,.cls-4,.cls-5,.cls-7{mix-blend-mode:multiply;}.cls-4,.cls-8{opacity:0.6;}.cls-5{fill:#836a31;}.cls-6{opacity:0.3;}.cls-6,.cls-8,.cls-9{mix-blend-mode:screen;}.cls-7{fill:#684825;}.cls-9{opacity:0.7;}</style></defs><title>Asset 2</title><g class="cls-1"><g id="Layer_2" data-name="Layer 2"><g id="Layer_1-2" data-name="Layer 1"><path class="cls-2" d="M18.74,1.2a9.54,9.54,0,0,1,6.11.64c2,1.05,2.64,1.45,3.76,2s3,2.25,4.63,3.33,3.12,1.61,4.38,4.45a2.52,2.52,0,0,0,1,.95,2.26,2.26,0,0,1,.66.53c.35.5.11,1.11-.59,1.5s-.43,1.77-.14,2,1,.88.6,1.53.29,2.1-1.08,5.38c-.29,1.18.28,1.49-.37,2.43s-1.17,2.48-1.84,3a10.76,10.76,0,0,0-2.15,3c-.36.79-4.16,4.58-6.89,4.79-1.7.48-2.71.31-3.66.95s-1.29,0-1.65.52-.65.59-1.68.06c-.55-.2-4.19.59-9.36-2.07-5-2.6-5.58-3.46-5.87-4.17A1,1,0,0,0,4,31.4c-.34-.18-.66-.34-.45-1C2.5,29.19-.43,23.74.48,19.88-.24,19-.22,17.5,1,17.93c-.35-1.27-.62-3.52,2.17-7.74a12.18,12.18,0,0,0,1-2.09c.06-.21.61,0,.8-.66S6.25,4.59,7.44,4.36,9.23,3.51,9.21,2.9s.33-.47.74-.19S13.4.93,16.6,1c.58-.21,1-1.21,1.3-1S18.16,1.16,18.74,1.2Z"/><path class="cls-3" d="M21.56,5.74a7.63,7.63,0,0,0-3-.11.1.1,0,0,1-.12-.11,5.06,5.06,0,0,0-1.1.1c-.37.1-.76.42-.51.85a1.27,1.27,0,0,0,.64.5A4.67,4.67,0,0,0,20,7.11a4,4,0,0,0,1.52-.48C21.93,6.4,22.06,5.91,21.56,5.74Z"/><path class="cls-3" d="M31.72,21.45a2,2,0,0,0-.27,2.1,1.59,1.59,0,0,0,1,.86,1,1,0,0,0,1.12-.6,1,1,0,0,1-1.35-.76,4.32,4.32,0,0,1,.71-2.31,5.58,5.58,0,0,1,1.3-1.92,1.4,1.4,0,0,1,.3-.18C33.68,18.41,32,21.05,31.72,21.45Z"/><path class="cls-3" d="M27.53,12.34a4.32,4.32,0,0,1-.44-1.55,3.29,3.29,0,0,0,.38,3.31A3.12,3.12,0,0,0,31,15a4.93,4.93,0,0,1-2.55-1.18A3.67,3.67,0,0,1,27.53,12.34Z"/><path class="cls-3" d="M22.68,22.22a3.35,3.35,0,0,1-2.28.39,2,2,0,0,1-1.7-1.21,1.08,1.08,0,0,1,0-.71c-.37.2-.92.52-.81,1A2.42,2.42,0,0,0,19.18,23a3.62,3.62,0,0,0,1.33.33,4.39,4.39,0,0,0,2.89-.7,1.45,1.45,0,0,0,.24-2.09A2.21,2.21,0,0,1,22.68,22.22Z"/><path class="cls-3" d="M15.55,9a2.83,2.83,0,0,0-1.17.53,7.63,7.63,0,0,0-.7.54c.1,0,.09.21,0,.25s-.34.14-.56.25l-.52.43a.05.05,0,0,1-.05,0,.34.34,0,0,0,.16.46,1.85,1.85,0,0,0,1.51.15,2.59,2.59,0,0,0,2-1.66C16.35,9.53,16.14,8.94,15.55,9Z"/><path class="cls-4" d="M38.55,16.52c-.29-.2-.55-1.58.14-2s.94-1,.59-1.5a2.26,2.26,0,0,0-.66-.53,2.52,2.52,0,0,1-1-.95c-1.26-2.84-2.79-3.37-4.38-4.45S29.73,4.3,28.61,3.79s-1.71-.9-3.76-1.95a9.54,9.54,0,0,0-6.11-.64c-.58,0-.55-1-.84-1.17s-.72.8-1.3,1C13.4.93,10.36,3,10,2.71s-.75-.42-.74.19S8.63,4.14,7.44,4.36,5.18,6.79,5,7.44s-.74.45-.8.66a12.18,12.18,0,0,1-1,2.09C.42,14.41.69,16.66,1,17.93-.22,17.5-.24,19,.48,19.88c-.91,3.86,2,9.31,3.11,10.48-.21.7.11.86.45,1a1,1,0,0,1,.56.52c.29.71.92,1.57,5.87,4.17,5.17,2.66,8.81,1.87,9.36,2.07,1,.53,1.32.47,1.68-.06s.69.13,1.65-.52,2-.47,3.66-.95c2.73-.21,6.53-4,6.89-4.79a10.76,10.76,0,0,1,2.15-3c.67-.48,1.2-2,1.84-3s.08-1.25.37-2.43c1.37-3.28.64-4.73,1.08-5.38S38.85,16.72,38.55,16.52Zm-1.07,3.69c-.1.55-.34,1-.49,1.58a16.39,16.39,0,0,0-.36,1.69,5.66,5.66,0,0,1-1.21,3.09c-.39.38-.87.64-1.29,1a5.38,5.38,0,0,0-1.07,1.26,3.6,3.6,0,0,1-1.91,1.7,5.19,5.19,0,0,0-1.2.21c-.52.29-.47.94-.44,1.44.11,1.54-2.14,2.09-3.27,2.3a24.19,24.19,0,0,1-2.56.32,8.37,8.37,0,0,1-2.06.07c-1.51-.28-2.55-1.88-4.17-1.79a2.54,2.54,0,0,0-1.52.57,4,4,0,0,1-.94.76c-.7.3-1.34-.21-1.89-.61A4.82,4.82,0,0,1,11.37,32c-.22-.48-.54-1.28-1.16-1.33-.36,0-.69.18-1.05.19s-.67,0-.85-.27a1.77,1.77,0,0,1-.19-.88,4.47,4.47,0,0,0-.29-1.75c-.24-.42-.65-.59-.94-1-.48-.63.25-1.05.51-1.55A1.2,1.2,0,0,0,6.84,24c-.38-.1-.77.19-1.1.36-.52.29-1.22.56-1.66,0a5.28,5.28,0,0,1-.89-2.91A9.38,9.38,0,0,1,3.43,19c.08-.36.35-1.39.91-1.31s.43,1.11,1.09,1.26.82-.65,1-1A13.37,13.37,0,0,0,7,14.18a3.85,3.85,0,0,0-.74-2.44c-.15-.21-.32-.4-.48-.6A.28.28,0,0,1,5.66,11a2.61,2.61,0,0,1,.23-1.17A15.82,15.82,0,0,1,7.22,7.15,4,4,0,0,1,9.41,5.49a3.71,3.71,0,0,0,1.58-1,5.2,5.2,0,0,1,.89-.8,29.24,29.24,0,0,1,3.24-1.23c1.63-.9,3.74.66,5.19,1.37a6.23,6.23,0,0,0,2.29.71,4.26,4.26,0,0,0,1.07,0,1.81,1.81,0,0,0,.85-.46,1.07,1.07,0,0,1,1-.31,5.08,5.08,0,0,1,1.34.41c.84.38,1.61.86,2.4,1.3a26.57,26.57,0,0,1,2.93,1.82,12.72,12.72,0,0,1,2.72,2.45,20.45,20.45,0,0,1,1.3,2.81c.38.73,1.21,1.12,1.19,2,0,1.08-.83,2.07-.52,3.17C37.07,18.55,37.63,19.36,37.48,20.21Z"/><path class="cls-5" d="M38.55,16.52a1.67,1.67,0,0,1-.11-1.74.68.68,0,0,1,.25-.23,1.71,1.71,0,0,0,.58-.5.84.84,0,0,0,0-1h0a1.65,1.65,0,0,0-.39-.35h0l-.21-.13h0l0,0-.27-.17h0a2.25,2.25,0,0,1-.73-.77h0v0h0a7.36,7.36,0,0,0-2.77-3.39h0l-.79-.52c-.27-.16-.54-.33-.81-.52C32.2,6.42,31,5.43,30,4.69l-.53-.37h0a5.16,5.16,0,0,0-.89-.52h0c-1.12-.5-1.71-.9-3.76-1.95a9.54,9.54,0,0,0-6.11-.64h0a.39.39,0,0,1-.22-.08h0a1.34,1.34,0,0,1-.39-.7A.76.76,0,0,0,17.9,0c-.3-.2-.72.8-1.3,1C13.4.93,10.36,3,10,2.71s-.55-.33-.67-.16a.59.59,0,0,0-.07.35A.93.93,0,0,1,9,3.5a2.36,2.36,0,0,1-1.58.86A2.87,2.87,0,0,0,5.89,5.68,7,7,0,0,0,5,7.44a.73.73,0,0,1-.12.25c-.21.32-.57.25-.66.38l0,0a12.18,12.18,0,0,1-1,2.09C.42,14.41.69,16.66,1,17.93c-.45-.15-.75-.05-.9.17a1.67,1.67,0,0,0,.34,1.78c-.91,3.86,2,9.31,3.11,10.48h0c-.15.5,0,.72.21.87L4,31.4h0a1.71,1.71,0,0,1,.23.13h0a.84.84,0,0,1,.31.36h0c.17.43.47.92,1.78,1.81h0a41,41,0,0,0,4,2.33h0l0,0c5.17,2.66,8.81,1.87,9.36,2.07,1,.53,1.32.47,1.68-.06s.69.13,1.65-.52,2-.47,3.66-.95c2.56-.19,6.06-3.54,6.78-4.6a1.44,1.44,0,0,0,.11-.19,12.85,12.85,0,0,1,1-1.62,6.39,6.39,0,0,1,1.19-1.4,2.09,2.09,0,0,0,.48-.53c.46-.68.88-1.72,1.36-2.43.65-.94.08-1.25.37-2.43,1.37-3.28.64-4.73,1.08-5.38S38.85,16.72,38.55,16.52Zm-.73-2.4c-.69.44-.8,2.69-.18,3.11s.35,3.09-.46,6.55-2.28,3.35-4,6.45S29.34,34,27.34,35.18s-4.07,1.23-6.8,1.82-8.62-.83-12.92-3.63l-.2-.13C3.3,30.43,2.62,26,1.78,22.79s1-5.89.37-7,1.92-5.29,2.13-6.17S6.82,5.15,8,5a3.61,3.61,0,0,0,2.89-1.39C11.56,2.56,16.75,2,16.75,2a5.14,5.14,0,0,1,2.84,1.16c.84.52,2.64,1.63,3.67,1A1.12,1.12,0,0,0,23.07,4a4.19,4.19,0,0,0-.62-.33c-1.26-.58-2.27-.89-2.63-1.14s-.16-.34.55-.54c1.6-.46,5.17,1.33,6.26,1.81a33.28,33.28,0,0,1,4.1,2.53c1.5,1,3.67,2.77,4.55,3.37s1.36,2.36,1.84,2.68l.06,0a.65.65,0,0,1,.16.09C37.84,12.82,38.43,13.73,37.82,14.12Z"/><path class="cls-6" d="M19,3.89a6.39,6.39,0,0,0-7.77,1.78c-3.51,4-4.37,3.45-4.07,7.44s-1.38,7.77,6.22,13.46S27.2,33,32.19,28s4.59-7.09,4-10.42c-.54-2.85-.9-5.16-1.87-6.7S29.41,6.2,27,4.93s-1.26,1.29-2.64.73S21.76,5.4,19,3.89Z"/><path class="cls-7" d="M6.46,12.3c-.31-.77-.91,0-1.19.28,0,.05,0,.1.05.05s.46-.54.67-.37.19.47.23.65a10.13,10.13,0,0,1,.27,2.39,6.65,6.65,0,0,1-.44,2.16L6,17.7a3.69,3.69,0,0,1-.47.67c-.21.24-.31.11-.43-.16a6.46,6.46,0,0,1-.41-1.95c0-.07-.11,0-.11,0a4.71,4.71,0,0,0,.11,2.39.52.52,0,0,0,.82.23A1.42,1.42,0,0,0,6,18.37a5.58,5.58,0,0,0,1-2.93A7,7,0,0,0,6.46,12.3Z"/><path class="cls-7" d="M7,27.8a2,2,0,0,0-2.24-1s-.08.11,0,.1c.8-.1,1.44.66,1.86,1.25a4.64,4.64,0,0,1,.91,2.35,4.4,4.4,0,0,1-.85-.4c-.06,0-.15.08-.1.12a2.41,2.41,0,0,0,1,.5c.07,0,.14,0,.16-.11A3.4,3.4,0,0,0,7,27.8Z"/><path class="cls-7" d="M22.55,19.64a3.85,3.85,0,0,0-2.39-.13,2.58,2.58,0,0,0-1.05.42c-.58.37-1,.92-.73,1.63A2.48,2.48,0,0,0,20,22.73a3.18,3.18,0,0,0,2.15,0,2.36,2.36,0,0,0,1.52-1.67C23.77,20.33,23.16,19.86,22.55,19.64Zm-2.42.29a4.27,4.27,0,0,1,1.78,0c.52.06,1.25.11,1.47.67.3.78-.48,1.38-1.12,1.65a3,3,0,0,1-.68.08A3.69,3.69,0,0,1,20.32,22c-.64-.24-1.55-.84-1.2-1.46A2.62,2.62,0,0,1,20.13,19.93Z"/><path class="cls-7" d="M20.28,34.4A2.52,2.52,0,0,0,19,33.61a2.94,2.94,0,0,0-2.42.23,2.42,2.42,0,0,0-.9.7l-.09.1a.65.65,0,0,0-.14.58c.07.15.5.21.64.26a5.52,5.52,0,0,0,1.86,0c.66,0,1.32.25,2,0A.74.74,0,0,0,20.28,34.4Zm-1.2.92c-.44.07-.89.06-1.34.11a3.43,3.43,0,0,1-1.59-.12c-.18-.08-.22-.27-.39-.36.09,0,0,0,.07-.11a.84.84,0,0,1,.28-.25c.26-.2.55-.37.81-.58l.14,0a2.57,2.57,0,0,1,1.68.17,2.84,2.84,0,0,1,1,.54C20.19,35.09,19.43,35.27,19.08,35.32Z"/><path class="cls-7" d="M34.52,18.78c-.4.1-.67.66-.88,1-.57.85-1.43,2.07-1.22,3.16.13.64.59,1.24,1.27.88a2,2,0,0,0,.81-2c-.06-.16-.26.05-.27.14a2.26,2.26,0,0,1-.46,1.6c-.63.66-1-.44-1-.88a5.15,5.15,0,0,1,.84-2.11c.17-.29.35-.57.54-.86l.25-.38c.17-.26.44-.06.51.16,0,.07.1,0,.1-.06C35.09,19.05,34.91,18.68,34.52,18.78Z"/><path class="cls-7" d="M31.09,13.91c-.08-.09-.2.05-.22.12a1,1,0,0,0,0,.42c0,.25-.33.07-.45,0a6,6,0,0,1-1.26-.65,3.76,3.76,0,0,1-.75-.74,3.24,3.24,0,0,1-.17-.32c-.23-.5-.48-1-.66-1.51a3.29,3.29,0,0,1-.15-.65c.11-.09.55.31.62.37.33.28.6.62.9.92,0,0,.12,0,.1-.07A6,6,0,0,0,28,10.48c-.38-.34-.88-.26-.91.32a4.49,4.49,0,0,0,.62,2.06,2.89,2.89,0,0,0,.49.66h0a2.94,2.94,0,0,0,1.41,1.14,1.55,1.55,0,0,0,1.47.15A.66.66,0,0,0,31.09,13.91Z"/><path class="cls-7" d="M15,10.17a.33.33,0,0,0-.17-.24c-.42-.25-1,.06-1.41.25s-.79.47-.78.91.49.42.76.41a2.45,2.45,0,0,0,1.13-.28C14.89,11,15.25,10.52,15,10.17Z"/><path class="cls-7" d="M6.88,24.49a.85.85,0,0,0-.17-.39.1.1,0,0,0,0-.06.6.6,0,0,0-.21-.14.36.36,0,0,0-.4.23c-.07.2-.09.33,0,.48s0,.43.28.47S6.9,24.75,6.88,24.49Z"/><path class="cls-7" d="M9.88,31.28a.48.48,0,0,0-.54.25.13.13,0,0,0-.06.09,1.83,1.83,0,0,0,.34,1.15c.21.34.55.65,1,.44C11.46,32.78,10.58,31.39,9.88,31.28Z"/><path class="cls-7" d="M31.16,25.45a.94.94,0,0,0-.38.36,1.17,1.17,0,0,0-.29.38.32.32,0,0,0,.1.41.49.49,0,0,0,.52,0,1.27,1.27,0,0,0,.58-.95C31.69,25.32,31.34,25.35,31.16,25.45Z"/><path class="cls-7" d="M32.79,13.72c-.12-.13-.3,0-.36.16a.86.86,0,0,0,0,.89.65.65,0,0,0,.15.23c.08.07.19,0,.24-.07A1,1,0,0,0,32.79,13.72Z"/><path class="cls-7" d="M30.8,30.92a.14.14,0,0,0-.14,0,.2.2,0,0,0-.15.05h0a.56.56,0,0,0-.24.22.23.23,0,0,0,0,.21.12.12,0,0,0,.12.07.26.26,0,0,0,.28,0,.58.58,0,0,0,.23-.42A.18.18,0,0,0,30.8,30.92Z"/><path class="cls-7" d="M19.79,5.3c-.63-.11-2.84-.06-2.73.93.05.39.54.54,1,.6a2.34,2.34,0,0,0,2.28-.44C20.91,5.79,20.4,5.41,19.79,5.3Z"/><path class="cls-8" d="M14,9.1a2.31,2.31,0,0,1-.84.6,7.5,7.5,0,0,0-1,.69c-.56.47-.81,1.11-.19,1.64,0,.05.17,0,.13-.11-.73-1.22,1.51-1.91,2-2.8C14.1,9.06,14,9.06,14,9.1Z"/><path class="cls-8" d="M4.69,19.36c-.2-.75-.32-1.56-.59-2.29,0,0-.08,0-.07,0a6.77,6.77,0,0,0,.47,2.38C4.56,19.6,4.71,19.45,4.69,19.36Z"/><path class="cls-8" d="M7,27.62C6.47,27,5.57,25.8,4.64,26.44c0,0,0,.11,0,.08.92-.34,1.55.8,2.2,1.26C6.93,27.83,7.07,27.7,7,27.62Z"/><path class="cls-8" d="M20.49,18.93A2.88,2.88,0,0,0,18,20.43c0,.08.06.1.1,0a5,5,0,0,1,2.36-1.28C20.55,19.16,20.65,18.93,20.49,18.93Z"/><path class="cls-8" d="M26.77,9.91s-.07,0-.07,0a3.93,3.93,0,0,0-.1,1.67c0,.08.16,0,.15-.08A8.77,8.77,0,0,1,26.77,9.91Z"/><path class="cls-8" d="M34.17,18.61a6.89,6.89,0,0,1-.83,1,8.73,8.73,0,0,0-.66,1c-.07.11.06.14.12.06.27-.36.5-.73.77-1.09a4,4,0,0,0,.65-1S34.18,18.58,34.17,18.61Z"/><path class="cls-8" d="M17.08,33.11a4.6,4.6,0,0,0-2,1.39s0,.07,0,0a9.67,9.67,0,0,1,2-1.3C17.12,33.22,17.17,33.09,17.08,33.11Z"/><path class="cls-8" d="M30.59,30.22a3.26,3.26,0,0,0-1.19.38A1.13,1.13,0,0,0,29,31.8c.05.11.19,0,.22-.07.15-.32.15-.72.47-.93s.66-.29.95-.5C30.62,30.28,30.65,30.21,30.59,30.22Z"/><path class="cls-8" d="M10.25,31.16a1,1,0,0,0-.84-.11,1.11,1.11,0,0,0-.49.61c0,.07.06.06.08,0,.11-.19.22-.37.44-.42a1.86,1.86,0,0,1,.7.1C10.23,31.37,10.36,31.21,10.25,31.16Z"/><path class="cls-9" d="M11.2,7.37c-.79,1-2.07,1.63-2.66,2.83a4.54,4.54,0,0,0,0,3.51c.17.43.7-.11.76-.33.31-1.05.18-2.2.54-3.23s1.26-1.72,1.67-2.72C11.56,7.21,11.29,7.25,11.2,7.37Z"/><path class="cls-9" d="M6.75,20.91a2.7,2.7,0,0,0-.33-1.41c-.11-.16-.38.12-.36.24A4.17,4.17,0,0,1,6,20.8a1.47,1.47,0,0,0,0,.83.21.21,0,0,0,.18.12C6.71,21.75,6.78,21.28,6.75,20.91Z"/><path class="cls-9" d="M8.66,26.68c0-.16-.24,0-.26.08a1.2,1.2,0,0,0,.07.7,1.69,1.69,0,0,0,.36.72c.2.17.49-.13.48-.33C9.31,27.36,8.64,27.19,8.66,26.68Z"/><path class="cls-9" d="M17.89,31.75a2.62,2.62,0,0,0-2,.43,4.23,4.23,0,0,1-1,.44c-.32.09-1.15.12-1.2-.35,0-.18-.25,0-.28.09-.26.9,1,1.24,1.61,1,1-.3,1.76-1.13,2.78-1.35C17.85,32,18.06,31.81,17.89,31.75Z"/><path class="cls-9" d="M22.34,33.29A4.93,4.93,0,0,0,21.19,33a4.47,4.47,0,0,1-1.36-.55c-.12-.08-.34.12-.23.22.66.59,1.62,1.52,2.58,1.19C22.36,33.75,22.57,33.42,22.34,33.29Z"/><path class="cls-9" d="M26.74,32.84a5.36,5.36,0,0,1-.7.1c-.15,0-.35.34-.12.37l.36,0a1,1,0,0,0,.44-.13.27.27,0,0,0,.17-.2A.13.13,0,0,0,26.74,32.84Z"/><path class="cls-9" d="M32.42,28.48a1.43,1.43,0,0,0-.75.66c0,.05-.06.14,0,.17s.15,0,.19-.08a1.09,1.09,0,0,1,.52-.4.31.31,0,0,0,.17-.2C32.58,28.54,32.52,28.45,32.42,28.48Z"/></g></g></g></svg>