<svg xmlns="http://www.w3.org/2000/svg" viewBox="0 0 222.02 222.02"><defs><style>.cls-1{fill:none;}.cls-2{fill:#3e7c1d;}.cls-3{fill:#00c9ff;}</style></defs><title>Asset 1</title><g id="Layer_2" data-name="Layer 2"><g id="BACKGROUND_2" data-name="BACKGROUND 2"><path class="cls-1" d="M48.8,110.81h0Z"/><path class="cls-1" d="M25.9,85.24l-.22-.19Z"/><path class="cls-1" d="M24.35,84.32l-.11,0Z"/><path class="cls-1" d="M60.14,27.59l.15.14Z"/><path class="cls-1" d="M59.74,27.32l-.13-.06c.09,0,.17.1.26.15A1,1,0,0,0,59.74,27.32Z"/><path class="cls-1" d="M48.27,110.86a4.19,4.19,0,0,0-3.12,2l.19-.18A5.42,5.42,0,0,1,48.27,110.86Z"/><path class="cls-1" d="M58.45,27a4,4,0,0,1,.5.06A4,4,0,0,0,58.45,27Z"/><path class="cls-1" d="M49.21,110.83l.49.07A4.13,4.13,0,0,0,49.21,110.83Z"/><path class="cls-1" d="M59.1,27.09l.34.1Z"/><path class="cls-1" d="M61,31.43l0-.12-.09.23Z"/><path class="cls-1" d="M60.46,32.47v0Z"/><path class="cls-1" d="M53.22,47.69a7.33,7.33,0,0,0,1.14-1.61A9.18,9.18,0,0,0,53.22,47.69Z"/><path class="cls-1" d="M59,34.25l-.16.17Z"/><path class="cls-1" d="M61.13,30.82l0,.11Z"/><path class="cls-1" d="M59.84,33.34l-.12.15Z"/><path class="cls-1" d="M27,86.44l-.21-.24Z"/><path class="cls-1" d="M26.49,85.81l-.22-.22Z"/><path class="cls-1" d="M28,87.66q-.3-.36-.6-.75Q27.73,87.3,28,87.66Z"/><path class="cls-1" d="M15.34,103a3.19,3.19,0,0,1-1.18-1.49A2.31,2.31,0,0,0,15.34,103Z"/><path class="cls-1" d="M23.6,84.2a2.88,2.88,0,0,0-.41,0A2.82,2.82,0,0,1,23.6,84.2Z"/><path class="cls-1" d="M56.83,27.17l.37-.07Z"/><path class="cls-1" d="M57.39,27.07l.36-.05Z"/><path class="cls-1" d="M48.39,48.62a5.18,5.18,0,0,1,0-2A3,3,0,0,0,48.39,48.62Z"/><path class="cls-1" d="M56.17,27.33l.5-.12Z"/><path class="cls-1" d="M57.92,27a4.26,4.26,0,0,1,.5,0A4.26,4.26,0,0,0,57.92,27Z"/><path class="cls-1" d="M159.7,106l.68-.38a55.32,55.32,0,0,1-17.83,3.71C148.41,109.07,154.51,108.74,159.7,106Z"/><path class="cls-1" d="M19.64,86.7l-.86,1.63c.91-1.72,2.21-3.67,4-4.07a1,1,0,0,1-.17,0A4.66,4.66,0,0,0,19.64,86.7Z"/><path class="cls-1" d="M135.94,109l.35.1Z"/><path class="cls-1" d="M25,84.62a2.12,2.12,0,0,1,.2.12A2.12,2.12,0,0,0,25,84.62Z"/><path class="cls-2" d="M58.42,27h0Z"/><path class="cls-2" d="M60.91,31.54a5.32,5.32,0,0,1-.45.93A5.32,5.32,0,0,0,60.91,31.54Z"/><path class="cls-2" d="M59.44,27.19l.17.07Z"/><path class="cls-2" d="M59.87,27.41a2.11,2.11,0,0,1,.27.18A2.11,2.11,0,0,0,59.87,27.41Z"/><path class="cls-2" d="M57.75,27h0Z"/><path class="cls-2" d="M59,27.05l.15,0Z"/><path class="cls-2" d="M60.45,32.49a7.31,7.31,0,0,1-.61.85A7.31,7.31,0,0,0,60.45,32.49Z"/><path class="cls-2" d="M61.1,30.93c0,.13-.06.26-.1.38C61,31.19,61.07,31.06,61.1,30.93Z"/><path class="cls-2" d="M56.67,27.21l.16,0Z"/><path class="cls-2" d="M57.2,27.1l.19,0Z"/><path class="cls-2" d="M15.76,94.05c1-1.91,2-3.81,3-5.72h0Z"/><path class="cls-2" d="M24.35,84.32a2.83,2.83,0,0,1,.69.3A2.83,2.83,0,0,0,24.35,84.32Z"/><path class="cls-2" d="M59.72,33.49c-.22.26-.46.52-.7.76C59.26,34,59.5,33.75,59.72,33.49Z"/><path class="cls-2" d="M61.13,30.82c0-.12,0-.23.07-.35a3.18,3.18,0,0,0-.72-2.57l-.19-.17A3.5,3.5,0,0,1,61.13,30.82Z"/><path class="cls-2" d="M23.6,84.2a2.67,2.67,0,0,1,.64.1,3.27,3.27,0,0,0-.56-.11Z"/><path class="cls-2" d="M26.27,85.59c-.12-.12-.24-.24-.37-.35C26,85.35,26.15,85.47,26.27,85.59Z"/><path class="cls-2" d="M27.43,86.91,27,86.44Z"/><path class="cls-2" d="M26.83,86.2l-.34-.39Z"/><path class="cls-2" d="M58.86,34.42l-.73.71Z"/><path class="cls-2" d="M23.19,84.22l-.41,0Z"/><path class="cls-2" d="M48.83,110.81l.38,0Z"/><path class="cls-2" d="M25.68,85.05c-.14-.11-.29-.21-.44-.31C25.39,84.84,25.54,84.94,25.68,85.05Z"/><path class="cls-2" d="M48.27,110.86a4.75,4.75,0,0,1,.53,0A4.53,4.53,0,0,0,48.27,110.86Z"/><path class="cls-2" d="M37.37,93.46a6,6,0,0,0-2.74.47,1.43,1.43,0,0,0-.74.71,2.68,2.68,0,0,0-.1.85,2.39,2.39,0,0,1-1.64,2,3.39,3.39,0,0,0,.48,2.3c.71-.11.92,0,1.49-.43h.19a22.3,22.3,0,0,0,10.2-2A5,5,0,0,0,41.72,94,10.11,10.11,0,0,0,37.37,93.46Z"/><path class="cls-2" d="M134.34,108.4a8.89,8.89,0,0,0,1.6.55A8.89,8.89,0,0,1,134.34,108.4Z"/><path class="cls-2" d="M142.55,109.33h0a24.15,24.15,0,0,1-6.25-.28,24.2,24.2,0,0,0,6.26.28Z"/><path class="cls-2" d="M118.81,41.43a4.4,4.4,0,0,1,2.67.1c1.13.65,1.18,2.29,2.1,3.2,1.33,1.33,3.6.53,5.29-.33a2.77,2.77,0,0,0,1.29-1,2.68,2.68,0,0,0,.19-1.26,3.8,3.8,0,0,0-.61-2.47,4.21,4.21,0,0,0-2.23-1.07c-1.82-.49-7.44-4.5-8.82-4.15-.77.19-2.83,5.23-2.3,6.23C116.8,41.44,117.91,41.55,118.81,41.43Z"/><path class="cls-2" d="M89.14,21.43A3.84,3.84,0,0,0,89,19.75,5.91,5.91,0,0,0,85.8,16c-3.17-1.36-14.72,1.75-15.7,5.64-.36,1.43.85,2.54,1.2,3.82.49,1.79.25,3.66.54,5.48a19.75,19.75,0,0,0,4.52,9.25c1,1.15,2.22,2.34,3.74,2.2a21,21,0,0,1,6.6-17.71C87.73,23.78,88.94,22.8,89.14,21.43Z"/><path class="cls-2" d="M94.7,132.35a25.9,25.9,0,0,1-14.27-6.78c-1.09-1-2.08-2.14-3.24-3.09a29.07,29.07,0,0,0-3.84-2.55c-2.15-1.26-4.48-2.57-7-2.33-1.81.17-3.51,1.14-5.32,1.09-2.37-.07-4.27-1.85-5.84-3.59s-3.21-3.66-5.51-4.2l-.49-.07-.38,0h0a4.75,4.75,0,0,0-.53,0,5.42,5.42,0,0,0-2.93,1.87l-.19.18A12.31,12.31,0,0,1,41,115.65c-2.76,1.12-4.56,1.08-7.74.74-4.29-.46-9.37-2.44-10.3-6.6-.61-2.73-.19-6.39-2.78-7.49-2.38.6-3.85,1.16-4.84.74a2.31,2.31,0,0,1-1.18-1.49c-.9-2.46.37-5.16,1.6-7.5l3-5.72h0l.86-1.63a4.66,4.66,0,0,1,3-2.42,1,1,0,0,0,.17,0l.41,0a2.88,2.88,0,0,1,.41,0h.08a3.27,3.27,0,0,1,.56.11l.11,0a2.83,2.83,0,0,1,.69.3,2.12,2.12,0,0,1,.2.12c.15.1.3.2.44.31l.22.19c.13.11.25.23.37.35l.22.22.34.39.21.24.39.47q.3.39.6.75c1.22,1.46,3.47,2.71,4.95,1.48a4.18,4.18,0,0,0,1.1-1.87l3.72-10a10.14,10.14,0,0,1,2.13-3.89c2-2,5.23-2,7.82-3.2,6.64-3.06,7.88-13.06,14.72-15.64,1.62-.6,3.4-.71,5-1.45S70.34,50.6,69.77,49a9.55,9.55,0,0,0-1.57-2.15c-1.12-1.56-1.15-3.63-1.72-5.46s-2.3-3.7-4.17-3.14c-1.41.43-2.5.86-3,1.82a3.64,3.64,0,0,1-1.85,1.67c-1.62.73-2.21,2.65-3.14,4.34a7.33,7.33,0,0,1-1.14,1.61,1.37,1.37,0,0,1-.17.17,4.7,4.7,0,0,1-3.55,1.28c-.57,0-.93-.19-1.11-.52a3,3,0,0,1,0-2c.59-2.7,2.7-4.8,4.72-6.72l5-4.77.73-.71.16-.17c.24-.24.48-.5.7-.76l.12-.15a7.31,7.31,0,0,0,.61-.85v0a5.32,5.32,0,0,0,.45-.93l.09-.23c0-.12.07-.25.1-.38l0-.11a3.5,3.5,0,0,0-.84-3.09l-.15-.14a2.11,2.11,0,0,0-.27-.18c-.09-.05-.17-.11-.26-.15l-.17-.07-.34-.1-.15,0a4,4,0,0,0-.5-.06h0a4.26,4.26,0,0,0-.5,0h-.17l-.36.05-.19,0-.37.07-.16,0-.5.12a223.3,223.3,0,0,0-26.83,8.5,111.48,111.48,0,0,0-29,66.53c4.28.63,8.44,1.8,11.48,4.7s4.63,7.4,8.17,9.84c2.87,2,6.57,2.29,9.89,3.42s6.7,3.79,6.43,7.27c-.2,2.58-2.33,4.58-3.37,6.95-2.14,4.85.57,10.54,4.51,14.05s8.95,5.58,13.27,8.62,8.15,7.68,7.77,12.93c-.24,3.33-2.15,6.58-1.43,9.83.64,2.93,3.24,5,4.8,7.56,1.93,3.22,2.18,7.2,3.84,10.57s10,12.79,13.23,10.7,3.41-9.86,5-13.76c.48-1.16-2-4.81-1-5.63,6.1-5.25,2.93-15.45,6.78-22.47,2.63-4.79,8.63-8.57,7.73-13.92-.43-2.58-2.53-4.91-2-7.49.75-3.94,7.1-6.1,6-9.92C100.61,133.11,97.31,132.7,94.7,132.35Z"/><path class="cls-2" d="M144.79,5.29a25.62,25.62,0,0,0-6,5.19c-2,2.14-8.06-1.51-10.54.06-2.32,1.47-.78,8.13-3.3,9.22s-5,3.08-5.27,5.78,1.72,5.05,4.14,6.13,5.18,1.11,7.85,1c1.45,0,3.09,0,4.08,1a5,5,0,0,1,.95,1.84l1.66,4.75a3.39,3.39,0,0,1,.29,1.79,3.12,3.12,0,0,1-1.41,1.8c-1.57,1.13-3.44,1.87-4.81,3.24s-2.06,3.74-.78,5.17a5.09,5.09,0,0,0,2.12,1.21,54.38,54.38,0,0,0,17.41,3.3c-.64-2.16,1.34-1.35.7-3.52.64-1.53.3-4.35,1.78-3.6s3.06,1.87,4.66,1.37c1.21-.37,2.29-1.62,3.48-1.2.9.32,1.22,1.47,2.05,2,1.43.82,3-.74,4.62-1.24,2.75-.86,5.3,1.57,7.11,3.77a3.83,3.83,0,0,1,1.19,2.54c-.15,2-3,2.47-4.87,1.72s-3.63-2.15-5.62-1.85c-2.18.33-3.68,2.61-5.86,2.88a9.52,9.52,0,0,1-3.24-.52c-5.49-1.3-11.09,1.38-16.13,4-1.66.86-3.43,1.82-4.32,3.45a12.63,12.63,0,0,0-1,3.37c-.94,4.2-3.39,7.9-5.09,11.87s-2.57,8.71-.38,12.39c.77,1.28,1.92,2.5,1.85,4,0,1.29-1,2.36-1.41,3.59-.85,2.63,1.09,5.48,3.61,6.64a8.89,8.89,0,0,0,1.6.55l.35.1a24.15,24.15,0,0,0,6.25.28h0a55.32,55.32,0,0,0,17.83-3.71l.52-.19c1.63-.66,2.09-.24,3.09.38a7.89,7.89,0,0,1,3.39,4.62c1.05,3.83,4.6,5.44,7.2,10,1.58,2.8,4,5.12,5.41,8s1.74,6.75-.62,9c-.56.54-1.25.95-1.78,1.51-2.69,2.83-.48,7.27.6,11,2.38,8.11-1.38,17.84,3.42,24.81,2.59,2.08,6.65.24,8.71-2.4s3.16-6,5.6-8.29c3.46-3.27,8.78-3.67,12.76-6.29a13.12,13.12,0,0,0,5.43-7.62,30.61,30.61,0,0,1,1.17-4.85,23.12,23.12,0,0,1,2.33-3.4A111,111,0,0,0,144.79,5.29Z"/><path class="cls-2" d="M165.31,186.22c-8.94,3.16-25.3,7.91-34.64,9.52-8.25,1.42-17.75,9-24.4,14.13-3.17,2.43-5,6.13-6.76,9.7l-.86,1.75a111.29,111.29,0,0,0,82.81-24.52C174.34,193.21,172.47,183.69,165.31,186.22Z"/><path class="cls-3" d="M215.28,145.3a30.61,30.61,0,0,0-1.17,4.85,13.12,13.12,0,0,1-5.43,7.62c-4,2.62-9.3,3-12.76,6.29-2.44,2.3-3.54,5.65-5.6,8.29s-6.12,4.48-8.71,2.4c-4.8-7-1-16.7-3.42-24.81-1.08-3.7-3.29-8.14-.6-11,.53-.56,1.22-1,1.78-1.51,2.36-2.25,2.07-6.14.62-9s-3.83-5.19-5.41-8c-2.6-4.6-6.15-6.21-7.2-10a7.89,7.89,0,0,0-3.39-4.62c-1-.62-1.46-1-3.09-.38l-.52.19-.68.38c-5.19,2.74-11.29,3.07-17.15,3.33h0a24.2,24.2,0,0,1-6.26-.28l-.35-.1a8.89,8.89,0,0,1-1.6-.55c-2.52-1.16-4.46-4-3.61-6.64.4-1.23,1.36-2.3,1.41-3.59.07-1.5-1.08-2.72-1.85-4-2.19-3.68-1.32-8.43.38-12.39s4.15-7.67,5.09-11.87a12.63,12.63,0,0,1,1-3.37c.89-1.63,2.66-2.59,4.32-3.45,5-2.6,10.64-5.28,16.13-4a9.52,9.52,0,0,0,3.24.52c2.18-.27,3.68-2.55,5.86-2.88,2-.3,3.76,1.1,5.62,1.85s4.72.27,4.87-1.72a3.83,3.83,0,0,0-1.19-2.54c-1.81-2.2-4.36-4.63-7.11-3.77-1.58.5-3.19,2.06-4.62,1.24-.83-.48-1.15-1.63-2.05-2-1.19-.42-2.27.83-3.48,1.2-1.6.5-3.17-.62-4.66-1.37s-1.14,2.07-1.78,3.6c.64,2.17-1.34,1.36-.7,3.52a54.38,54.38,0,0,1-17.41-3.3,5.09,5.09,0,0,1-2.12-1.21c-1.28-1.43-.59-3.8.78-5.17s3.24-2.11,4.81-3.24a3.12,3.12,0,0,0,1.41-1.8,3.39,3.39,0,0,0-.29-1.79l-1.66-4.75a5,5,0,0,0-.95-1.84c-1-1-2.63-1.05-4.08-1-2.67.08-5.43.06-7.85-1s-4.41-3.5-4.14-6.13,2.75-4.69,5.27-5.78,1-7.75,3.3-9.22c2.48-1.57,8.52,2.08,10.54-.06a25.62,25.62,0,0,1,6-5.19A111.06,111.06,0,0,0,29.34,35.83a223.3,223.3,0,0,1,26.83-8.5l.5-.12.16,0,.37-.07.19,0,.36-.05h.17a4.26,4.26,0,0,1,.5,0h0a4,4,0,0,1,.5.06l.15,0,.34.1.17.07.13.06a1,1,0,0,1,.13.09,2.11,2.11,0,0,1,.27.18l.15.14.19.17a3.18,3.18,0,0,1,.72,2.57c0,.12-.05.23-.07.35l0,.11c0,.13-.06.26-.1.38l0,.12-.06.11a5.32,5.32,0,0,1-.45.93v0a7.31,7.31,0,0,1-.61.85l-.12.15c-.22.26-.46.52-.7.76l-.16.17-.73.71-5,4.77c-2,1.92-4.13,4-4.72,6.72a5.18,5.18,0,0,0,0,2c.18.33.54.47,1.11.52a4.7,4.7,0,0,0,3.55-1.28,1.37,1.37,0,0,0,.17-.17,9.18,9.18,0,0,1,1.14-1.61c.93-1.69,1.52-3.61,3.14-4.34a3.64,3.64,0,0,0,1.85-1.67c.46-1,1.55-1.39,3-1.82,1.87-.56,3.59,1.3,4.17,3.14s.6,3.9,1.72,5.46A9.55,9.55,0,0,1,69.77,49c.57,1.6-.78,3.33-2.34,4.06s-3.34.85-5,1.45c-6.84,2.58-8.08,12.58-14.72,15.64-2.59,1.19-5.8,1.21-7.82,3.2a10.14,10.14,0,0,0-2.13,3.89l-3.72,10A4.18,4.18,0,0,1,33,89.14c-1.48,1.23-3.73,0-4.95-1.48q-.3-.36-.6-.75L27,86.44l-.21-.24-.34-.39-.22-.22c-.12-.12-.24-.24-.37-.35l-.22-.19c-.14-.11-.29-.21-.44-.31a2.12,2.12,0,0,0-.2-.12,2.83,2.83,0,0,0-.69-.3l-.11,0a2.67,2.67,0,0,0-.64-.1,2.82,2.82,0,0,0-.41,0l-.41,0c-1.79.4-3.09,2.35-4,4.07-1,1.91-2,3.81-3,5.72-1.23,2.34-2.5,5-1.6,7.5A3.19,3.19,0,0,0,15.34,103c1,.42,2.46-.14,4.84-.74,2.59,1.1,2.17,4.76,2.78,7.49.93,4.16,6,6.14,10.3,6.6,3.18.34,5,.38,7.74-.74a12.31,12.31,0,0,0,4.15-2.74,4.19,4.19,0,0,1,3.12-2,4.53,4.53,0,0,1,.53,0h0l.38,0a4.13,4.13,0,0,1,.49.07c2.3.54,3.94,2.46,5.51,4.2s3.47,3.52,5.84,3.59c1.81,0,3.51-.92,5.32-1.09,2.5-.24,4.83,1.07,7,2.33a29.07,29.07,0,0,1,3.84,2.55c1.16,1,2.15,2.07,3.24,3.09a25.9,25.9,0,0,0,14.27,6.78c2.61.35,5.91.76,6.65,3.26,1.14,3.82-5.21,6-6,9.92-.49,2.58,1.61,4.91,2,7.49.9,5.35-5.1,9.13-7.73,13.92-3.85,7-.68,17.22-6.78,22.47-1,.82,1.53,4.47,1,5.63-1.63,3.9-1.73,11.6-5,13.76s-11.58-7.32-13.23-10.7-1.91-7.35-3.84-10.57C60.3,185,57.7,182.9,57.06,180c-.72-3.25,1.19-6.5,1.43-9.83.38-5.25-3.45-9.89-7.77-12.93s-9.34-5.11-13.27-8.62-6.65-9.2-4.51-14.05c1-2.37,3.17-4.37,3.37-6.95.27-3.48-3.1-6.15-6.43-7.27s-7-1.44-9.89-3.42c-3.54-2.44-5.07-6.87-8.17-9.84S4.62,103,.34,102.36a111.07,111.07,0,0,0,98.31,119l.86-1.75c1.74-3.57,3.59-7.27,6.76-9.7,6.65-5.08,16.15-12.71,24.4-14.13,9.34-1.61,25.7-6.36,34.64-9.52,7.16-2.53,9,7,16.15,10.58a111.3,111.3,0,0,0,36.15-54.9A23.12,23.12,0,0,0,215.28,145.3ZM118.69,34.41c1.38-.35,7,3.66,8.82,4.15a4.21,4.21,0,0,1,2.23,1.07,3.8,3.8,0,0,1,.61,2.47,2.68,2.68,0,0,1-.19,1.26,2.77,2.77,0,0,1-1.29,1c-1.69.86-4,1.66-5.29.33-.92-.91-1-2.55-2.1-3.2a4.4,4.4,0,0,0-2.67-.1c-.9.12-2,0-2.42-.79C115.86,39.64,117.92,34.6,118.69,34.41ZM44.51,97.35a22.3,22.3,0,0,1-10.2,2h-.19c-.57.43-.78.32-1.49.43a3.39,3.39,0,0,1-.48-2.3,2.39,2.39,0,0,0,1.64-2,2.68,2.68,0,0,1,.1-.85,1.43,1.43,0,0,1,.74-.71,6,6,0,0,1,2.74-.47,10.11,10.11,0,0,1,4.35.55A5,5,0,0,1,44.51,97.35ZM80.1,42.43c-1.52.14-2.78-1-3.74-2.2A19.75,19.75,0,0,1,71.84,31c-.29-1.82,0-3.69-.54-5.48-.35-1.28-1.56-2.39-1.2-3.82,1-3.89,12.53-7,15.7-5.64A5.91,5.91,0,0,1,89,19.75a3.84,3.84,0,0,1,.18,1.68c-.2,1.37-1.41,2.35-2.44,3.29A21,21,0,0,0,80.1,42.43Z"/></g></g></svg>