<svg xmlns="http://www.w3.org/2000/svg" xmlns:xlink="http://www.w3.org/1999/xlink" viewBox="0 0 501.83 250.05"><defs><style>.cls-1{fill:none;}.cls-2{isolation:isolate;}.cls-3{fill:url(#linear-gradient);}.cls-4{clip-path:url(#clip-path);}.cls-5,.cls-7{opacity:0.6;mix-blend-mode:color-dodge;}.cls-6,.cls-7{fill:#af6a3a;}.cls-8{fill:#811734;}.cls-9{fill:url(#linear-gradient-2);}.cls-10{clip-path:url(#clip-path-2);}.cls-11{fill:url(#linear-gradient-3);}.cls-12{fill:#442503;}</style><linearGradient id="linear-gradient" x1="103.67" y1="60.05" x2="103.67" y2="238.05" gradientUnits="userSpaceOnUse"><stop offset="0" stop-color="#a35256"/><stop offset="1" stop-color="#811734"/></linearGradient><clipPath id="clip-path"><path class="cls-1" d="M.83,70.71s46-27.66,54-5c0,0,7-2.66,21,.34S90.17,76.71,90.17,76.71s6.66-6,20.33,3.34,29,6,32,12.33,6.67,36,8.33,39.67c0,0,10.34-3.34,23.34,19.33,5.33,5,12.66,3,17.33,8.67s11.67,17,15.33,19.33c0,0-33,0-48,11,0,0-44.66-12.67-93,7S.5,205.05.5,205.05Z"/></clipPath><linearGradient id="linear-gradient-2" x1="394.77" y1="49.38" x2="398.77" y2="215.38" xlink:href="#linear-gradient"/><clipPath id="clip-path-2"><path class="cls-1" d="M501.83.38s-43,1.33-46,19c0,0-18-3.67-20.33,9.33,0,0-10,4.34-10.33,8s-.34,15.34-.34,15.34-14.66,1-18,5-5,10.33-5,10.33a64.47,64.47,0,0,1-12.33,1.67c-7.33.33-14,1.66-18.67,19.66,0,0-10-1.33-13,2.34s-15.33,19.33-23.33,26-7.67,15-10.67,19.66-14.33,6.34-20,9.67-14.33,26.67-14.33,26.67,41.33,3,62.33,6.33,33.67-12.33,73.34-5.67,51.33-7.33,76.33,4.67Z"/></clipPath><linearGradient id="linear-gradient-3" x1="249.66" y1="169.4" x2="251.66" y2="251.4" gradientUnits="userSpaceOnUse"><stop offset="0" stop-color="#ab443e"/><stop offset="1" stop-color="#811734"/></linearGradient></defs><title>Asset 3</title><g class="cls-2"><g id="Layer_2" data-name="Layer 2"><g id="BACKGROUND"><path class="cls-3" d="M.83,70.71s46-27.66,54-5c0,0,7-2.66,21,.34S90.17,76.71,90.17,76.71s6.66-6,20.33,3.34,29,6,32,12.33,6.67,36,8.33,39.67c0,0,10.34-3.34,23.34,19.33,5.33,5,12.66,3,17.33,8.67s11.67,17,15.33,19.33c0,0-33,0-48,11,0,0-44.66-12.67-93,7S.5,205.05.5,205.05Z"/><g class="cls-4"><g class="cls-5"><path class="cls-6" d="M3.19,68A13,13,0,0,1,8,68.48a16.19,16.19,0,0,1,3.36,1.79q3.23,2.07,6.41,4.24a12.62,12.62,0,0,1,4,3.71L17.8,65.62a6,6,0,0,0-1.19-2.43,4.69,4.69,0,0,0-4.13-1c-3.55.57-6.51,2.94-9.22,5.3"/></g><g class="cls-5"><path class="cls-6" d="M18.62,61.69c4.37,1.71,9,3.61,11.74,7.41.84,1.16,1.63,2.57,3,2.9A43.31,43.31,0,0,0,31,58.9a1.88,1.88,0,0,0-.82-1.18,1.79,1.79,0,0,0-1-.07c-3.27.36-6.71.78-9.37,2.72-.64.47-1.22,1-1.87,1.48"/></g><g class="cls-5"><path class="cls-6" d="M30.86,58.16c2.15,4.1,7.43,5.82,9.5,10,1.4,2.8,1.26,6.55,3.76,8.44.77-5.09-2.34-9.91-3.09-15a18,18,0,0,0-.56-3.1,3.4,3.4,0,0,0-2.06-2.23,4.74,4.74,0,0,0-2,0q-3.28.5-6.51,1.27"/></g><g class="cls-5"><path class="cls-6" d="M38.55,58.21A8.27,8.27,0,0,1,43.39,62a43.19,43.19,0,0,0,3.47,5.17,24.66,24.66,0,0,1,1.92,2,16,16,0,0,1,1.81,4.32,19.22,19.22,0,0,0,4.47,7.1c.9-1.11.87-2.66.79-4.07-.17-3.42-.35-6.83-.52-10.25a10,10,0,0,0-.51-3.14A8.78,8.78,0,0,0,51.7,59.6a18.69,18.69,0,0,0-7.24-3.5,10.5,10.5,0,0,0-7.84,1.26"/></g><path class="cls-7" d="M55.33,66.29s-.45,4.38,2.05,6.76S65.25,86.3,65.25,86.3s5.63-18.13,8.88-13.88,6.62,16.63,11.5,23.88a91.85,91.85,0,0,0,9.25,11.75s-6-19.88-4.63-31.63c0,0,0-10-16.87-11.87s-18.5.37-18.5.37Z"/><path class="cls-7" d="M93.75,99.8s-2.12-9,4.63-9.63,20.5,9.25,20.5,9.25,1.37-9.12,11.25-7.25,19.37,34.25,19.37,34.25-.12-37.5-11.62-38-26-8.87-26-8.87S95.5,69.17,90.25,76.42C90.25,76.42,89.88,93.05,93.75,99.8Z"/><path class="cls-7" d="M150.75,132.55s15.75,8.5,19.5,20,11.5,21.25,13.75,22-9.25-15.25-10-22.75C174,151.8,162.5,126.8,150.75,132.55Z"/><path class="cls-7" d="M119.5,118.3a40.85,40.85,0,0,0,10,24.5S120.75,127.3,119.5,118.3Z"/><path class="cls-7" d="M96.5,117.55s8.75,14.75,9.25,26.5Z"/><path class="cls-8" d="M.5,205.05l1-19.34s3.33,14,8.33,13.67c0,0,18-.83,14.67-48.58a195.33,195.33,0,0,1,6.33,39.91s2.34,8.34,19,1.67,8-26.67,8-26.67,5.34,15,16.67,18-6.67-43.33-6.67-43.33S85.5,172.05,87.5,183.05c0,0,6.67-21.67,1.67-35.34,0,0,6.33,24,6.33,33,0,0,8.33-6.66,4.67-22.33,0,0,9.33,18.33,17,20.33s-1.34-26.33-1.34-26.33,18.34,27,23.34,28.67-5-25.67-5-25.67,18.33,23.33,19.66,13a78.58,78.58,0,0,0-.33-20.33s23,33.33,35.67,26.66c0,0,6-3.33,2.33-14.66l15.33,19.33-45.66,13.67s-44.67-12.34-98.34,5.33S.5,205.05.5,205.05Z"/></g><path class="cls-8" d="M54.83,65.71c1.49,9.68,2.8,19.36,4.17,29,.71,4.83,1.38,9.66,2.15,14.47s1.5,9.62,2.53,14.35a70.52,70.52,0,0,0,1.71,6.95A15.26,15.26,0,0,0,66,132.2l.62,1.68L68,137.21c1.89,4.45,4.08,8.8,6.2,13.19s4.31,8.78,6.35,13.24c.5,1.12,1,2.24,1.47,3.37s1,2.27,1.37,3.42a28.06,28.06,0,0,1,1.89,7.12c-.16-.6-.31-1.19-.48-1.77l-.65-1.7c-.49-1.12-1-2.24-1.52-3.32-1.06-2.19-2.22-4.33-3.4-6.46l-7.11-12.82c-2.37-4.28-4.62-8.64-6.72-13.12a66,66,0,0,1-2.76-6.94,71.52,71.52,0,0,1-1.87-7.25c-1.92-9.69-3.1-19.41-4.05-29.15S55.08,75.5,54.83,65.71Z"/><path class="cls-8" d="M90.17,76.71c.21,3.18.42,6.33.75,9.47a77.76,77.76,0,0,0,1.37,9.25,24.2,24.2,0,0,0,1.37,4.3c.6,1.41,1.28,2.83,2,4.25,1.35,2.84,2.69,5.73,4,8.63s2.47,5.88,3.59,8.87,2.1,6,2.89,9.14a70.27,70.27,0,0,1,2.64,18.93,128.54,128.54,0,0,0-4.88-18.24c-2.05-5.93-4.43-11.74-7-17.49-1.25-2.9-2.56-5.76-3.84-8.67-.63-1.46-1.25-2.93-1.83-4.46A22,22,0,0,1,90,95.87a57.87,57.87,0,0,1-.55-9.63A82.09,82.09,0,0,1,90.17,76.71Z"/><path class="cls-8" d="M115.75,83.3a31.2,31.2,0,0,1,2.4,5.37,49.81,49.81,0,0,1,1.56,5.55,49.27,49.27,0,0,1,.94,5.69,30.39,30.39,0,0,1,.1,5.89,29.43,29.43,0,0,1-2.4-5.37,52.49,52.49,0,0,1-2.5-11.26A30.2,30.2,0,0,1,115.75,83.3Z"/><path class="cls-8" d="M75.83,66.05a61.68,61.68,0,0,1,2.29,7.79c.6,2.62,1.1,5.25,1.52,7.89s.74,5.3,1,8,.4,5.35.37,8.1a43.62,43.62,0,0,1-2.69-7.69,77.62,77.62,0,0,1-1.63-7.91q-.63-4-.89-8A53.85,53.85,0,0,1,75.83,66.05Z"/><path class="cls-8" d="M62.25,64.8c.66,3.91,1.3,7.75,2,11.57.39,1.91.7,3.82,1.14,5.7.2,1,.39,1.9.61,2.84s.41,1.89.68,2.82c.88,3.76,2,7.45,3.15,11.13s2.67,7.25,4.16,10.94a43.58,43.58,0,0,1-6.34-10.08,61.75,61.75,0,0,1-3.89-11.29c-.25-1-.42-1.94-.62-2.91s-.41-2-.53-2.94c-.29-2-.55-3.93-.68-5.91A54.8,54.8,0,0,1,62.25,64.8Z"/><path class="cls-8" d="M16.5,62.55a55.27,55.27,0,0,1,5.8,12.79,85.61,85.61,0,0,1,3.22,13.71,87.93,87.93,0,0,1,.92,14c0,2.34-.21,4.69-.38,7s-.63,4.64-1.06,6.94c-.23-2.35-.24-4.66-.41-7s-.25-4.62-.49-6.91c-.11-1.15-.2-2.29-.28-3.44l-.39-3.42c-.11-1.14-.24-2.28-.4-3.42s-.28-2.27-.48-3.4L22,86.09c-.18-1.14-.44-2.25-.62-3.39-.39-2.26-.88-4.5-1.37-6.74C19,71.47,17.91,67,16.5,62.55Z"/><path class="cls-8" d="M30.25,57.8a24.16,24.16,0,0,1,2.88,6.05,41.29,41.29,0,0,1,1.58,6.45,42.82,42.82,0,0,1,.59,6.59,31.31,31.31,0,0,1-.55,6.66A49.23,49.23,0,0,1,33,77.16c-.47-2.12-.86-4.25-1.21-6.38s-.65-4.26-.91-6.41S30.37,60.06,30.25,57.8Z"/><path class="cls-8" d="M40.25,56.55a84.44,84.44,0,0,1,4.65,13,126,126,0,0,1,3,13.48,112.85,112.85,0,0,1,1.41,13.73,80.56,80.56,0,0,1-.52,13.8C48.06,106,47.6,101.46,46.93,97s-1.3-9-2-13.47c-.31-2.24-.74-4.47-1.11-6.71l-1.16-6.72C41.83,65.58,41,61.09,40.25,56.55Z"/><path class="cls-8" d="M18.5,115.8a79.54,79.54,0,0,0,2.64,21.79,71.61,71.61,0,0,0,3.62,10.25l1.11,2.49L27,153c.41.86.66,1.78,1,2.67s.65,1.79.88,2.71a83.4,83.4,0,0,1,2.77,22.31c0,1.87,0,3.72,0,5.57s-.05,3.69,0,5.51l.06,1.36.17,1.31c.08.43.21.81.33,1.23s.37.86.53,1.29a19.57,19.57,0,0,1,1.5,5.39,11.34,11.34,0,0,0-1-2.58c-.39-.83-.82-1.65-1.27-2.45l-.68-1.2c-.19-.45-.41-.93-.56-1.4l-.34-1.41-.23-1.41c-.47-3.74-.61-7.44-.87-11.11s-.55-7.33-1.11-10.94A70.5,70.5,0,0,0,26,159.16c-.21-.88-.51-1.73-.8-2.58s-.53-1.73-.91-2.54L22.15,149a62.54,62.54,0,0,1-3.28-10.83A58.45,58.45,0,0,1,18.5,115.8Z"/><path class="cls-8" d="M10,205.05a41.91,41.91,0,0,1-1.49-6.7Q8,195,7.88,191.62t0-6.77a41.91,41.91,0,0,1,.87-6.8,40.74,40.74,0,0,1,1.49,6.69q.48,3.36.63,6.74a66.28,66.28,0,0,1,0,6.76A40.92,40.92,0,0,1,10,205.05Z"/><path class="cls-8" d="M56.5,162.05a78.18,78.18,0,0,1,4,7.34c1.2,2.49,2.33,5,3.42,7.51l3.22,7.54c.54,1.24,1.06,2.5,1.66,3.71a10.89,10.89,0,0,0,2.21,3.4,4.93,4.93,0,0,1-1.89-1.06A14.74,14.74,0,0,1,67.57,189,29.69,29.69,0,0,1,65,185.54a54.36,54.36,0,0,1-3.88-7.45,71.38,71.38,0,0,1-2.86-7.84A49.32,49.32,0,0,1,56.5,162.05Z"/><path class="cls-8" d="M59.75,135.3a7,7,0,0,1,3.63.55,11.21,11.21,0,0,1,3,1.93,11,11,0,0,1,2.23,2.8,8.28,8.28,0,0,1,1.1,3.47,19.65,19.65,0,0,1-2.91-2c-.84-.69-1.66-1.36-2.43-2.08s-1.54-1.42-2.31-2.18S60.58,136.26,59.75,135.3Z"/><path class="cls-8" d="M80.75,134.55a41,41,0,0,1,7.11,8.79,52.37,52.37,0,0,1,4.91,10.27c.29.9.65,1.79.88,2.71l.73,2.77c.21.93.36,1.87.53,2.81l.24,1.4.12,1.43c.07,1,.18,1.89.22,2.84l0,2.85c0,.48,0,1-.06,1.42s-.11.94-.18,1.41c-.13.94-.27,1.87-.45,2.8-.16-.94-.27-1.87-.38-2.8-.07-.46-.11-.92-.15-1.38s-.17-.91-.25-1.37l-.43-2.72L93,165.1l-.29-1.34-.35-1.32c-.25-.88-.43-1.77-.7-2.64-.54-1.74-1-3.49-1.68-5.2-1.2-3.43-2.59-6.81-4.13-10.15S82.57,137.85,80.75,134.55Z"/><path class="cls-8" d="M96.5,148.8a63.76,63.76,0,0,1,4.34,6.66c1.31,2.27,2.54,4.58,3.71,6.91s2.29,4.69,3.37,7.06,2.09,4.74,3.33,7.12a24.06,24.06,0,0,1-5.39-6,62.91,62.91,0,0,1-4-6.87,73,73,0,0,1-3.16-7.26A48.12,48.12,0,0,1,96.5,148.8Z"/><path class="cls-8" d="M108.5,120.8c1.55,5.5,3,11,4.64,16.39.83,2.71,1.6,5.42,2.51,8.09s1.77,5.35,2.77,8c.48,1.32,1,2.61,1.52,3.92s1.11,2.56,1.7,3.81,1.18,2.49,1.86,3.78l1,1.92.91,1.94a81.24,81.24,0,0,1,3.24,8c.45,1.37.86,2.75,1.19,4.16a14.12,14.12,0,0,1,.44,4.29,9.11,9.11,0,0,0-.5-2.06c-.22-.67-.47-1.33-.74-2-.55-1.3-1.11-2.59-1.75-3.85-1.23-2.53-2.6-5-4-7.47s-2.82-4.85-4.21-7.45c-.68-1.29-1.23-2.62-1.85-3.93s-1.12-2.66-1.63-4a120.12,120.12,0,0,1-4.73-16.53A113.07,113.07,0,0,1,108.5,120.8Z"/><path class="cls-8" d="M117.5,116.55A72.69,72.69,0,0,0,122,133.3a57.12,57.12,0,0,0,3.85,7.61,81.33,81.33,0,0,0,5,7,83.33,83.33,0,0,1,4.78,7.54,71.39,71.39,0,0,1,3.77,8.08,52.61,52.61,0,0,1,3.85,17.26,86.89,86.89,0,0,0-6-16.33,95.47,95.47,0,0,0-8.82-14.79c-.86-1.17-1.7-2.26-2.6-3.53-.43-.62-.9-1.21-1.29-1.86l-1.18-1.94a46.76,46.76,0,0,1-3.6-8.25,51.46,51.46,0,0,1-2-8.71A41.54,41.54,0,0,1,117.5,116.55Z"/><path class="cls-8" d="M150.83,132.05c.93,2.74,1.67,5.46,2.42,8.18l2.13,8.12,2.19,8.07,2.43,8.13a31.54,31.54,0,0,1-4.64-7.31,53.05,53.05,0,0,1-2.88-8.13,59.21,59.21,0,0,1-1.54-8.45A41.28,41.28,0,0,1,150.83,132.05Z"/><path class="cls-9" d="M501.83.38s-43,1.33-46,19c0,0-18-3.67-20.33,9.33,0,0-10,4.34-10.33,8s-.34,15.34-.34,15.34-14.66,1-18,5-5,10.33-5,10.33a64.47,64.47,0,0,1-12.33,1.67c-7.33.33-14,1.66-18.67,19.66,0,0-10-1.33-13,2.34s-15.33,19.33-23.33,26-7.67,15-10.67,19.66-14.33,6.34-20,9.67-14.33,26.67-14.33,26.67,41.33,3,62.33,6.33,33.67-12.33,73.34-5.67,51.33-7.33,76.33,4.67Z"/><g class="cls-10"><path class="cls-8" d="M292.83,165.71s2.67,5.67,8,2c0,0,8.34,6.34,11-13,0,0,5,15,9,4.34,0,0,5.34,11.33,9.34,5,0,0,5,2.33,7.33-13.67,0,0,0,23.67,9.33,19.33,0,0,14.67.34,18.67-14.66,0,0-2.33,19,7.67,13.33,0,0,13.66-18.67,17-33.67,0,0,.33,25.67,6.33,17.34,0,0,11.33,7.66,12.67-6.34,0,0,10.33,27.67,14,20,0,0,8-1.33,8-14,0,0,8.66-2.33,9.33-12.66,0,0,9.33,21.66,13.67,10.66,0,0,11.33-.66,15.33-11.66,0,0,2.33,28.33,17,20,0,0,11.67,5.33,14.67-13l.33,33.33s-32-9-51-1.33-34-7.67-95.67,6c0,0-12.33-9.67-65.66-7C289.17,176.05,289.17,170.05,292.83,165.71Z"/><path class="cls-7" d="M501.5,10.05s-17.33-1.34-19.67,13c0,0-10.66,1.66-11,9.66,0,0-12.66-4-15,8,0,0-6.33-17-19.66-6.66,0,0-3,1.66-5.34,15.33s-4.33,22.67-4.33,22.67-2-17.34-19-12v20s-8.67,15-7,17.33c0,0-1.67-16.33-6-20.67,0,0-11.33-3.33-14,10.34,0,0-4,11.33-10.33,18.66,0,0-2.34-9.33-10-9,0,0-1,11.34-19.67,28.34,0,0-5.67-2.67-10.67,11.33s-7,11.67-7,11.67-4.33-5.34-10.33-.34c0,0-11.33,2-14.33,6.67,0,0,0-10.33,22-17.33,0,0,1.66-5,3.66-12s25-26.34,30-33,13.67-6.34,13.67-6.34,9-21,28-20.66c0,0,14.67-15.67,25-15.67l2.33-16.33,10-5.34s7-14,20.34-11c0,0,7.33-19.66,48.66-16.33Z"/></g><path class="cls-8" d="M455.83,19.38c.11,6.48,0,12.94,0,19.38,0,3.22-.05,6.43,0,9.63a69.92,69.92,0,0,0,.58,9.45c.43,3.14,1,6.3,1.58,9.48s1.09,6.38,1.46,9.61a88.12,88.12,0,0,1,.75,9.75,34.74,34.74,0,0,1-1,9.7,47.3,47.3,0,0,0-.43-9.6c-.4-3.17-1-6.33-1.59-9.48-1.23-6.3-2.69-12.55-3.7-19a67.1,67.1,0,0,1-.44-9.87c.09-3.26.2-6.5.48-9.73A192.46,192.46,0,0,1,455.83,19.38Z"/><path class="cls-8" d="M435.5,28.71c.95,5,1.64,10.11,2.25,15.17S438.88,54,439.46,59c.13,1.26.27,2.51.44,3.75s.33,2.61.39,3.9c.12,2.59.17,5.17.06,7.73a108.92,108.92,0,0,1-1.52,15.3c-.36-5.12-.55-10.21-.82-15.27-.17-2.53-.27-5-.55-7.54l-.2-1.85L437,63.21c-.2-1.29-.37-2.57-.52-3.85-.26-2.55-.49-5.1-.67-7.65s-.32-5.1-.38-7.65C435.25,39,435.21,33.84,435.5,28.71Z"/><path class="cls-8" d="M424.83,52.05c1.1,6.19,1.79,12.43,2.32,18.68.29,3.13.44,6.26.64,9.39s.25,6.27.33,9.41,0,6.28,0,9.42-.15,6.28-.39,9.42a110,110,0,0,1-2.57,18.68c.26-6.28.24-12.51.23-18.75s-.14-12.48-.28-18.72l-.3-18.73C424.73,64.59,424.69,58.33,424.83,52.05Z"/><path class="cls-8" d="M431.17,122.05a48.83,48.83,0,0,1,1.53,7.87,75.44,75.44,0,0,1,.53,8,66.5,66.5,0,0,1-.34,8,31.58,31.58,0,0,1-1.72,7.87c-.26-2.69-.47-5.3-.64-7.93s-.26-5.24-.3-7.87,0-5.26.12-7.9A65.49,65.49,0,0,1,431.17,122.05Z"/><path class="cls-8" d="M441.83,112.38c.54,5.2.74,10.4.81,15.6.06,2.6,0,5.2,0,7.8s-.15,5.2-.23,7.8-.27,5.19-.46,7.78-.4,5.19-.72,7.78a98.71,98.71,0,0,1-2.73,15.41l.39-15.57.23-7.77.3-7.77.39-7.76c.17-2.59.28-5.18.5-7.77C440.68,122.74,441.13,117.56,441.83,112.38Z"/><path class="cls-8" d="M455.17,116.38a63,63,0,0,1,1.36,9.43,90.69,90.69,0,0,1,.28,9.47,75.47,75.47,0,0,1-.72,9.48,39.52,39.52,0,0,1-2.26,9.29l-.08-9.45c0-3.13,0-6.25.06-9.38s.18-6.26.39-9.4S454.66,119.54,455.17,116.38Z"/><path class="cls-8" d="M468.5,89.71c.9,4.89,1.44,9.8,1.85,14.72.22,2.46.33,4.92.47,7.39s.16,4.93.23,7.4,0,4.94-.05,7.41-.17,5-.37,7.42c-.11,1.23-.2,2.47-.33,3.7l-.48,3.7c-.18,1.22-.44,2.45-.68,3.66s-.63,2.42-1,3.6c.28-4.94.18-9.82.12-14.73l-.24-14.72-.06-7.37c0-2.46,0-4.91,0-7.38C468.06,99.59,468.16,94.66,468.5,89.71Z"/><path class="cls-8" d="M490.17,72.71c1.16,8.34,1.87,16.72,2.24,25.13.2,4.21.24,8.42.14,12.67s-.68,8.49-1.2,12.65l-1.71,12.45c-.59,4.14-1,8.29-1.48,12.44s-.74,8.31-.82,12.47a86.16,86.16,0,0,0,.49,12.53,60.51,60.51,0,0,1-2-12.5,109.3,109.3,0,0,1,0-12.67c.16-4.22.56-8.42,1-12.61s1-8.35,1.56-12.51,1.14-8.26,1.34-12.38.28-8.32.36-12.5Z"/><path class="cls-8" d="M464.83,15.38a82.54,82.54,0,0,1,5,12.73c.36,1.09.67,2.19,1,3.29s.59,2.2.86,3.31c.55,2.22,1,4.46,1.42,6.7a97.73,97.73,0,0,1,1.38,13.65,57.24,57.24,0,0,1-1.26,13.65c-.23-4.57-.58-9-1.07-13.48s-1.25-8.88-2-13.3c-.39-2.21-.78-4.42-1.23-6.62s-.89-4.4-1.31-6.62Z"/><path class="cls-8" d="M479.5,9.38a57.31,57.31,0,0,1,2.16,8.43q.78,4.26,1.14,8.58a80.47,80.47,0,0,1,.28,8.65,47,47,0,0,1-.91,8.67c-.64-2.87-1.06-5.7-1.44-8.54s-.69-5.68-.92-8.53-.41-5.71-.49-8.58A78.9,78.9,0,0,1,479.5,9.38Z"/><path class="cls-8" d="M401.83,67.38c.06,8-.07,16.06-.07,24.06l.05,6c.06,2,.17,3.93.35,5.91l1,12c.52,8,.95,16.26-1.12,24.35-.29,1-.62,2-.95,3l-1,2.81c-.69,1.87-1.3,3.76-1.9,5.66a109.31,109.31,0,0,0-3,11.61,69.26,69.26,0,0,1,1.6-12c.44-2,.91-3.94,1.45-5.89.25-1,.56-1.94.84-2.91s.51-1.87.73-2.81a57.52,57.52,0,0,0,1-11.68c0-4-.24-7.92-.56-11.9s-.64-8-.86-12c-.11-2-.15-4.06-.14-6.1s.12-4,.23-6.05C399.87,83.34,400.65,75.34,401.83,67.38Z"/><path class="cls-8" d="M409.5,120.38a59,59,0,0,1,2,15.56,50.64,50.64,0,0,1-.59,7.86,22.64,22.64,0,0,1-2.42,7.58c.12-2.66.1-5.19.07-7.76s-.07-5.12-.06-7.69.05-5.14.17-7.73A53.63,53.63,0,0,1,409.5,120.38Z"/><path class="cls-8" d="M406.83,57.05a64.64,64.64,0,0,1,1.43,8.55q.45,4.28.57,8.57c.09,2.86.07,5.73-.07,8.59a63.25,63.25,0,0,1-.93,8.62,66.32,66.32,0,0,1-1.43-8.55c-.3-2.85-.48-5.71-.57-8.57s-.06-5.73.08-8.6A64.87,64.87,0,0,1,406.83,57.05Z"/><path class="cls-8" d="M422.5,171.71a43.7,43.7,0,0,1-.67-7.08c-.06-2.35,0-4.69.17-7s.44-4.66.82-7a45,45,0,0,1,1.68-6.92,44,44,0,0,1,.68,7.09c.05,2.35,0,4.69-.18,7s-.44,4.66-.83,7A43.7,43.7,0,0,1,422.5,171.71Z"/><path class="cls-8" d="M370.83,88.71a30,30,0,0,1,.7,6.21,48.51,48.51,0,0,1-.25,6.15,45.12,45.12,0,0,1-1,6.08,27,27,0,0,1-2.09,5.9,46.6,46.6,0,0,1-.25-6.21c.05-2,.17-4.06.38-6.08s.5-4,.89-6A39.18,39.18,0,0,1,370.83,88.71Z"/><path class="cls-8" d="M382.17,70.71a72.51,72.51,0,0,1,.41,8.16q0,4-.23,8.07c-.15,2.68-.35,5.36-.65,8s-.62,5.35-1.2,8.07a45.12,45.12,0,0,1-1.16-8.13,73.85,73.85,0,0,1,0-8.15,75.77,75.77,0,0,1,.88-8.09A48.69,48.69,0,0,1,382.17,70.71Z"/><path class="cls-8" d="M395.83,68.71c-1.16,6-2.13,12-2.71,17.92-.24,3-.45,6-.4,8.93l.06,2.21.16,2.19c.12,1.51.29,3.06.37,4.58a120.83,120.83,0,0,1-.34,18.35,90.07,90.07,0,0,1-1.33,9.09,35.34,35.34,0,0,1-2.81,8.73,51.36,51.36,0,0,0,1.35-8.94c.26-3,.37-6,.46-9s.09-6,0-9-.13-6-.33-9c-.06-1.51-.2-3-.3-4.5l-.13-2.34q0-1.17,0-2.34a67.29,67.29,0,0,1,.92-9.21A81.07,81.07,0,0,1,395.83,68.71Z"/><path class="cls-8" d="M369.17,175.38c.91-2.93,1.92-5.75,3-8.55s2.07-5.58,3-8.37,2-5.57,2.82-8.4,1.59-5.67,2.18-8.68a25.8,25.8,0,0,1,.1,9.19,45.94,45.94,0,0,1-2.27,8.9,57,57,0,0,1-3.75,8.32A43.71,43.71,0,0,1,369.17,175.38Z"/><path class="cls-8" d="M360.5,89.38A102.4,102.4,0,0,1,361,101c0,1.93-.08,3.86-.13,5.78s-.21,3.85-.33,5.77q-.4,5.76-1.27,11.5a77.12,77.12,0,0,1-2.42,11.36c-.09-3.89,0-7.73.09-11.58s.32-7.67.61-11.5l.5-5.74c.21-1.91.37-3.83.63-5.73C359.12,97,359.67,93.19,360.5,89.38Z"/><path class="cls-8" d="M345.5,174.71c-.06-3.3.12-6.55.38-9.78s.59-6.45,1-9.66.84-6.4,1.33-9.6,1-6.38,1.65-9.62a49.08,49.08,0,0,1,.69,9.82,88.25,88.25,0,0,1-.7,9.76c-.39,3.24-.93,6.45-1.64,9.64A67.42,67.42,0,0,1,345.5,174.71Z"/><path class="cls-8" d="M340.5,111.05a91.55,91.55,0,0,1,.49,10.84c0,3.6-.15,7.2-.41,10.79s-.64,7.17-1.19,10.74a77,77,0,0,1-2.22,10.63c-.2-3.64-.2-7.24-.11-10.83s.26-7.18.52-10.76.61-7.16,1.09-10.73A103.63,103.63,0,0,1,340.5,111.05Z"/><path class="cls-8" d="M370.17,123.71a98.12,98.12,0,0,1-.22,11.64c-.24,3.87-.69,7.71-1.21,11.54s-1.25,7.65-2.14,11.43a49,49,0,0,1-3.77,11.06c.63-3.84,1-7.65,1.46-11.47s.92-7.64,1.48-11.44l.88-5.71c.34-1.9.61-3.8,1-5.7C368.34,131.27,369.12,127.48,370.17,123.71Z"/><path class="cls-8" d="M323.83,136.71a44.21,44.21,0,0,1,.42,7.6,70.06,70.06,0,0,1-.56,7.52,61,61,0,0,1-1.41,7.42,27,27,0,0,1-2.78,7.13c.14-2.56.26-5,.45-7.52s.44-5,.76-7.42.72-4.93,1.21-7.39A57.89,57.89,0,0,1,323.83,136.71Z"/><path class="cls-8" d="M313.83,142.38a14.09,14.09,0,0,1,.49,4,21.92,21.92,0,0,1-.34,3.8,22.83,22.83,0,0,1-1,3.69,14.27,14.27,0,0,1-1.83,3.55,14,14,0,0,1-.5-3.95,23,23,0,0,1,.35-3.81,23.26,23.26,0,0,1,1-3.7A14.34,14.34,0,0,1,313.83,142.38Z"/><path class="cls-8" d="M327.83,173.05a68,68,0,0,1,.51-8q.46-3.95,1.16-7.83c.45-2.6,1-5.17,1.52-7.75s1.17-5.12,1.81-7.76a30.45,30.45,0,0,1,.53,8.07,62,62,0,0,1-.91,7.95,73.71,73.71,0,0,1-1.8,7.78A48,48,0,0,1,327.83,173.05Z"/><path class="cls-8" d="M299.83,171.71a18.12,18.12,0,0,1-.05-4.53,30.32,30.32,0,0,1,2.16-8.52,17.88,17.88,0,0,1,2.23-3.95,18.37,18.37,0,0,1,.05,4.56,30.06,30.06,0,0,1-2.16,8.48A18.41,18.41,0,0,1,299.83,171.71Z"/><path class="cls-11" d="M.5,205.05s17.33,2.33,40-4.34,66.67-25.33,118.33-10.33c0,0,23.67-15,59.67-13s71-4.33,71-4.33,36.5-4.67,68.5,6c0,0,37-13.5,80.5-4.5,0,0,42.5-10.84,63,3.83v71.67H0Z"/><path class="cls-8" d="M158.83,190.38a202.47,202.47,0,0,1,22.16,6.7,119.88,119.88,0,0,1,21.08,9.79c1.64,1,3.28,2.27,4.81,3.26a19.39,19.39,0,0,0,2.38,1.49c.83.44,1.62.95,2.48,1.33a62.81,62.81,0,0,0,10.65,4,107.83,107.83,0,0,0,11.18,2.56c3.78.7,7.59,1.18,11.43,1.54a92.17,92.17,0,0,1-23-2.59,58.63,58.63,0,0,1-11.07-3.8c-.91-.37-1.74-.91-2.62-1.36a21.86,21.86,0,0,1-2.52-1.55c-1.71-1.1-3.14-2.19-4.77-3.19a146.24,146.24,0,0,0-20.59-10Q169.76,194.21,158.83,190.38Z"/><path class="cls-8" d="M214.5,186.55a52.29,52.29,0,0,1,14.95-3.92,50.3,50.3,0,0,1,15.58.51c2.53.51,5.05,1.06,7.55,1.68s5,1.29,7.44,2c4.94,1.34,9.81,3,15,2.73a23.64,23.64,0,0,1-7.74.18c-2.58-.32-5.11-.84-7.62-1.39-5-1.11-10-2.29-15-3.24a52.38,52.38,0,0,0-7.48-.94c-1.26-.11-2.52-.09-3.79-.11s-2.52,0-3.79.13A78.71,78.71,0,0,0,214.5,186.55Z"/><path class="cls-8" d="M117.5,232.55a58.34,58.34,0,0,1,6.47-.38c2.16,0,4.33,0,6.49.05q6.49.24,12.95,1c4.3.46,8.58,1.14,12.85,1.87s8.5,1.69,12.71,2.56,8.42,1.74,12.65,2.53c2.12.41,4.24.75,6.36,1.13l6.37,1c4.25.66,8.51,1.27,12.79,1.8s8.56,1,12.86,1.39a203.39,203.39,0,0,1-25.86-1.65c-8.6-1-17.13-2.5-25.59-4.29s-16.83-3.6-25.35-4.84c-4.25-.64-8.52-1.19-12.8-1.58A120.6,120.6,0,0,0,117.5,232.55Z"/><path class="cls-8" d="M299.5,181.55c-5.29,1.84-10.48,3.89-15.63,6s-10.21,4.42-15.16,6.93c-1.25.62-2.47,1.27-3.7,1.91s-2.5,1.31-3.77,1.91c-2.55,1.2-5.12,2.36-7.78,3.32a67.18,67.18,0,0,1-8.09,2.43,35.94,35.94,0,0,1-8.37,1,43.18,43.18,0,0,0,8.11-2c2.64-.84,5.22-1.85,7.78-2.93s5.05-2.28,7.51-3.56l7.41-3.91a139,139,0,0,1,15.5-6.61A116.83,116.83,0,0,1,299.5,181.55Z"/><path class="cls-8" d="M358,179.05a32.49,32.49,0,0,1-5.41,2.54,46.71,46.71,0,0,1-5.69,1.74,39.22,39.22,0,0,1-5.9,1,22,22,0,0,1-6-.24l5.76-1.3,5.68-1.36C350.24,180.51,354,179.58,358,179.05Z"/><path class="cls-8" d="M438.5,174.55a78.5,78.5,0,0,1,11.28,2.16,100.5,100.5,0,0,1,11,3.54,89.18,89.18,0,0,0,10.62,3.88,48.57,48.57,0,0,0,11.15,1.92,31,31,0,0,1-11.51-.4,46.79,46.79,0,0,1-5.61-1.49c-1.85-.61-3.64-1.37-5.38-2-3.51-1.4-7.09-2.65-10.67-3.91Z"/><path class="cls-8" d="M354,230.05a49.08,49.08,0,0,1,9.83-2c1.66-.2,3.34-.28,5-.37s3.35-.05,5,0,3.34.2,5,.34,3.33.39,5,.75a51.86,51.86,0,0,1,9.65,2.74c-3.33-.4-6.58-.91-9.87-1.19s-6.55-.55-9.83-.65-6.58-.14-9.87-.08S357.33,229.84,354,230.05Z"/><path class="cls-8" d="M364,236.55c4.8-.5,9.58-1.14,14.3-2.05a129.84,129.84,0,0,0,14-3.3l3.41-1.11c1.11-.43,2.24-.81,3.34-1.26,2.19-.9,4.36-1.92,6.51-3,4.32-2.12,8.66-4.27,13.07-6.26,8.83-4,18-7.33,27.67-8.91a63.41,63.41,0,0,1,14.56-.75A48.8,48.8,0,0,1,475,213.05c-9.28-2.79-19.08-2.66-28.43-.84a125.59,125.59,0,0,0-27.13,9.19c-4.39,1.94-8.7,4.07-13.07,6.14-2.18,1-4.4,2-6.69,2.92-1.14.44-2.3.81-3.45,1.22l-3.51,1A123.56,123.56,0,0,1,364,236.55Z"/><path class="cls-12" d="M52.11,219.79h3.34c.7,0-.15-.82-.56-.82H51.55c-.7,0,.15.82.56.82Z"/><path class="cls-12" d="M70.05,215.28h3.34c.47,0,0-1.13-.44-1.13H69.61c-.47,0,0,1.13.44,1.13Z"/><path class="cls-12" d="M82.7,197.36l2,.66c.25.09.14-.23.09-.35a1.29,1.29,0,0,0-.59-.63l-2-.67c-.25-.08-.15.24-.09.36a1.29,1.29,0,0,0,.59.63Z"/><path class="cls-12" d="M15,219.71a4.33,4.33,0,0,1,3.21-.62c.26,0-.05-.23-.1-.28a1.9,1.9,0,0,0-.75-.41,4.61,4.61,0,0,0-3.43.66s.79.83,1.07.65Z"/><path class="cls-12" d="M37.15,211.89h2.67c.74,0,.84-1,0-1H37.18c-.74,0-.84,1,0,1Z"/><path class="cls-12" d="M33.62,236.55h4c.58,0,1.2-1,.43-1h-4c-.58,0-1.2,1-.43,1Z"/><path class="cls-12" d="M67.31,236.31H68c.15,0,.54-.05.46-.28s-.58-.25-.75-.25H67c-.15,0-.54.06-.46.29s.58.24.75.24Z"/><path class="cls-12" d="M109.63,224.48a1.67,1.67,0,0,0,2.08-.93c.24-.64-1-.94-1.17-.37-.07.2-.24.48-.49.41a.67.67,0,0,0-.8.26c-.13.28.12.56.38.63Z"/><path class="cls-12" d="M120.87,207.22h2.66a5.53,5.53,0,0,0-.31-.55c-.07-.1-.27-.46-.42-.46h-2.67a5.49,5.49,0,0,0,.31.54c.08.11.28.47.43.47Z"/><path class="cls-12" d="M104.58,203.41a1,1,0,0,0,.6,1.3,2.42,2.42,0,0,0,1.83,0c.25-.1-.16-.16-.22-.17a1.79,1.79,0,0,0-.86.07c.47.06.56,0,.29-.08l-.09-.07a1,1,0,0,1-.29-.37.82.82,0,0,1,0-.7s-1.13-.27-1.25,0Z"/><path class="cls-12" d="M138,202.54h2c.75,0,.16-1-.35-1h-2c-.76,0-.16,1,.35,1Z"/><path class="cls-12" d="M147.27,220.27h2a1.94,1.94,0,0,0,.75-.2c.06,0,.44-.25.37-.25h-2a2.14,2.14,0,0,0-.74.2c-.07,0-.44.25-.38.25Z"/><path class="cls-12" d="M160,210h.66c.62,0,.22-1.18-.34-1.18h-.67c-.62,0-.22,1.18.35,1.18Z"/><path class="cls-12" d="M136.82,245.07h.67c.26,0,.31-.18.16-.36a1.13,1.13,0,0,0-.81-.36h-.66c-.26,0-.31.18-.16.37a1.14,1.14,0,0,0,.8.35Z"/><path class="cls-12" d="M103.83,240.24h-.42c-.78,0-.76.95,0,.95h.41c.78,0,.77-.95,0-.95h-.42c-.78,0-.76.95,0,.95h.41c.78,0,.77-.95,0-.95Z"/><path class="cls-12" d="M95.12,226.81v-.67c0-.55-1.24-.71-1.24-.19v.67c0,.55,1.24.71,1.24.19Z"/><path class="cls-12" d="M190.89,192.43c.4,0-.47-.77-.78-.77s.47.77.78.77Z"/><path class="cls-12" d="M202.81,196.47c.36,0,1.22-.85.72-.85s-1.23.85-.72.85Z"/><path class="cls-12" d="M199.19,187.9c.82,0,.7-1-.05-1s-.69,1,.05,1Z"/><path class="cls-12" d="M218.87,193.86c.24,0-.37-1-.74-1s.37,1,.74,1Z"/><path class="cls-12" d="M231.89,198c.79,0,.58-1.16-.11-1.16s-.58,1.16.11,1.16Z"/><path class="cls-12" d="M214.7,206.43c.81,0,.1-.77-.4-.77-.81,0-.1.77.4.77Z"/><path class="cls-12" d="M259.12,182.6c.77,0,.9-1.1.09-1.1s-.9,1.1-.09,1.1Z"/><path class="cls-12" d="M243.19,193.82c.78,0,.72-.88-.05-.88s-.72.88.05.88Z"/><path class="cls-12" d="M213.85,182.45c.78,0,.72-.81,0-.81s-.72.81,0,.81Z"/><path class="cls-12" d="M276,181.24c.77,0,.31-1.05-.27-1.05-.78,0-.31,1.05.27,1.05Z"/><path class="cls-12" d="M294.44,180.62c.74,0,.93-1.14.12-1.14s-.93,1.14-.12,1.14Z"/><path class="cls-12" d="M317.57,179.76c.4,0-.49-.76-.81-.76s.49.76.81.76Z"/><path class="cls-12" d="M315.66,190.93c.22,0-.72-.44-1-.44s.72.44,1,.44Z"/><path class="cls-12" d="M296.16,193.22c.09,0-.36-1-.65-1-.09,0,.36,1,.65,1Z"/><path class="cls-12" d="M304.06,205.28c.57,0,.07-1.13-.46-1.13s-.06,1.13.46,1.13Z"/><path class="cls-12" d="M283.66,207.9c.6,0,1.12-1,.35-1-.6,0-1.13,1-.35,1Z"/><path class="cls-12" d="M316.89,209c.33,0,1.34-.47.55-.47-.33,0-1.34.47-.55.47Z"/><path class="cls-12" d="M200.41,225.91c.75,0,1-1.06.18-1.06s-1,1.06-.18,1.06Z"/><path class="cls-12" d="M215,238.3c.21,0-.7-.5-1-.5s.7.5,1,.5Z"/><path class="cls-12" d="M189.36,209.88c.76,0,.17-1-.38-1-.77,0-.18,1,.38,1Z"/><path class="cls-12" d="M186.66,238.57c.77,0,.26-1-.32-1-.77,0-.26,1,.32,1Z"/><path class="cls-12" d="M160.92,232.52c.52,0,1.24-.94.5-.94-.52,0-1.25.94-.5.94Z"/><path class="cls-12" d="M250.68,247.07c.34,0,1-.71,1-.71-.35,0-1,.71-1,.71Z"/><path class="cls-12" d="M275.92,232.33h-.67c-.64,0-1,.77-.17.77h.67c.64,0,1-.77.17-.77Z"/><path class="cls-12" d="M285,244.3c.54,0,1.13-.51.27-.51-.53,0-1.12.51-.27.51Z"/><path class="cls-12" d="M304.25,226.23c.53,0-.61-.37-.83-.37-.54,0,.61.37.83.37Z"/><path class="cls-12" d="M335.36,216.46c.82,0,.15-.82-.39-.82-.82,0-.15.82.39.82Z"/><path class="cls-12" d="M336.69,193.65c.27,0,1.18-.54.95-.54s-1.18.54-.95.54Z"/><path class="cls-12" d="M334.81,180.35c.29,0,1.33-.61.71-.61-.29,0-1.33.61-.71.61Z"/><path class="cls-12" d="M353.75,196c.74,0,1-1.14.17-1.14s-1,1.14-.17,1.14Z"/><path class="cls-12" d="M363.48,185.75c.67,0-.28-.73-.63-.73-.66,0,.28.73.63.73Z"/><path class="cls-12" d="M368.08,201.06c.29,0,1.2-.69.84-.69s-1.2.69-.84.69Z"/><path class="cls-12" d="M351.53,209c.6,0-.47-.57-.73-.57-.59,0,.47.57.73.57Z"/><path class="cls-12" d="M333.24,235.89v.66c0,.54,1.18.92,1.18.32v-.66c0-.54-1.18-.92-1.18-.32Z"/><path class="cls-12" d="M315.87,238.23h-.66c-.72,0-.9,1-.08,1h.66c.72,0,.9-1,.08-1Z"/><path class="cls-12" d="M320.1,225.93c.48,0-.06-1.1-.53-1.1s.06,1.1.53,1.1Z"/><path class="cls-12" d="M357.31,225.69c.35,0,.92-.62,1-.62-.34,0-.91.62-1,.62Z"/><path class="cls-12" d="M356.65,241.82H356c-.15,0-.71,0-.75.22s.31.24.46.24h.66c.16,0,.71,0,.76-.23s-.32-.23-.46-.23Z"/><path class="cls-12" d="M377.74,213.74c.62,0,1-.72.19-.72-.62,0-1,.72-.19.72Z"/><path class="cls-12" d="M396.78,201.86c.53,0-.2-1-.56-1-.53,0,.2,1,.56,1Z"/><path class="cls-12" d="M392.65,181.83c.82,0,.28-.9-.3-.9-.82,0-.28.9.3.9Z"/><path class="cls-12" d="M379.61,187.1c.51,0,1.26-.77.45-.77-.51,0-1.27.77-.45.77Z"/><path class="cls-12" d="M411.06,192.26c-.19,0-.76-.43-1.12-.43.19,0,.76.43,1.12.43Z"/><path class="cls-12" d="M422.44,179.92c.76,0,.93-1.08.12-1.08s-.93,1.08-.12,1.08Z"/><path class="cls-12" d="M432.69,196.54c.76,0,.13-1-.38-1-.76,0-.13,1,.38,1Z"/><path class="cls-12" d="M417.94,212c.71,0,.35-1.15-.21-1.15-.71,0-.35,1.15.21,1.15Z"/><path class="cls-12" d="M407.42,205.26c.28,0-.18-1.1-.51-1.1s.18,1.1.51,1.1Z"/><path class="cls-12" d="M399.32,222.23c.86,0,.18-.37-.3-.37-.86,0-.19.37.3.37Z"/><path class="cls-12" d="M410.08,242.57c.65,0,0-1-.49-1s0,1,.49,1Z"/><path class="cls-12" d="M437.07,234.57c.68,0,1-1,.19-1s-1,1-.19,1Z"/><path class="cls-12" d="M446.19,240.79c.22,0,1.38-.16.62-.16-.22,0-1.38.16-.62.16Z"/><path class="cls-12" d="M463.63,219.69V219c0-.36-.93-1.13-.93-.61v.66c0,.36.93,1.14.93.62Z"/><path class="cls-12" d="M454.81,199.49c.77,0-.39-.22-.62-.22-.77,0,.39.22.62.22Z"/><path class="cls-12" d="M481.07,178.86v-.67c0-.6-1.14-1-1.14-.29v.67c0,.6,1.14,1,1.14.29Z"/><path class="cls-12" d="M483.79,201.9c.74,0,.9-1,.08-1s-.89,1-.08,1Z"/><path class="cls-12" d="M472,196.19c.87,0,.14-.29-.32-.29-.86,0-.13.29.32.29Z"/><path class="cls-12" d="M484.5,233.26a.55.55,0,1,0,0-1.09.55.55,0,1,0,0,1.09Z"/><path class="cls-12" d="M473,243.46h-.66c-.64,0-.24,1.18.34,1.18h.67c.64,0,.24-1.18-.35-1.18Z"/><path class="cls-12" d="M476.7,227.24c.62,0,0-1.06-.4-1.06-.62,0,0,1.06.4,1.06Z"/><path class="cls-12" d="M464,234.58c.78,0,.31-1.06-.28-1.06-.77,0-.3,1.06.28,1.06Z"/></g></g></g></svg>