<svg xmlns="http://www.w3.org/2000/svg" viewBox="0 0 117.85 119.98"><defs><style>.cls-1{isolation:isolate;}.cls-2{fill:#c2c2c2;}.cls-3{fill:#d6d6d6;}.cls-4{fill:#f6f6f6;}.cls-5{fill:#230753;opacity:0.15;mix-blend-mode:multiply;}.cls-6{fill:#e3e3e3;}</style></defs><title>Asset 3</title><g class="cls-1"><g id="Layer_2" data-name="Layer 2"><g id="BACKGROUND_2" data-name="BACKGROUND 2"><path class="cls-2" d="M46.14,102.5l4.7.58a6.7,6.7,0,0,1,5.82,7.45l-.44,3.59a6.7,6.7,0,0,1-7.45,5.81l-4.7-.57a6.71,6.71,0,0,1-5.82-7.45l.44-3.59A6.71,6.71,0,0,1,46.14,102.5Z"/><rect class="cls-2" x="99.25" y="65.07" width="18.1" height="16.98" rx="5.54" ry="5.54" transform="matrix(-0.36, 0.93, -0.93, -0.36, 215.72, -1.28)"/><path class="cls-3" d="M105.45,22.77l2.45,3.29a7,7,0,0,1-1.43,9.79l-2.39,1.79a7,7,0,0,1-9.79-1.43l-2.46-3.3a7,7,0,0,1,1.43-9.79l2.39-1.78A7,7,0,0,1,105.45,22.77Z"/><rect class="cls-3" x="45.03" y="0.11" width="18.1" height="16.98" rx="5.66" ry="5.66" transform="translate(107.84 19.07) rotate(-178.03)"/><path class="cls-3" d="M23.25,33.56l-2.54,3.21A8.51,8.51,0,0,1,8.79,38.16h0a8.51,8.51,0,0,1-1.4-11.92L9.93,23a8.51,8.51,0,0,1,11.92-1.4h0A8.52,8.52,0,0,1,23.25,33.56Z"/><path class="cls-4" d="M115.28,60.86A57.64,57.64,0,1,1,57.64,3.22,57.63,57.63,0,0,1,115.28,60.86Z"/><path class="cls-5" d="M57.64,94.6A57.65,57.65,0,0,1,1.25,48.91a57.64,57.64,0,1,0,114,12,58.09,58.09,0,0,0-1.24-12A57.66,57.66,0,0,1,57.64,94.6Z"/><path class="cls-6" d="M43.76,27.68c1,2.34-1,5.41-4.51,6.86s-7.08.71-8-1.63,1-5.42,4.51-6.86S42.78,25.33,43.76,27.68Z"/><path class="cls-6" d="M28.91,35c-1.47-3.53,1.58-8.16,6.81-10.34,3.86-1.61,7.83-1.43,10.24.21-2.21-2.31-6.74-2.81-11.14-1C29.59,26.07,26.54,30.7,28,34.23a5.15,5.15,0,0,0,1.89,2.25A5,5,0,0,1,28.91,35Z"/><path class="cls-5" d="M43.76,27.68a3.3,3.3,0,0,0-1.14-1.42c.66,2.3-1.32,5.15-4.63,6.52-2.62,1.1-5.32.95-6.9-.21a2.24,2.24,0,0,0,.11.34c1,2.34,4.58,3.07,8.05,1.63S44.74,30,43.76,27.68Z"/><path class="cls-6" d="M63.61,14.4c.16,1.4-1.75,2.76-4.25,3s-4.65-.63-4.8-2,1.74-2.76,4.24-3S63.46,13,63.61,14.4Z"/><path class="cls-6" d="M75.52,35.07c-1.11-.64-1.32-2.36-.58-4a5.09,5.09,0,0,0-.31.45c-1,1.78-.87,3.8.35,4.5s3-.17,4.07-1.95c.09-.16.16-.33.24-.49C78.23,35,76.63,35.71,75.52,35.07Z"/><path class="cls-5" d="M52.85,16.1c-.25-2.24,2.79-4.41,6.79-4.85a11.23,11.23,0,0,1,4.58.37,10.47,10.47,0,0,0-5.58-.77c-4,.44-7,2.61-6.8,4.85C52,17,53.19,18,55,18.58A3.34,3.34,0,0,1,52.85,16.1Z"/><path class="cls-5" d="M63.61,14.4c-.13-1.21-1.76-2.05-3.82-2.08,1.14.34,1.92,1,2,1.82.15,1.39-1.75,2.75-4.25,3a8.42,8.42,0,0,1-1,0,7,7,0,0,0,2.8.21C61.86,17.16,63.77,15.8,63.61,14.4Z"/><path class="cls-6" d="M15.77,48.52c2.15,1.34,2.31,5,.36,8.1s-5.29,4.58-7.45,3.24-2.31-5-.35-8.11S13.61,47.17,15.77,48.52Z"/><path class="cls-5" d="M17,46.91c2.29,1.44,2.78,4.94,1.37,8.37,2-3.45,1.72-7.31-.63-8.78a4.56,4.56,0,0,0-4.29-.07A4.66,4.66,0,0,1,17,46.91Z"/><path class="cls-5" d="M7.23,61.06c-2.95-1.85-3.37-6.58-1.12-11a11.8,11.8,0,0,0-.69,1c-2.9,4.64-2.67,10,.53,12s8.12-.15,11-4.79c.22-.35.41-.7.6-1.06C14.62,61.2,10.18,62.9,7.23,61.06Z"/><path class="cls-5" d="M15.77,48.52c-2.16-1.35-5.49.1-7.44,3.23a8.81,8.81,0,0,0-.76,1.5c2-2.17,4.61-3,6.43-1.9s2.21,3.9,1.11,6.61a9.26,9.26,0,0,0,1-1.34C18.08,53.49,17.92,49.86,15.77,48.52Z"/><path class="cls-6" d="M32.6,71.45c4.67,2.92,6.52,8.37,4.13,12.19S28.64,88.18,24,85.26s-6.51-8.37-4.13-12.18S27.94,68.54,32.6,71.45Z"/><path class="cls-5" d="M19.84,78.43c2.38-3.81,8.1-4.54,12.76-1.63a11.18,11.18,0,0,1,4.69,5.7c1.44-3.7-.47-8.41-4.69-11-4.66-2.91-10.38-2.18-12.76,1.63a7.46,7.46,0,0,0-.56,6.48A7,7,0,0,1,19.84,78.43Z"/><path class="cls-5" d="M42.26,79.43A9.89,9.89,0,0,1,41,84.89c-3.22,5.57-11.34,6.89-18.15,3A15.63,15.63,0,0,1,15.53,79c.2,4.41,3,9,7.79,11.73,6.81,3.93,14.93,2.6,18.15-3A10.42,10.42,0,0,0,42.26,79.43Z"/><path class="cls-5" d="M36.94,104.25c1.83-2.92,6.69-3.18,10.86-.57,2.87,1.79,4.66,4.48,4.9,6.93.23-2.69-1.63-5.89-4.9-7.94-4.17-2.6-9-2.34-10.86.58a4.86,4.86,0,0,0-.67,3.07A4.73,4.73,0,0,1,36.94,104.25Z"/><path class="cls-5" d="M49.81,108.31a3.36,3.36,0,0,1-.42,1.16c-1.35,2.15-4.92,2.34-8,.43a8.11,8.11,0,0,1-3.19-3.55c-.39,2.06,1,4.62,3.54,6.22,3.07,1.91,6.65,1.72,8-.43A4.07,4.07,0,0,0,49.81,108.31Z"/><path class="cls-6" d="M87.81,72.15c7,4.36,9.48,13,5.58,19.2s-12.72,7.76-19.7,3.4-9.49-13-5.59-19.21S80.82,67.78,87.81,72.15Z"/><path class="cls-5" d="M72,83.35c3.9-6.24,12.72-7.76,19.71-3.39a16.77,16.77,0,0,1,3.35,2.76,15.61,15.61,0,0,0-7.24-10.57c-7-4.37-15.81-2.85-19.71,3.39C64.91,80.65,66,87.33,70.34,92A12.42,12.42,0,0,1,72,83.35Z"/><path class="cls-5" d="M99,81a19.87,19.87,0,0,1-3,10.67c-5.65,9-17.26,12-25.92,6.57a18.06,18.06,0,0,1-8-11.54,18.29,18.29,0,0,0,8.49,15.5c8.67,5.42,20.27,2.48,25.92-6.57A19.7,19.7,0,0,0,99,81Z"/><path class="cls-6" d="M45.32,54.51c-.4,1.17-2.1,1.63-3.79,1s-2.74-2-2.33-3.17,2.1-1.63,3.79-1S45.73,53.35,45.32,54.51Z"/><path class="cls-5" d="M46.08,52.61a2.41,2.41,0,0,1,.21,2c-.54,1.58-2.85,2.21-5.14,1.42a5.67,5.67,0,0,1-2.5-1.68,5.23,5.23,0,0,0,2.94,2.34c2.3.8,4.6.17,5.15-1.41A2.76,2.76,0,0,0,46.08,52.61Z"/><path class="cls-5" d="M40,53.21c.41-1.16,2.11-1.63,3.8-1a4.31,4.31,0,0,1,1.22.65,4,4,0,0,0-2-1.48c-1.69-.59-3.39-.12-3.79,1a2.37,2.37,0,0,0,1.11,2.53A1.91,1.91,0,0,1,40,53.21Z"/><path class="cls-5" d="M71,50.47a2.88,2.88,0,0,0-3.1.66,3.15,3.15,0,0,1,1.62.15,2.66,2.66,0,0,1,1.93,3.21,2.15,2.15,0,0,1-.37.66,2.33,2.33,0,0,0,1.85-1.46A2.69,2.69,0,0,0,71,50.47Z"/><path class="cls-5" d="M70.1,56c-3.07-.84-5-3.6-4.28-6.16a4.11,4.11,0,0,1,.59-1.23A4.26,4.26,0,0,0,64.67,51c-.7,2.56,1.21,5.32,4.28,6.16a5.68,5.68,0,0,0,6.21-1.87A6.14,6.14,0,0,1,70.1,56Z"/><path class="cls-5" d="M100.91,54.87a2.12,2.12,0,0,1-.44,1.37,1.73,1.73,0,0,1-2.37.5,1.19,1.19,0,0,1-.31-.36,1.41,1.41,0,0,0,.5,1,1.73,1.73,0,0,0,2.36-.5A1.86,1.86,0,0,0,100.91,54.87Z"/><path class="cls-5" d="M76,31.21a1.81,1.81,0,0,1,2.53.33,1.49,1.49,0,0,1,.14,1.27,1.66,1.66,0,0,0,.2-1.91,1.83,1.83,0,0,0-2.54-.33,2.09,2.09,0,0,0-.89,1.16A2,2,0,0,1,76,31.21Z"/><path class="cls-5" d="M100.46,38.64a1.82,1.82,0,0,0-2.36-1,2.19,2.19,0,0,0-1.06.72,2.26,2.26,0,0,1,.64-.32A1.82,1.82,0,0,1,100,39a1.55,1.55,0,0,1-.33,1.43A1.67,1.67,0,0,0,100.46,38.64Z"/><path class="cls-5" d="M77.87,20.29c.24-1.16,2.14-1.76,4.25-1.33a7,7,0,0,1,1.54.52A5.28,5.28,0,0,0,80.73,18c-2.11-.43-4,.16-4.24,1.32-.18.85.6,1.77,1.84,2.37A1.61,1.61,0,0,1,77.87,20.29Z"/><path class="cls-5" d="M9.49,84.59c-1.57-3.29-4-5.42-5.44-4.72a1.38,1.38,0,0,0-.45.43c.95.33,2.87,2.2,4.27,5.12a10.25,10.25,0,0,1,.9,6.44,1.23,1.23,0,0,0,1-.07C11.17,91.11,11.06,87.88,9.49,84.59Z"/><path class="cls-2" d="M7.84,85.37c1.52,3.19,2.1,6.08,1.3,6.47S6.45,90,4.92,86.76s-2.1-6.09-1.29-6.47S6.32,82.18,7.84,85.37Z"/><path class="cls-5" d="M7.84,85.37q-.22-.47-.45-.9C8.59,87.28,9,89.68,8.27,90s-2.33-1.48-3.76-4.18c.13.31.27.61.41.92C6.45,90,8.33,92.22,9.14,91.84S9.36,88.56,7.84,85.37Z"/><path class="cls-5" d="M99.57,41.28A2.8,2.8,0,0,1,96,39.77a2.42,2.42,0,0,1,.43-2.19,2.59,2.59,0,0,0-1,2.79A2.8,2.8,0,0,0,99,41.88a3.32,3.32,0,0,0,1.62-1.16A3.51,3.51,0,0,1,99.57,41.28Z"/></g></g></g></svg>