<svg xmlns="http://www.w3.org/2000/svg" xmlns:xlink="http://www.w3.org/1999/xlink" viewBox="0 0 276.99 276.96"><defs><style>.cls-1{fill:#f7311e;}.cls-2{fill:#dc171f;}.cls-3{fill:#ae0b1f;}.cls-4{fill:#d2171f;}.cls-5{opacity:0.2;}.cls-6{opacity:0.8;fill:url(#Degradado_sin_nombre_12);}</style><linearGradient id="Degradado_sin_nombre_12" x1="-782.35" y1="-398.87" x2="-829.45" y2="-528.03" gradientTransform="matrix(-0.09, 1, -1, -0.09, -543.99, 932.47)" gradientUnits="userSpaceOnUse"><stop offset="0" stop-color="#fff"/><stop offset="0.22" stop-color="#fff" stop-opacity="0.76"/><stop offset="0.6" stop-color="#fff" stop-opacity="0.36"/><stop offset="0.87" stop-color="#fff" stop-opacity="0.1"/><stop offset="1" stop-color="#fff" stop-opacity="0"/></linearGradient></defs><title>Asset 1</title><g id="Layer_2" data-name="Layer 2"><g id="BACKGROUND_2" data-name="BACKGROUND 2"><path class="cls-1" d="M276.56,149.21q-.17,2.28-.42,4.56a137,137,0,0,1-20.72,59,139.42,139.42,0,0,1-10.73,14.66l-1.32,1.55a138.17,138.17,0,0,1-28.23,24.93c-3.54,2.35-7.18,4.53-10.89,6.54a139,139,0,0,1-96.74,13l-.06,0-.93-.22A137.9,137.9,0,0,1,48,243.36c-2.4-2.06-4.71-4.2-6.94-6.39a138.28,138.28,0,0,1-37-64.84A140.82,140.82,0,0,1,.87,154.06a138.14,138.14,0,0,1,32.77-106A135.44,135.44,0,0,1,51.15,31q3.8-3.09,7.75-5.88A136.83,136.83,0,0,1,87.77,9.63a138.23,138.23,0,0,1,128.06,14,139.41,139.41,0,0,1,33,31.09,137.06,137.06,0,0,1,14.06,22.78,138.58,138.58,0,0,1,14,54.68s0,0,0,.06l.06,1.57A136.87,136.87,0,0,1,276.56,149.21Z"/><path class="cls-2" d="M179.55,76s-36.07,2.35-64.31,26.27S38,130.08,38,130.08s24.7-7.05,30.19-13.72c0,0-37.16,16.17-68,14.35a138,138,0,0,1,11-46.89c11.67-8.28,34.08-21.24,62.9-23.89,0,0-7.9,3.88-11.43,9.76.3-.14,19.07-9.36,50.59-11.92,31.76-2.58,65.49-18.76,72.94-33,0,0-.39,9.27-9.41,17.89.37-.1,24-6.88,39-19a139.41,139.41,0,0,1,33,31.09C235,66.1,207,83.59,161.32,87.73,161.32,87.73,170.92,86.16,179.55,76Z"/><path class="cls-2" d="M187.5,8.94c-9.74,7.93-27.34,23.7-49,32.21-28,11-59.24,7.73-59.24,7.73l7.07-2.09A137.19,137.19,0,0,0,23.68,61.06a138.38,138.38,0,0,1,10-13A135.44,135.44,0,0,1,51.15,31q3.8-3.09,7.75-5.88A216.57,216.57,0,0,1,101,21.17c19.08,0,37.53-7.32,37.53-7.32a29.74,29.74,0,0,1-11.91-1.31A123.21,123.21,0,0,0,159.5,1.61,137.22,137.22,0,0,1,187.5,8.94Z"/><path class="cls-2" d="M217.21,153.36s-38.84,25.87-92.71,30.06c0,0,15.81-8.63,18-11.76-6.78,3.25-18.22,9.83-40.63,13.72C51.17,194.18,30.1,195,10.71,192a138.53,138.53,0,0,1-6.59-19.84A140.82,140.82,0,0,1,.87,154.06c16.66,1.41,46.47,2.6,71.09-3.55,36.33-9.08,75-32.61,75-32.61s-.47,8.89-13.28,16.21c0,0,107-16.82,129.2-56.63a138.58,138.58,0,0,1,14,54.68s0,0,0,.06l.06,1.57c-9.77,9.12-30.89,23.49-70.85,29.34C206.07,163.13,219.82,155.87,217.21,153.36Z"/><path class="cls-2" d="M276.14,153.77a137,137,0,0,1-20.72,59,139.42,139.42,0,0,1-10.73,14.66c-15.48,7.78-32.78,14.09-46.31,16.42,0,0,14.5-5.49,21.56-12.55-.3.18-19.39,11.48-42.35,15.72-23.13,4.28-54.11-.82-75.29,6.63,0,0,13.74,1,21.59,2.95a123.74,123.74,0,0,0-23.36,3.13c-5.7,1.33-14.14,1.77-24.53,2.42a138.85,138.85,0,0,1-28-18.75c-2.4-2.06-4.71-4.2-6.94-6.39a137.72,137.72,0,0,1-18.92-23.26c10.07-1.8,27.72-3.81,45.93-.49C96,218.32,138.5,199.1,138.5,199.1a46.72,46.72,0,0,1-14,11.38s27.21-3.27,52.7-16.93C197.83,182.49,247.67,175.68,276.14,153.77Z"/><path class="cls-2" d="M204.25,260.41a139,139,0,0,1-96.74,13l-.06,0-.93-.22c4.92-2.83,18.79-9.59,33.66-6.05C154.69,270.67,184.36,267.11,204.25,260.41Z"/><path class="cls-3" d="M94.22,88.39a31.84,31.84,0,0,1-52.67,24.07h0A31.84,31.84,0,1,1,86.46,67.54l0,0A31.83,31.83,0,0,1,94.22,88.39Z"/><path class="cls-4" d="M94.22,88.39a31.84,31.84,0,0,1-52.67,24.07h0A31.84,31.84,0,0,1,86.46,67.54l0,0A31.83,31.83,0,0,1,94.22,88.39Z"/><path class="cls-3" d="M205.43,47.94a20.47,20.47,0,0,1-33.87,15.47h0a20.48,20.48,0,1,1,28.89-28.88s0,0,0,0A20.46,20.46,0,0,1,205.43,47.94Z"/><path class="cls-4" d="M205.43,47.94a20.47,20.47,0,0,1-33.87,15.47h0a20.48,20.48,0,0,1,28.89-28.88s0,0,0,0A20.46,20.46,0,0,1,205.43,47.94Z"/><path class="cls-3" d="M249.75,130.86a32.84,32.84,0,0,1-54.32,24.82h0a32.83,32.83,0,1,1,46.32-46.31s0,0,0,0A32.77,32.77,0,0,1,249.75,130.86Z"/><path class="cls-4" d="M249.75,130.86a32.84,32.84,0,0,1-54.32,24.82h0a32.83,32.83,0,0,1,46.32-46.31s0,0,0,0A32.77,32.77,0,0,1,249.75,130.86Z"/><path class="cls-3" d="M73.05,192.52a17.45,17.45,0,0,1-28.87,13.19h0a17.45,17.45,0,1,1,24.62-24.62s0,0,0,0A17.41,17.41,0,0,1,73.05,192.52Z"/><path class="cls-4" d="M73.05,192.52a17.45,17.45,0,0,1-28.87,13.19h0a17.45,17.45,0,0,1,24.62-24.62s0,0,0,0A17.41,17.41,0,0,1,73.05,192.52Z"/><path class="cls-3" d="M143.49,90.45a9.17,9.17,0,0,1-15.17,6.93h0a9.17,9.17,0,1,1,12.94-12.93h0A9.15,9.15,0,0,1,143.49,90.45Z"/><path class="cls-4" d="M143.49,90.45a9.17,9.17,0,0,1-15.17,6.93h0a9.17,9.17,0,0,1,12.94-12.93h0A9.15,9.15,0,0,1,143.49,90.45Z"/><path class="cls-3" d="M250.79,195.15a14.82,14.82,0,0,1-24.52,11.2h0a14.82,14.82,0,1,1,20.91-20.9,0,0,0,0,0,0,0A14.81,14.81,0,0,1,250.79,195.15Z"/><path class="cls-4" d="M250.79,195.15a14.82,14.82,0,0,1-24.52,11.2h0a14.82,14.82,0,0,1,20.91-20.9,0,0,0,0,0,0,0A14.81,14.81,0,0,1,250.79,195.15Z"/><path class="cls-3" d="M180.86,232.27a28,28,0,0,1-46.27,21.14h0A28,28,0,1,1,174.05,214l0,0A27.93,27.93,0,0,1,180.86,232.27Z"/><path class="cls-4" d="M180.86,232.27a28,28,0,0,1-46.27,21.14h0A28,28,0,0,1,174.05,214l0,0A27.93,27.93,0,0,1,180.86,232.27Z"/><path class="cls-5" d="M228.94,33.62A138.48,138.48,0,0,1,107.5,273.46C183.85,277.54,244.75,174,203.09,100,150.58,6.68,51.15,31,51.15,31A138.54,138.54,0,0,1,228.94,33.62Z"/><path class="cls-6" d="M28.73,75.82c-13.59,25.3-41,94.71,22.53,158.51a14.82,14.82,0,0,0,21.93-1L75.88,230a14.77,14.77,0,0,0-1.08-20C58.46,194.17,31.23,155.49,55.68,87.86A14.8,14.8,0,0,0,45.24,68.43h0A14.8,14.8,0,0,0,28.73,75.82Z"/></g></g></svg>