<svg xmlns="http://www.w3.org/2000/svg" viewBox="0 0 57.82 57.84"><defs><style>.cls-1{fill:#ff662d;}.cls-2{fill:#dd431d;}.cls-3{fill:#d03215;}.cls-4,.cls-5{fill:#ff8345;}.cls-4{opacity:0.46;}.cls-5{opacity:0.32;}.cls-6{fill:#fea77a;opacity:0.21;}</style></defs><title>Asset 2</title><g id="Layer_2" data-name="Layer 2"><g id="BACKGROUND_2" data-name="BACKGROUND 2"><path class="cls-1" d="M31.14,53.5c-.83-1.73-1.68-3.66-1.16-5.5a4.09,4.09,0,0,1,4-2.88,3.84,3.84,0,0,1,3.89-4.28c-.7-1.62.6-3.52,2.24-4.16s3.46-.4,5.21-.25a45.73,45.73,0,0,0,11.51-.55,29.11,29.11,0,0,0,.86-7,28.72,28.72,0,0,0-4.48-15.46,7.1,7.1,0,0,1-2.89,4.52c-1.61,1-3.6,1-5.45,1.33S41,20.58,40.6,22.42a10.46,10.46,0,0,1-.36,2.11c-.55,1.14-2.09,1.41-3.33,1.17a16.76,16.76,0,0,0-3.71-.76c-1.37,0-2.6.84-3.93,1.17s-3.08,0-3.45-1.35c-.15-.52,0-1.09-.21-1.6s-.66-.94-.85-1.47c-.37-1.08.57-2.2,1.62-2.65s2.24-.5,3.28-1a1.49,1.49,0,0,0,.9-.85c.15-.49-.13-1-.23-1.49-.36-1.77,1.5-3.14,3.15-3.89A83,83,0,0,1,41.27,8.9L46,7.29l1.44-.49A28.69,28.69,0,0,0,30,0c-.93.9-2.36,1.74-2.61,2.89s1,2.14.69,3.23a2,2,0,0,1-1.86,1.33c-.81.09-1.64-.05-2.44.11a3.36,3.36,0,0,0-2.34,1.84,7.76,7.76,0,0,1-.81,1.86c-1.38,1.68-4.31-.09-6.24.92-1.18.62-1.62,2.12-2.66,3a4.68,4.68,0,0,1-1.94.87,8.3,8.3,0,0,1-6.34-.92A28.9,28.9,0,0,0,.87,35.89c3.76-1.27,7.76-2.37,9.21-4.7a6.24,6.24,0,0,1,1.4-2,2,2,0,0,1,3,2.64c3.5.62,6.17-4.76,9.58-3.74a.78.78,0,0,1,.49.33,1.25,1.25,0,0,1,0,.61,2.43,2.43,0,0,0,2,2.29,7.2,7.2,0,0,0,3.25-.23c.67.71.39,1.89-.11,2.73a6.18,6.18,0,0,0-1.24,2.63c-.05.8.34,1.66,0,2.37a2.51,2.51,0,0,1-1,.86l-5,3a25.75,25.75,0,0,0-3,2c-1,.79-1.82,1.72-2.73,2.57a19.14,19.14,0,0,1-6.14,3.86,28.72,28.72,0,0,0,18.32,6.56,30.26,30.26,0,0,0,4.28-.31,8.47,8.47,0,0,1-.84-1.5C31.9,55.09,31.52,54.29,31.14,53.5Z"/><path class="cls-2" d="M9.8,16.06a4.68,4.68,0,0,0,1.94-.87c1-.86,1.48-2.36,2.66-3,1.93-1,4.86.76,6.24-.92a7.76,7.76,0,0,0,.81-1.86,3.36,3.36,0,0,1,2.34-1.84c.8-.16,1.63,0,2.44-.11a2,2,0,0,0,1.86-1.33c.26-1.09-.93-2.13-.69-3.23S29.08.93,30,0c-.38,0-.77,0-1.16,0A28.84,28.84,0,0,0,3.46,15.14,8.3,8.3,0,0,0,9.8,16.06Z"/><path class="cls-2" d="M41.27,8.9a83,83,0,0,0-7.79,2.94c-1.65.75-3.51,2.12-3.15,3.89.1.5.38,1,.23,1.49a1.49,1.49,0,0,1-.9.85c-1,.47-2.23.52-3.28,1s-2,1.57-1.62,2.65c.19.53.66.93.85,1.47s.06,1.08.21,1.6c.37,1.32,2.12,1.69,3.45,1.35S31.83,25,33.2,24.94a16.76,16.76,0,0,1,3.71.76c1.24.24,2.78,0,3.33-1.17a10.46,10.46,0,0,0,.36-2.11c.4-1.84,2.42-2.83,4.27-3.18s3.84-.35,5.45-1.33a7.1,7.1,0,0,0,2.89-4.52A29,29,0,0,0,47.45,6.8L46,7.29Z"/><path class="cls-2" d="M19.4,44.7a25.75,25.75,0,0,1,3-2l5-3a2.51,2.51,0,0,0,1-.86c.38-.71,0-1.57,0-2.37a6.18,6.18,0,0,1,1.24-2.63c.5-.84.78-2,.11-2.73a7.2,7.2,0,0,1-3.25.23,2.43,2.43,0,0,1-2-2.29,1.25,1.25,0,0,0,0-.61.78.78,0,0,0-.49-.33c-3.41-1-6.08,4.36-9.58,3.74a2,2,0,0,0-3-2.64,6.24,6.24,0,0,0-1.4,2c-1.45,2.33-5.45,3.43-9.21,4.7a28.83,28.83,0,0,0,9.66,15.24,19.14,19.14,0,0,0,6.14-3.86C17.58,46.42,18.43,45.49,19.4,44.7Z"/><path class="cls-2" d="M56.83,35.88a45.73,45.73,0,0,1-11.51.55c-1.75-.15-3.58-.39-5.21.25s-2.94,2.54-2.24,4.16A3.84,3.84,0,0,0,34,45.12,4.09,4.09,0,0,0,30,48c-.52,1.84.33,3.77,1.16,5.5.38.79.76,1.59,1.15,2.38a8.47,8.47,0,0,0,.84,1.5A28.91,28.91,0,0,0,56.83,35.88Z"/><path class="cls-3" d="M18,24.23c-.18-.37-.71,0-1,.28a3.08,3.08,0,0,1-.27.25,1.33,1.33,0,0,1-2.06-1.52L15.15,22a5.25,5.25,0,0,1,.65-1.35,5.1,5.1,0,0,1,1.82-1.34c.88-.48,2.65-1.74,2.87-.57l-.61,3.89a.43.43,0,0,1-.38.36h0A2.76,2.76,0,0,1,19,24.39c-.31.41-.61.13-1-.16"/><path class="cls-3" d="M48.35,21.69a3.39,3.39,0,0,1,4.69.2c.48-.22,1,.41.86.91a1.4,1.4,0,0,1-1.23.83c-.52.07-1,0-1.56,0A7.23,7.23,0,0,0,48,25.2c-1.54,1-4.58,1.31-3.4-1.49C45.35,21.91,47.05,22.94,48.35,21.69Z"/><path class="cls-3" d="M20.9,50.59a11.45,11.45,0,0,1,1.37-1.76,1.91,1.91,0,0,1,2-.74,3.34,3.34,0,0,1,.72-2,1.57,1.57,0,0,1,1.93-.39,9.18,9.18,0,0,0,.32,3.72,2,2,0,0,1,.15,1c-.13.64-.85.93-1.47,1.12-2.16.63-4.33,1.18-6.53,1.63-.4-.37-.2-1.07.18-1.47s0-.7.37-1.14.57.14,1,0"/><path class="cls-4" d="M53.59,13.76a29.18,29.18,0,0,0-9.44-9.51c4.7,30.84-19.66,45.65-29,50.14.64.35,1.3.67,2,1C27.75,53.34,58.29,44.79,53.59,13.76Z"/><path class="cls-5" d="M53.59,13.76c4.7,31-25.84,39.58-36.47,41.6a29,29,0,0,0,36.47-41.6Z"/><path class="cls-6" d="M37.58,14.54c.14-2.59-.14-5.43-1.92-7.32a10.68,10.68,0,0,0-4.2-2.38c-3.54-1.28-7.64-2.23-10.92-.39a19.83,19.83,0,0,0-4,3.52c-2.27,2.26-4.93,4.12-7.11,6.46C2,22.38,1.66,35.9,8.61,44.25c2.57,3.09,6.73,5.7,11,4.58,3.65-1,5.6-5.13,7.5-8.09C32.17,32.81,37.05,24.17,37.58,14.54Z"/></g></g></svg>