<svg xmlns="http://www.w3.org/2000/svg" viewBox="0 0 75.97 75.97"><defs><style>.cls-1{isolation:isolate;}.cls-2,.cls-3,.cls-4,.cls-5{fill:#4d9bff;}.cls-3{opacity:0.78;}.cls-3,.cls-4,.cls-5{mix-blend-mode:multiply;}.cls-4{opacity:0.5;}.cls-5{opacity:0.8;}</style></defs><title>Asset 1</title><g class="cls-1"><g id="Layer_2" data-name="Layer 2"><g id="Objects"><g id="_Group_" data-name="&lt;Group&gt;"><circle id="_Path_" data-name="&lt;Path&gt;" class="cls-2" cx="37.99" cy="37.99" r="37.99"/><path id="_Path_2" data-name="&lt;Path&gt;" class="cls-3" d="M38,3.86c6,0,11.75.1,17.23.27-.7-.36-1.42-.7-2.14-1-4.75-.23-9.82-.36-15.09-.36s-10.35.13-15.09.36c-.73.31-1.45.65-2.15,1C26.23,4,32,3.86,38,3.86Z"/><path id="_Path_3" data-name="&lt;Path&gt;" class="cls-4" d="M38,72.92a94.33,94.33,0,0,1-19.42-2.28,37.14,37.14,0,0,0,5.25,2.6A91.56,91.56,0,0,0,38,74.32a91.65,91.65,0,0,0,14.17-1.08,37,37,0,0,0,5.24-2.6A94.15,94.15,0,0,1,38,72.92Z"/><path id="_Path_4" data-name="&lt;Path&gt;" class="cls-4" d="M2.8,52.32c8.7,1.17,20.87,1.44,34.51,1.44,14,0,26.81-.28,35.9-1.53a36.92,36.92,0,0,0,1.73-5.4C65.76,48.18,52.17,48,37.31,48c-14.63,0-27.49.17-36.26-1.11A38.22,38.22,0,0,0,2.8,52.32Z"/><path id="_Path_5" data-name="&lt;Path&gt;" class="cls-4" d="M11.32,10.94a38.13,38.13,0,0,0-3,3.27c8.41-.86,19.69-.72,31.88-.72,10.26,0,19.6-.1,27.1.39a38.08,38.08,0,0,0-3-3.3c-6.94-.47-15.16-.6-24.05-.6C29.4,10,19.32,10.17,11.32,10.94Z"/><path id="_Path_6" data-name="&lt;Path&gt;" class="cls-5" d="M67.45,62A285.14,285.14,0,0,1,38,63.38,285,285,0,0,1,8.53,62a39.38,39.38,0,0,0,3.7,3.94c7.58.67,16.37,1,25.76,1s18.18-.38,25.75-1A38.35,38.35,0,0,0,67.45,62Z"/><path id="_Path_7" data-name="&lt;Path&gt;" class="cls-5" d="M0,37H76c0-.65,0-1.29-.09-1.93H.11C.06,35.73,0,36.37,0,37Z"/><path id="_Path_8" data-name="&lt;Path&gt;" class="cls-5" d="M68.4,15.22a40.78,40.78,0,0,1-60.5,46,38,38,0,0,0,60.5-46Z"/></g></g></g></g></svg>