<svg xmlns="http://www.w3.org/2000/svg" xmlns:xlink="http://www.w3.org/1999/xlink" viewBox="0 0 42.83 186.76"><defs><style>.cls-1{isolation:isolate;}.cls-2{fill:#f68f37;}.cls-3{fill:#f1bc02;}.cls-4{fill:#f9f8a8;}.cls-5{fill:#f1db28;}.cls-6{opacity:0.8;}.cls-7{fill:#d27a31;}.cls-8{fill:#f9fafd;}.cls-16,.cls-9{fill:#1285a2;}.cls-10{fill:#5a9cd4;}.cls-11{fill:#dcdde0;}.cls-11,.cls-12,.cls-13,.cls-16,.cls-17{mix-blend-mode:multiply;}.cls-13{fill:#cacbce;}.cls-14{fill:#281c4b;}.cls-15{fill:url(#Degradado_sin_nombre_31);}.cls-16,.cls-17{opacity:0.5;}</style><linearGradient id="Degradado_sin_nombre_31" x1="1126.48" y1="-1454.33" x2="1126.48" y2="-1439.15" gradientTransform="translate(-1079.29 1506.03) rotate(-1.03)" gradientUnits="userSpaceOnUse"><stop offset="0" stop-color="#fff"/><stop offset="0.07" stop-color="#fff" stop-opacity="0.85"/><stop offset="0.21" stop-color="#fff" stop-opacity="0.6"/><stop offset="0.35" stop-color="#fff" stop-opacity="0.38"/><stop offset="0.47" stop-color="#fff" stop-opacity="0.22"/><stop offset="0.58" stop-color="#fff" stop-opacity="0.1"/><stop offset="0.68" stop-color="#fff" stop-opacity="0.03"/><stop offset="0.74" stop-color="#fff" stop-opacity="0"/></linearGradient></defs><title>Asset 4</title><g class="cls-1"><g id="Layer_2" data-name="Layer 2"><g id="OBJECTS"><path class="cls-2" d="M30.57,114.69c-3,11.66-5.73,18.46-8.55,44.49,0,.06,0,.11,0,.17a1,1,0,0,0,0-.17c-2.81-26-5.52-32.83-8.55-44.49s0-25.95,0-25.95L22,87.64h0l8.55,1.1S33.61,103,30.57,114.69Z"/><path class="cls-3" d="M22,135.79c-1.39-7.59-2.8-12.72-4.25-18-.47-1.73-1-3.51-1.45-5.38-1.6-6.15-.94-17.94-.38-22.25H27.71c.56,4.3,1.6,16.08,0,22.25-.49,1.87-1,3.65-1.45,5.37C24.81,123.07,23.4,128.2,22,135.79Z"/><path class="cls-4" d="M22,122.4c-.61-2.88-1.23-5.54-1.83-8.15v0c-.46-2-.94-4.08-1.41-6.22-.89-4-.85-12.06-.54-17.86h7.27c.45,6.28.61,14.08-.22,17.86-.47,2.14-1,4.22-1.42,6.23v0C23.23,116.87,22.62,119.52,22,122.4Z"/><path class="cls-5" d="M12.08,151.64a2.19,2.19,0,1,1-2.22-2.16A2.18,2.18,0,0,1,12.08,151.64Z"/><g class="cls-6"><path class="cls-5" d="M21.33,168.59A1.57,1.57,0,1,0,22.87,167,1.56,1.56,0,0,0,21.33,168.59Z"/><path class="cls-7" d="M35.56,160a2.27,2.27,0,0,0,3.25,3.16h0A2.27,2.27,0,0,0,35.56,160Z"/><path class="cls-5" d="M20.61,183a2.27,2.27,0,0,0,3.26,3.16h0A2.27,2.27,0,0,0,20.61,183Z"/></g><path class="cls-8" d="M20.63,0h0l0,.44,0-.44h0A78.08,78.08,0,0,0,8.78,82.15L10.94,87a21,21,0,0,0,22-.33l2-4.94A78.06,78.06,0,0,0,20.63,0Z"/><path class="cls-9" d="M8.29,81c.16.39.32.79.49,1.17L10.94,87a21,21,0,0,0,22-.33l2-4.94c.16-.39.31-.79.46-1.18A26.89,26.89,0,0,1,8.29,81Z"/><path class="cls-10" d="M20.91,18.68h-.1a25.84,25.84,0,0,1-10.87-2.3c-.4.82-.79,1.66-1.16,2.5A26.11,26.11,0,0,0,20.86,21.7a26.14,26.14,0,0,0,12.19-3.19c-.4-.83-.81-1.65-1.24-2.47A25.63,25.63,0,0,1,20.91,18.68Z"/><path class="cls-10" d="M20.87,16.17a23.26,23.26,0,0,0,9.74-2.33A77.93,77.93,0,0,0,20.63,0l0,.44,0-.44h0a78.21,78.21,0,0,0-9.55,14.14,23.23,23.23,0,0,0,9.71,2Z"/><path class="cls-11" d="M20.47,1v.44l0-.44h0c-.06.07-.11.14-.17.2L21.63,91h.17A20.84,20.84,0,0,0,32.63,87.7c.66-1.65,1.33-3.3,2-4.94A78.74,78.74,0,0,0,20.47,1Z"/><g class="cls-12"><path class="cls-13" d="M20.43,1l0,.44,0-.44h0l-.16.2A114.14,114.14,0,0,1,35,43.21,114.61,114.61,0,0,1,32.6,87.64q1-2.46,2-4.94A78.72,78.72,0,0,0,20.43,1Z"/></g><path class="cls-13" d="M20.48,1.44S-1.77,37.25,15.89,90.15l-3.76-1.34S-6.91,40.2,20.48,1.44Z"/><path class="cls-14" d="M21.1,48.77a7.53,7.53,0,1,1,7.41-7.64A7.54,7.54,0,0,1,21.1,48.77Z"/><path class="cls-9" d="M20.88,34.61a6.63,6.63,0,1,1-6.53,6.73,6.64,6.64,0,0,1,6.53-6.73m0-1.79a8.42,8.42,0,1,0,8.55,8.29,8.43,8.43,0,0,0-8.55-8.29Z"/><path class="cls-15" d="M16.18,41.34A4.78,4.78,0,1,1,21,46,4.77,4.77,0,0,1,16.18,41.34Z"/><path class="cls-10" d="M30.71,87.53,35.51,65l4,7.06a26.56,26.56,0,0,1,2.77,18.57l-2.72,12.65Z"/><path class="cls-16" d="M30.71,87.53,35.51,65a44.8,44.8,0,0,1,3.27,19.63,44.22,44.22,0,0,1-2.73,12.81Z"/><path class="cls-16" d="M30.71,87.53,35.51,65c1.6,3.93,1.77,7,1.23,15.76A44.73,44.73,0,0,1,34,93.6C32.23,90.29,32.49,90.84,30.71,87.53Z"/><path class="cls-10" d="M12.2,87.81,6.72,65.46,3,72.64A26.52,26.52,0,0,0,.78,91.29l3.11,12.56Z"/><path class="cls-16" d="M12.2,87.81,6.72,65.46A44.28,44.28,0,0,0,7.17,97.9Q9.69,92.86,12.2,87.81Z"/><path class="cls-16" d="M12.2,87.81,6.72,65.46c-1.48,4-1.29,6.43-.49,15.16A44.23,44.23,0,0,0,9.35,93.34C11,90,10.52,91.17,12.2,87.81Z"/><path class="cls-10" d="M22.16,104.19,17.5,75a15.07,15.07,0,0,1,4.07-12.87l0,0h0A15.05,15.05,0,0,1,26,74.86Z"/><g class="cls-17"><path class="cls-9" d="M21.59,62.07h0l0,0-.09.1.63,41.69.05.31L26,74.86A15.05,15.05,0,0,0,21.59,62.07Z"/></g></g></g></g></svg>