<svg xmlns="http://www.w3.org/2000/svg" xmlns:xlink="http://www.w3.org/1999/xlink" viewBox="0 0 350.18 503.4"><defs><style>.cls-1{isolation:isolate;}.cls-2{fill:url(#Degradado_sin_nombre_4);}.cls-3{fill:#d27a31;}.cls-4{fill:#fff;}.cls-18,.cls-19,.cls-5{opacity:0.5;}.cls-5{fill:url(#Degradado_sin_nombre_10);}.cls-6{fill:url(#Degradado_sin_nombre_9);}.cls-7{fill:url(#Degradado_sin_nombre_4-2);}.cls-8{fill:#f1db28;}.cls-9{opacity:0.8;}.cls-10{fill:#f9fafd;}.cls-11,.cls-18{fill:#1285a2;}.cls-12{fill:#5a9cd4;}.cls-13{fill:#dcdde0;}.cls-13,.cls-14,.cls-15,.cls-18,.cls-19{mix-blend-mode:multiply;}.cls-15{fill:#cacbce;}.cls-16{fill:#281c4b;}.cls-17{fill:url(#Degradado_sin_nombre_31);}.cls-20{fill:none;}</style><linearGradient id="Degradado_sin_nombre_4" y1="280.66" x2="349.18" y2="280.66" gradientUnits="userSpaceOnUse"><stop offset="0" stop-color="#fff"/><stop offset="0.97" stop-color="#f1db28"/></linearGradient><linearGradient id="Degradado_sin_nombre_10" x1="1409.77" y1="-1371.76" x2="1409.77" y2="-1282.54" gradientTransform="translate(-1233.36 1541.6)" gradientUnits="userSpaceOnUse"><stop offset="0.04" stop-color="#fff"/><stop offset="0.9" stop-color="#fff" stop-opacity="0"/></linearGradient><linearGradient id="Degradado_sin_nombre_9" x1="1410.51" y1="-2065.35" x2="1410.51" y2="-1977.81" gradientTransform="matrix(1, 0, 0, 0.64, -1234.15, 1489.04)" gradientUnits="userSpaceOnUse"><stop offset="0.04" stop-color="#fff"/><stop offset="1" stop-color="#fff" stop-opacity="0"/></linearGradient><linearGradient id="Degradado_sin_nombre_4-2" x1="1279.12" y1="-1377.81" x2="1279.12" y2="-1304.17" gradientTransform="translate(-1078.67 1509.83) rotate(-1.03)" xlink:href="#Degradado_sin_nombre_4"/><linearGradient id="Degradado_sin_nombre_31" x1="1279.17" y1="-1425.89" x2="1279.17" y2="-1410.71" gradientTransform="translate(-1078.67 1509.83) rotate(-1.03)" gradientUnits="userSpaceOnUse"><stop offset="0" stop-color="#fff"/><stop offset="0.07" stop-color="#fff" stop-opacity="0.85"/><stop offset="0.21" stop-color="#fff" stop-opacity="0.6"/><stop offset="0.35" stop-color="#fff" stop-opacity="0.38"/><stop offset="0.47" stop-color="#fff" stop-opacity="0.22"/><stop offset="0.58" stop-color="#fff" stop-opacity="0.1"/><stop offset="0.68" stop-color="#fff" stop-opacity="0.03"/><stop offset="0.74" stop-color="#fff" stop-opacity="0"/></linearGradient></defs><title>Asset 1</title><g class="cls-1"><g id="Layer_2" data-name="Layer 2"><g id="OBJECTS"><path class="cls-2" d="M343.75,462.68c2.44-7.29,11.06-33-.3-50.59,0,0-.13-.2-11.47-15.22h0c-7.31-6.74-11.49-8.48-17.08-16.7-20.71-30.45,2.36-55.53-18.1-84.82-7.74-11.08-20.33-16.56-30.57-24.91-18.59-15.16-29.31-41-27.45-66.21,1.07-14.36,5.65-30.1-1.41-42.3-6.77-11.69-20.64-15.26-32.41-20.45-25.23-7.44-40.3-44-34.82-78.39-9.88,6.39-12.9,20.38-13.34,32.87s.7,25.63-4.28,36.9c-6.08,13.76-19.92,21.57-27.41,34.48-14.44,24.92-1.71,61.37-18.09,84.82-7.74,11.09-20.33,16.57-30.58,24.92-18.58,15.15-29.31,41-27.44,66.2,1.06,14.37,5.65,30.11-1.42,42.3-7.45,12.86-19.43,6.95-32.41,20.45C3,418.71-3.61,439.47,2.06,458c2.1,6.88,4.88,16,13.05,20.75,21.94,12.83,52.54-23,75.34-10,8.56,4.88,7.53,11.81,20.86,18.7,9.44,4.88,20.45,6.66,25,7.62a81.27,81.27,0,0,0,14.82,1.61c19.16.5,47-3.85,81.64-27.6,37.21,28.57,76.36,36.84,95,21.67C336.76,483.46,340.92,471.1,343.75,462.68Z"/><path class="cls-3" d="M349.11,459.43c3.45-18.38-1.87-36.71-10.44-48.33-7.42-10.05-13.12-14.51-13.12-14.51-6.83-6.3-10.73-7.92-16-15.6-19.34-28.46,2.21-51.88-16.9-79.24-7.23-10.36-19-15.48-28.57-23.28-17.36-14.16-27.38-38.33-25.64-61.85,1-13.42,5.28-28.13-1.32-39.52-6.33-10.92-19.28-14.26-30.28-19.11-23.57-7-37.65-41.15-32.53-73.23-9.23,6-12,19-12.46,30.71s.65,23.94-4,34.47c-5.68,12.85-18.61,20.15-25.6,32.22-13.49,23.27-1.61,57.32-16.91,79.23-7.23,10.36-19,15.48-28.56,23.28C69.45,298.83,59.43,323,61.18,346.52c1,13.43,5.27,28.13-1.33,39.52C53.53,397,40.24,399.47,29.58,405.15,15.83,412.47,6.09,427,2.28,443.05.1,465.47,5.94,474.9,11.11,479.43c17,14.87,43-9.38,88-1.34,28.42,5.08,31.7,17.19,55.24,18.29,28.59,1.34,52.56-15.16,68.1-28.95,44.55,34.67,92,40.77,112,22C345.19,479.35,348.73,461.48,349.11,459.43Z"/><path class="cls-4" d="M342.45,446.31c-2.5-10.86-8-18.09-17.34-30.22-15.13-19.6-19.64-17.55-26.92-28.48-17.91-26.91,2-49.07-15.65-74.95-6.7-9.8-17.59-14.65-26.45-22-16.08-13.39-25.36-36.26-23.74-58.51.92-12.7,4.88-26.6-1.23-37.38-5.86-10.33-17.85-13.48-28-18.07-21.83-6.58-34.87-38.93-30.12-69.27-8.55,5.64-11.16,18-11.54,29s.6,22.65-3.71,32.61c-5.26,12.16-17.23,19.06-23.7,30.47-12.5,22-1.49,54.23-15.66,75-6.69,9.79-17.58,14.64-26.45,22C75.83,309.89,66.56,332.76,68.17,355c.92,12.7,4.89,26.6-1.22,37.38-5.86,10.33-18.17,12.7-28,18.07-12.73,6.93-21.75,20.65-25.28,35.85-2.13,4.69-9.3,21-2.52,33.12,9.44,16.85,44.22,22.69,82.67,3.33a143.21,143.21,0,0,0,120.67,1.33l23.33-3.33c37.85,29.37,80.69,27.85,96.67,8.67C343.23,478.89,345.78,460.77,342.45,446.31Z"/><rect class="cls-5" x="164.28" y="114.01" width="24.27" height="158.01" transform="translate(-2.89 2.68) rotate(-0.86)"/><rect class="cls-6" x="171.58" y="114.01" width="9.73" height="102.16" transform="matrix(1, -0.02, 0.02, 1, -2.47, 2.68)"/><path class="cls-7" d="M175.51,109.27h0c-13.8,20.54-13.3,53.51,1.11,73.62h0C190.41,162.35,189.91,129.39,175.51,109.27Z"/><path class="cls-3" d="M175.6,115.67h0c-8.29,14.37-7.94,37.46.78,51.58h0C184.67,152.88,184.33,129.78,175.6,115.67Z"/><path class="cls-8" d="M165.88,181.12a2.19,2.19,0,1,1-2.22-2.16A2.19,2.19,0,0,1,165.88,181.12Z"/><g class="cls-9"><path class="cls-8" d="M175.12,198.07a1.58,1.58,0,0,0,1.59,1.54,1.57,1.57,0,0,0-.05-3.13A1.57,1.57,0,0,0,175.12,198.07Z"/><path class="cls-3" d="M189.35,189.44a2.27,2.27,0,0,0,3.26,3.16h0A2.27,2.27,0,0,0,189.35,189.44Z"/><path class="cls-8" d="M174.41,212.47a2.27,2.27,0,0,0,3.25,3.16h0A2.27,2.27,0,0,0,174.41,212.47Z"/></g><path class="cls-10" d="M174.43,29.48h0l0,.44,0-.44h0a78,78,0,0,0-11.84,82.15l2.16,4.88a21,21,0,0,0,22-.33c.67-1.65,1.34-3.29,2-4.94A78.06,78.06,0,0,0,174.43,29.48Z"/><path class="cls-11" d="M162.08,110.47c.17.39.33.78.5,1.16l2.16,4.88a21,21,0,0,0,22-.33c.67-1.65,1.34-3.29,2-4.94.16-.39.3-.79.45-1.18a26.92,26.92,0,0,1-27.12.41Z"/><path class="cls-12" d="M174.7,48.16h-.1a25.84,25.84,0,0,1-10.87-2.3c-.4.82-.79,1.66-1.16,2.5A26,26,0,0,0,186.84,48c-.39-.83-.81-1.65-1.24-2.47A25.59,25.59,0,0,1,174.7,48.16Z"/><path class="cls-12" d="M174.67,45.65a23.22,23.22,0,0,0,9.73-2.32,77.58,77.58,0,0,0-10-13.85l0,.44,0-.44h0a78,78,0,0,0-9.55,14.14,23,23,0,0,0,9.7,2Z"/><path class="cls-13" d="M174.43,29.48l0,.44,0-.44h0c-.06.07-.11.14-.17.2l1.36,89.76h.17a21.15,21.15,0,0,0,10.95-3.27c.67-1.65,1.34-3.29,2-4.94A78.06,78.06,0,0,0,174.43,29.48Z"/><g class="cls-14"><path class="cls-15" d="M174.4,29.43v.44l0-.44h0c-.06.07-.12.13-.17.2a113,113,0,0,1,12.48,86.49l2-4.93A78.05,78.05,0,0,0,174.4,29.43Z"/></g><path class="cls-15" d="M174.45,29.92s-22.51,35.81-4.65,88.71l-3.8-1.34S146.74,68.68,174.45,29.92Z"/><path class="cls-16" d="M174.89,78.25a7.53,7.53,0,1,1,7.42-7.64A7.55,7.55,0,0,1,174.89,78.25Z"/><path class="cls-11" d="M174.68,64.09a6.63,6.63,0,1,1-6.53,6.73,6.63,6.63,0,0,1,6.53-6.73m0-1.79a8.42,8.42,0,1,0,8.55,8.29,8.43,8.43,0,0,0-8.55-8.29Z"/><path class="cls-17" d="M170,70.83a4.77,4.77,0,1,1,4.86,4.68A4.77,4.77,0,0,1,170,70.83Z"/><path class="cls-12" d="M184.51,117l4.8-22.5,3.94,7.06A26.6,26.6,0,0,1,196,120.15l-2.73,12.64Z"/><path class="cls-18" d="M184.51,117l4.8-22.5a45,45,0,0,1,3.27,19.63A44.44,44.44,0,0,1,189.84,127Z"/><path class="cls-18" d="M184.51,117l4.8-22.5c1.6,3.93,1.76,7,1.22,15.77a44.06,44.06,0,0,1-2.73,12.8C186,119.77,186.29,120.32,184.51,117Z"/><path class="cls-12" d="M166,117.29l-5.48-22.35-3.73,7.18a26.57,26.57,0,0,0-2.21,18.65l3.1,12.56Z"/><path class="cls-18" d="M166,117.29l-5.48-22.35a44.92,44.92,0,0,0-2.67,19.72A44.26,44.26,0,0,0,161,127.38Z"/><path class="cls-18" d="M166,117.29l-5.48-22.35c-1.48,4-1.29,6.43-.49,15.16a44.26,44.26,0,0,0,3.11,12.72C164.82,119.46,164.32,120.65,166,117.29Z"/><path class="cls-12" d="M176,133.67l-4.66-29.23a15.07,15.07,0,0,1,4.07-12.86l0,0h0a15,15,0,0,1,4.45,12.79Z"/><g class="cls-19"><path class="cls-11" d="M175.38,91.55h0l0,0-.09.09.63,41.7,0,.3,3.88-29.33A15,15,0,0,0,175.38,91.55Z"/></g><rect class="cls-20" x="20.72" width="308.99" height="429.53"/></g></g></g></svg>