<svg xmlns="http://www.w3.org/2000/svg" viewBox="0 0 52.7 109.36"><defs><style>.cls-1{fill:#ffa600;}.cls-2{fill:#ffda00;}.cls-3{fill:#fff;opacity:0.44;}.cls-4{opacity:0.64;}.cls-5{fill:#f7f3ed;}</style></defs><title>Asset 4</title><g id="Layer_2" data-name="Layer 2"><g id="BACKGROUND_2" data-name="BACKGROUND 2"><path class="cls-1" d="M34.9,14.05A54.87,54.87,0,0,0,0,0V109.25A56.23,56.23,0,0,0,38,91.31C58.75,68.88,57.37,34.29,34.9,14.05Z"/><path class="cls-2" d="M35,20.28A44.62,44.62,0,0,0,0,7.87V109.36A48.85,48.85,0,0,0,36.67,92C55,70.89,54.21,38.77,35,20.28Z"/><path class="cls-3" d="M41.17,75.76a66.08,66.08,0,0,0,2.61-26A66.93,66.93,0,0,0,30.61,16.37,50,50,0,0,1,43.45,31.19,50.72,50.72,0,0,1,49.9,57.31a26.57,26.57,0,0,1-8.73,18.45Z"/><g class="cls-4"><path class="cls-2" d="M33.88,91.21s-13,13.12-25.05,12.24C8.83,103.45,32.63,92.92,33.88,91.21Z"/><path class="cls-5" d="M33.88,91.21a41.08,41.08,0,0,1-5,5.22A42.53,42.53,0,0,1,23,100.76a31,31,0,0,1-6.71,3.16,20.86,20.86,0,0,1-7.58,1l-6.21-.38,5.72-2.48,6.38-2.78c2.15-.89,4.28-1.83,6.44-2.69L27.51,94l3.24-1.3c.53-.22,1.07-.44,1.6-.68A6.59,6.59,0,0,0,33.88,91.21Zm0,0a13,13,0,0,1-2.75,2.21c-1,.66-2,1.27-3,1.88-2,1.19-4.06,2.34-6.13,3.42s-4.16,2.12-6.25,3.15-4.22,2-6.34,2.95L8.94,102a19.1,19.1,0,0,0,6.54-.77,36.31,36.31,0,0,0,6.4-2.48A65.06,65.06,0,0,0,28,95.24C30,94,31.94,92.63,33.88,91.21Z"/></g><path class="cls-3" d="M26.54,15.52S13.51,1.7.88,9.08c0,.14,8.54.12,8.84.29C9.72,9.37,21.38,11.15,26.54,15.52Z"/></g></g></svg>