<svg xmlns="http://www.w3.org/2000/svg" xmlns:xlink="http://www.w3.org/1999/xlink" viewBox="0 0 311.21 415.44"><defs><style>.cls-1{fill:none;}.cls-2{fill:#428670;}.cls-3{fill:#70b78d;}.cls-4{fill:#1a3d2a;}.cls-20,.cls-5{fill:#87de89;}.cls-6{fill:#e0dcda;}.cls-7{fill:#cbbfbf;}.cls-8{fill:#9d9696;}.cls-9{clip-path:url(#clip-path);}.cls-10{fill:#848484;}.cls-11{fill:#c7bfb3;}.cls-12,.cls-13{opacity:0.56;}.cls-13{fill:url(#Degradado_sin_nombre_3);}.cls-14{fill:#fcfcfc;}.cls-15{fill:#b5b5b5;}.cls-16{fill:#f2f2f2;}.cls-17{fill:#4d9169;}.cls-18{fill:#62bf88;}.cls-19{fill:#2f6043;}.cls-20,.cls-21{opacity:0.2;}.cls-21{fill:#74edb1;}.cls-22{fill:url(#linear-gradient);}</style><clipPath id="clip-path"><path class="cls-1" d="M1,132.32s-7.67,19,18.66,26.33c21.9,6.1,90-2.14,166.17-42.33C268,73,226,42,226,42S104.7,33.82,1,132.32Z"/></clipPath><radialGradient id="Degradado_sin_nombre_3" cx="105.87" cy="58.82" r="87.23" gradientUnits="userSpaceOnUse"><stop offset="0" stop-color="#92b1f7" stop-opacity="0"/><stop offset="1" stop-color="#fbf7d7" stop-opacity="0.8"/></radialGradient><linearGradient id="linear-gradient" x1="117.24" y1="102.55" x2="177.24" y2="302.55" gradientUnits="userSpaceOnUse"><stop offset="0" stop-color="#74edb1" stop-opacity="0.3"/><stop offset="1" stop-color="#74edb1" stop-opacity="0"/></linearGradient></defs><title>Asset 1</title><g id="Layer_2" data-name="Layer 2"><g id="OBJECTS"><path class="cls-2" d="M93.92,23.09s-1-4.93,2.75-11.24c2.19-3.42,4-1.09,3.83-.13a1.88,1.88,0,0,1-2.87,1.5A14.42,14.42,0,0,0,95.71,23.5Z"/><path class="cls-2" d="M80.56,28.11s-2.48-4.38-9.39-6.76c-3.89-1.18-3.73,1.75-3,2.39A1.88,1.88,0,0,0,71.33,23a14.51,14.51,0,0,1,8.15,6.57Z"/><path class="cls-3" d="M103.53,31.13h0A13.53,13.53,0,0,0,90.78,22.7c-7.49,0-13.57,5.71-13.57,12.75A12.19,12.19,0,0,0,77.76,39h0C81.67,51.79,92.69,54.14,97,54.14a6.27,6.27,0,0,0,5.76-3.9C107.08,38.51,103.53,31.13,103.53,31.13Z"/><path class="cls-2" d="M92.14,22.72s6.58,3.18,7.61,7.19,2.88,16.14-2.57,21.49c0,0-2.06,2.67-8.12,1,0,0,9.8,4.11,12.75-.38s5.34-14.67.82-22.89C99.65,23.61,92.14,22.72,92.14,22.72Z"/><path class="cls-4" d="M104.93,38.57c0,3.72-2.05,6.73-4.58,6.73s-4.57-3-4.57-6.73,2-6.74,4.57-6.74S104.93,34.85,104.93,38.57Z"/><path class="cls-5" d="M100.51,34.19c2,1,2.19,3.32,2.33,5.31,0,.65,1.08.66,1,0-.17-2.36-.53-5-2.84-6.19-.58-.31-1.1.57-.52.88Z"/><path class="cls-5" d="M103,41.94h.1a.52.52,0,0,0,0-1H103a.52.52,0,0,0,0,1Z"/><path class="cls-4" d="M92.69,39.47c2,3.14,1.88,6.78-.25,8.13S87,47.51,85,44.37s-1.87-6.79.26-8.14S90.7,36.33,92.69,39.47Z"/><path class="cls-5" d="M86.62,38.05c.81-.46,2.33.81,2.92,1.27a5.48,5.48,0,0,1,1.83,2.27c.24.6,1.24.34,1-.28a7,7,0,0,0-2.65-3.14c-1-.71-2.36-1.73-3.61-1a.52.52,0,0,0,.52.89Z"/><path class="cls-5" d="M92.66,43.69a.52.52,0,0,0,0-1,.52.52,0,0,0,0,1Z"/><path class="cls-5" d="M89.57,23.44h-.2a.51.51,0,0,0,0,1h.2a.51.51,0,0,0,0-1Z"/><path class="cls-5" d="M90.55,24.72a5,5,0,0,1,3.31,1.34c.43.5,1.15-.23.73-.73a5.75,5.75,0,0,0-3.77-1.6c-.65-.09-.93.9-.27,1Z"/><path class="cls-6" d="M1,132.32s11.09-35.94,33.66-56C55.7,57.65,137,25.65,158.37,25.65,180.16,25.65,212.7,33,226,42,226,42,104.37,37,1,132.32Z"/><path class="cls-7" d="M34.7,76.32A134.8,134.8,0,0,1,52.37,64.48S26.12,86.82,26.62,92.57,80.87,76.32,80.87,76.32,35,99.07,1,132.32C1,132.32,11,97.82,34.7,76.32Z"/><path class="cls-6" d="M156.62,25.57s-21.5,3.5-37.75,10c0,0,35.5-4.25,37.25,3.25s-26.75,18-26.75,18S180.7,40.15,226,42C226,42,206.62,27.82,156.62,25.57Z"/><path class="cls-8" d="M1,132.32s-7.67,19,18.66,26.33c21.9,6.1,90-2.14,166.17-42.33C268,73,226,42,226,42S104.7,33.82,1,132.32Z"/><g class="cls-9"><path class="cls-10" d="M.6,132.76c5.12,5.29,12.5,8.81,19.29,11.29,19.07,6.95,40,5.53,59.31.54a.63.63,0,0,0-.33-1.21c-19.14,5-39.77,6.35-58.64-.54-6.57-2.39-13.79-5.84-18.75-11-.56-.57-1.44.31-.88.89Z"/><path class="cls-10" d="M31.6,107.09c11.88,14,30.47,23.5,48.77,24.18.81,0,.8-1.22,0-1.25-18-.67-36.22-10.08-47.89-23.81-.52-.62-1.4.27-.88.88Z"/><path class="cls-10" d="M68.17,82.63c6.15,12.72,13.12,27.55,23.76,37.13.6.54,1.48-.35.88-.89C82.28,109.39,75.35,94.61,69.24,82c-.35-.72-1.42-.09-1.07.63Z"/><path class="cls-10" d="M102.77,66.15l16,41c.29.74,1.5.42,1.2-.33l-16-41c-.29-.74-1.49-.42-1.2.33Z"/><path class="cls-10" d="M145.1,53.15c4.23,13.42,8.19,29.77,4.67,43.67a.62.62,0,0,0,1.2.33c3.58-14.11-.37-30.73-4.66-44.33-.24-.77-1.45-.44-1.21.33Z"/><path class="cls-10" d="M181.77,44.48c3.54,17,2.75,37.75-7.6,52.19-.47.65.61,1.28,1.07.63C185.8,82.58,186.57,61.41,183,44.15c-.16-.79-1.37-.45-1.2.33Z"/><path class="cls-10" d="M219.44,41.82c.91,6.66-.54,15-2.54,21.67-5.59,18.82-18.82,33.95-34.51,45.29-.65.46,0,1.55.63,1.08,15.71-11.35,29-26.37,34.81-45.12,2.27-7.27,3.87-15.61,2.81-23.26-.11-.79-1.31-.45-1.2.34Z"/></g><path class="cls-11" d="M179.76,101c-3-8.16-28.4-6.26-56.66,4.25s-48.71,25.65-45.67,33.82l6,15L185.76,116Z"/><g class="cls-12"><path class="cls-13" d="M157.93,27.4C144.35,3.39,111-6.77,79.24,4.75,45.39,17,25.92,49.43,34.71,78,34.81,77.89,71.37,44.08,157.93,27.4Z"/></g><path class="cls-14" d="M92.07,6.7c7,.55,14.13.14,21,1.68a33.57,33.57,0,0,1,10,4.06c1.71,1,3.32,2.53,5.27,3.05.5.14,2-.12,1.43-1-2.48-4-10.81-6.79-15.19-7.87A50.67,50.67,0,0,0,92,6.58c-.1,0,0,.11.07.12Z"/><path class="cls-14" d="M133.92,20.22c.3,1.57,2.06,1.15,3.05.48.2-.14,1-.66.78-1a2.08,2.08,0,0,0-2.89-.87c-.52.27-2.31,1.57-.61,1.61a1.79,1.79,0,0,1,1.46.54l.52-.83a1.29,1.29,0,0,1,.33-.17l-.27.05a2.05,2.05,0,0,1-.49,0,3.27,3.27,0,0,1-1.11-.3c-.18-.08-.81.26-.77.48Z"/><path class="cls-14" d="M163.4,28.56c11.44,3.13,23.45,3.26,34.44,8.07,3.46,1.52,1.54-1.35-.49-2.23-10.15-4.4-23.09-7.46-34.21-6.1-.18,0,.21.25.26.26Z"/><path class="cls-14" d="M202.76,37.92c1.45,0,0-1.2-.78-1.2-1.44,0,0,1.2.78,1.2Z"/><path class="cls-15" d="M174.88,57c-.42,5-.28,10.11-.88,15.13s-2.39,9.55-3.35,14.42c-.33,1.68,4.14.08,4.65-.88,4.38-8.11,5.07-20.72,1-29-.18-.36-1.35,0-1.38.34Z"/><path class="cls-15" d="M214.25,48.63c-2.62,6.65-4.54,13.56-7.51,20.06A72.36,72.36,0,0,1,202,77.48c-2,3.14-5.27,6.09-6.39,9.58-.41,1.29,2.2,2,3,1.59,5.85-3.22,9.95-12.12,12.63-18,3.13-6.89,4.91-14,4.26-21.59,0-.37-1.09-.91-1.26-.45Z"/><path class="cls-15" d="M227.76,51c1.51,2,2,7.27,2.4,9.71.77,4.23.76,8.21-1.47,12.08C224.81,79.53,217.87,84.06,212.1,89c-.95.81,2.05.81,2.51.55C221.77,85.45,232,77.52,234,69c1-4.21-.28-17.56-6.23-18Z"/><path class="cls-15" d="M132.89,61.28c1.12.76,1.75.67,3.15.78,1,.07,2.43-.41,3.29.45s1.52,5.71,1.62,6.24c1.12,5.86.14,12.32,1.83,18,.3,1,3.4,1.22,3.8.25,2.54-6.13.49-17.28-2.21-23.36-2.38-5.35-6.6-3.71-11.33-2.76-.29.06-.43.26-.15.44Z"/><path class="cls-15" d="M99.74,73.7c-1.39,3.65,1.24,8.39,2.58,11.83,1.81,4.67,3.61,9.76,6.87,13.6.27.32,3.16,1.22,3.13.57-.14-4-2.72-8.08-4.25-11.74-2-4.82-3.53-10.15-7.09-14-.14-.16-1.13-.53-1.24-.23Z"/><path class="cls-15" d="M66.37,90c1.56,8.74,6,20,13.77,25.06,1,.68,3.37.81,2.62-1.09-1.65-4.12-5.26-7.59-7.56-11.4-2.48-4.09-4.86-8.3-7-12.6-.32-.65-2.08-1.11-1.87,0Z"/><path class="cls-15" d="M33,117c3.58,2.5,6.2,6.07,9.72,8.64,2.31,1.68,5.87,3.94,8.85,3.12,1.62-.44-.72-2.11-1.29-2.33a30.36,30.36,0,0,1-4.8-1.86,34.7,34.7,0,0,1-4.38-3.37,27.2,27.2,0,0,0-7.71-4.92c-.71-.27-1,.29-.39.72Z"/><path class="cls-15" d="M6.28,142.43c9.74,6,22.55,8.15,33.88,8,.31,0,2-.3.92-.58-4.58-1.23-9.45-1.36-14.12-2.15a85.85,85.85,0,0,1-19.18-5.43,3.14,3.14,0,0,0-1.5.17Z"/><path class="cls-16" d="M163.3,100.69a26.48,26.48,0,0,1,5.11,1.52,13.42,13.42,0,0,1,3.87,1.6c1.89,1.38,2.05,3.8,3.13,5.73.28.5,2.05,2.95,2.88,2.13,1.15-1.12-.12-3.46-.7-4.67a17.92,17.92,0,0,0-4.27-5.65,14.51,14.51,0,0,0-5.6-3.2,4.76,4.76,0,0,0-2.67-.14c-1,.34-1.5,1.26-2.43,1.8-.31.18.48.87.68.88Z"/><ellipse class="cls-17" cx="137.27" cy="136.04" rx="54.59" ry="15.77" transform="matrix(0.94, -0.35, 0.35, 0.94, -38.82, 56.39)"/><ellipse class="cls-18" cx="138.52" cy="137.54" rx="31.78" ry="9.18" transform="translate(-39.26 56.92) rotate(-20.4)"/><path class="cls-19" d="M168.31,126.46a3.28,3.28,0,0,0-1.37-1.58c-1.84,5-12.52,12.08-26.47,17.27-14.27,5.31-27.28,6.84-31.62,4a3.41,3.41,0,0,0-.12,2.42c1.77,4.75,16.54,3.65,33-2.47S170.07,131.21,168.31,126.46Z"/><path class="cls-20" d="M87.37,401.32c0-10.67,48.5-19.5,111.5-25.5s104.91-9.42,111.83-2.5-58.83,33.5-117.83,39.5S87.37,412,87.37,401.32Z"/><path class="cls-21" d="M310.7,373.32,185.76,116s-1.39-11-39.14-1.47-66.14,28.58-63.19,39.54l3.94,247.21c0,7.64,23.87,13.31,59.11,13.71a249.18,249.18,0,0,0,60-3.94C261.51,402.86,317.1,379.71,310.7,373.32Z"/><path class="cls-22" d="M106.06,147.65,115.37,322s71.33,17,129-21.33L165.63,125.5a4,4,0,0,0-3.76-2.43c-3-.17-10.33-2.42-30.25,5.25S104.83,143.74,106.06,147.65Z"/></g></g></svg>