<svg xmlns="http://www.w3.org/2000/svg" viewBox="0 0 114.89 142.74"><defs><style>.cls-1{fill:#00b8e2;}.cls-2{fill:#dededf;}.cls-3{fill:#383838;}.cls-4,.cls-7{fill:#fff;}.cls-5{fill:#b3b4b6;}.cls-6{fill:#040028;}.cls-7{opacity:0.7;}.cls-8{fill:#898c8e;}.cls-9{fill:#59595b;}.cls-10{fill:#6d6e6e;}.cls-11{fill:#2c2a2a;opacity:0.2;}.cls-12{fill:#c8c9cb;}.cls-13{fill:#ce0636;}</style></defs><title>Asset 6</title><g id="Layer_2" data-name="Layer 2"><g id="BACKGROUND_2" data-name="BACKGROUND 2"><path class="cls-1" d="M20.93,104.26A21.91,21.91,0,0,1,2.74,95.17c-5.27-7.32-2-11.64,1.84-16.63,4.05-5.31,9.1-11.92,5.58-25-2.74-10.2-2.37-17.19,1.09-20.76,3.28-3.38,8-2.32,8.21-2.27l-.37,1.57S15,31.17,12.4,33.9c-3,3.09-3.22,9.73-.67,19.2C15.45,67,10.13,73.93,5.86,79.52c-3.7,4.85-6.38,8.36-1.81,14.7,6,8.32,15.68,9.4,22.16,7.8s10.73-5.66,11.43-10.65l1.6.22c-.79,5.67-5.64,10.26-12.64,12A24.08,24.08,0,0,1,20.93,104.26Z"/><path class="cls-2" d="M73.14,130.5l-.63,0c.83-3,1.77-7.22,2.73-11.88,3.17-15.53,6.47-36.22,6.47-36.22l-30,.74-4.06-1.05c1.23,10.51,5.76,26.25,9.29,37.45C58.6,124.76,60,129,60.8,131.26l0,0,.93,10.6,22.84-1.53S86.36,130.79,73.14,130.5Z"/><path class="cls-3" d="M55.79,112.68s8.88-.73,20.9-.67l.58-3.54s-9.7-.16-22.58.58Z"/><path class="cls-4" d="M67.78,75.79H32.71l1.61,10C37.79,96,36.12,104,33.15,109.81l12.52,13C70.4,106.79,67.78,75.79,67.78,75.79Z"/><path class="cls-1" d="M26.73,118.28a.1.1,0,0,0-.05,0L19,123.93l13,18.81s9-3.34,2.77-14.57a51.77,51.77,0,0,0,10.91-5.34l-12.52-13A31.31,31.31,0,0,1,26.73,118.28Z"/><path class="cls-2" d="M50.25,85.68H27.09a7.82,7.82,0,0,1-7.82-7.81V29a8,8,0,0,1,8-8l23,4Z"/><rect class="cls-5" x="19.27" y="42.33" width="20.74" height="2.16"/><rect class="cls-5" x="19.27" y="66.9" width="20.74" height="2.16"/><path class="cls-3" d="M35.8,102.1S48.44,106.75,55,114.81l2.5-3.09S47.86,101.43,36.22,99Z"/><path class="cls-4" d="M58.5,0C39.8,0,35.88,15.37,35.88,15.37H34.39a1.24,1.24,0,0,0-1.24,1.24v17a4.25,4.25,0,0,0,1.26,3l4.67,5.82a4.65,4.65,0,0,0,3,1.33l9.16.46C73,45.65,77,40.62,77,40.62,87,29.47,80.32,0,58.5,0Z"/><path class="cls-6" d="M74.15,13.09a42.72,42.72,0,0,1,1.06,10.77c0,6.79-14.38,16.9-34.85,7v.94a6.09,6.09,0,0,0,3.32,5.43c21,10.65,35.78.33,35.78-6.57C79.46,21.85,78.28,16.23,74.15,13.09Z"/><path class="cls-6" d="M75.21,23.86a42.72,42.72,0,0,0-1.06-10.77c-2.94-2.23-7.37-3.21-13.92-3.21A20.49,20.49,0,0,0,40.36,23.76v7.13C60.83,40.76,75.21,30.65,75.21,23.86Z"/><path class="cls-7" d="M48.86,17l2-1.44c1.51-1.07,3.21-2.19,5.05-2A2,2,0,0,1,57.76,15a2.1,2.1,0,0,1-.33,1.35,6.26,6.26,0,0,1-3.34,2.84,11.76,11.76,0,0,0-1.41.49,10.17,10.17,0,0,0-1.57,1c-1.13.82-4.15,2.83-5.22,1S47.65,17.89,48.86,17Z"/><path class="cls-8" d="M42.68,19.07S49.93,4.66,71,10.79c4.17,1.34,6.32,6.3,6.32,6.3S73.8,6.75,59.91,6.77C45.65,7.68,43.24,17.17,42.68,19.07Z"/><path class="cls-9" d="M42.56,19.31S49.93,5.88,71,12a11.86,11.86,0,0,1,6.17,4.76S73.8,8,59.91,8C45.65,8.9,43.12,17.42,42.56,19.31Z"/><path class="cls-2" d="M42.68,19.07S49.93,5.27,71,11.4a11.06,11.06,0,0,1,6,5.14S73.8,7.35,59.91,7.38C45.65,8.29,43.24,17.17,42.68,19.07Z"/><circle class="cls-10" cx="40.57" cy="22.02" r="3.63"/><path class="cls-4" d="M42.33,19.58A3.06,3.06,0,0,0,40.57,19a3,3,0,0,0-3,3,3,3,0,0,0,.57,1.76,3,3,0,1,0,4.2-4.2Z"/><path class="cls-11" d="M42.33,19.58a3,3,0,0,1-4.2,4.2,3,3,0,1,0,4.2-4.2Z"/><path class="cls-4" d="M77,40.62s17.71,9.47,24.59-15.17l9.1.84S114,59.63,79.46,58.48l.81,23.9h1.44v6.37H36.94l3.91-46.91,24,1.41Z"/><path class="cls-12" d="M38.13,39.3S16.29,55.08,29.94,91.48H42.18s-5.76-22.87,1.3-34.6A9,9,0,0,0,44.7,53l.95-10.92Z"/><path class="cls-4" d="M38.13,39.3s-23.66,15.78-10,52.18H40.36S34.43,67.94,42,56.38A7.23,7.23,0,0,0,43,54l2.66-11.87Z"/><path class="cls-12" d="M77,40.62S65.13,48,48.14,42.27v1.81S63.69,51.16,79,41.35Z"/><ellipse class="cls-1" cx="34" cy="53.81" rx="4.71" ry="2.94" transform="translate(-29.65 53.18) rotate(-57.15)"/><ellipse class="cls-1" cx="34" cy="53.81" rx="4.01" ry="2.51" transform="translate(-29.65 53.18) rotate(-57.15)"/><path class="cls-12" d="M91.71,40.62l8,12.74a19.31,19.31,0,0,1-6.6,3.35,30.29,30.29,0,0,1-1.44-7,80.5,80.5,0,0,1-.49-8.86A1.75,1.75,0,0,0,91.71,40.62Z"/><polygon class="cls-12" points="110.71 31.27 100.58 28.74 101.26 26.71 110.81 28.23 110.71 31.27"/><path class="cls-11" d="M79.46,58.48V55.76s28.6,3.8,29.72-29.61l1.55.14S114.14,59.81,79.46,58.48Z"/><path class="cls-12" d="M38.2,70.78l-14.32-.49a29.61,29.61,0,0,1,.35-6.53l14,5.57Z"/><polygon class="cls-12" points="27 88.34 39.69 88.34 39.17 85.28 26.05 85.28 27 88.34"/><rect class="cls-12" x="39.18" y="80.4" width="41.1" height="1.97"/><path class="cls-1" d="M114.39,16.81l-.73-.43a1,1,0,0,0-1.27.21l-1.58,1.8.42-4a1,1,0,0,0-.88-1.2l-.67-.07a1,1,0,0,0-.5.08,1,1,0,0,0-.55.59l-1.49,4.24V12.3a1,1,0,0,0-1-1h-.82a1,1,0,0,0-1,.86L104,17.44l-1.89-3.9a1,1,0,0,0-2,.38l1.52,6.22-1.52-1.52a1,1,0,0,0-1.31-.09l-.63.46a1,1,0,0,0-.22,1.4l3.68,5.06,7.55.7,1.55.14,4-8.13A1,1,0,0,0,114.39,16.81Z"/><path class="cls-1" d="M28.12,91.48s-1.86,7.15.83,8.37,7.66,3.34,11.62,1.2c1.66-.89.28-6.09.28-6.09a6.66,6.66,0,0,0,3.35,1.13c1.66,0,3.06-2.84-2-4.61Z"/><rect class="cls-12" x="47.43" y="56.48" width="1.43" height="24.64"/><rect class="cls-12" x="48.14" y="68.81" width="31.68" height="1.21"/><rect class="cls-12" x="60.3" y="68.81" width="1.14" height="12.58"/><rect class="cls-1" x="64.93" y="56.48" width="3.91" height="3.91"/><rect class="cls-13" x="71.92" y="56.48" width="3.91" height="9.24"/><rect class="cls-1" x="64.93" y="61.81" width="3.91" height="3.91"/><rect class="cls-6" x="53.72" y="56.49" width="8.13" height="6.55" rx="3.27" ry="3.27"/><path class="cls-1" d="M60.82,131.3l.93,10.6,22.84-1.53s1.77-9.58-11.45-9.87l-.63,0c.83-3,1.34-5.13,2.29-9.79l-17.29.6c1.65,5.24,2.52,7.72,3.29,10Z"/></g></g></svg>